SplineFontDB: 3.0
FontName: MiriamMonoCLM-Bold
FullName: Miriam Mono CLM Bold
FamilyName: Miriam Mono CLM
Weight: Bold
Copyright: Copyright 2002-2010 by Maxim Iorsh (iorsh@math.technion.ac.il). Distributed under the terms of GNU General Public License version 2(http://www.gnu.org/licenses/gpl.html).\n\nHebrew vowel marks positioning algorithms implementation by Yoram Gnat 2010. (yoramg@shenkar.ac.il). \n \nLatin glyphs, digits and punctuation Copyright (URW)++,Copyright 1999 by (URW)++ Design & Development.\nAll rights reserved.
Version: 0.120
ItalicAngle: 0
UnderlinePosition: -100
UnderlineWidth: 50
Ascent: 800
Descent: 200
LayerCount: 2
Layer: 0 0 "Back"  1
Layer: 1 0 "Fore"  0
NeedsXUIDChange: 1
UniqueID: 4247518
FSType: 0
OS2Version: 0
OS2_WeightWidthSlopeOnly: 0
OS2_UseTypoMetrics: 0
CreationTime: 1235598109
ModificationTime: 1289934435
PfmFamily: 49
TTFWeight: 700
TTFWidth: 5
LineGap: 90
VLineGap: 0
OS2TypoAscent: 0
OS2TypoAOffset: 1
OS2TypoDescent: 0
OS2TypoDOffset: 1
OS2TypoLinegap: 90
OS2WinAscent: 0
OS2WinAOffset: 1
OS2WinDescent: 0
OS2WinDOffset: 1
HheadAscent: 0
HheadAOffset: 1
HheadDescent: 0
HheadDOffset: 1
OS2Vendor: 'PfEd'
Lookup: 4 1 0 "'ccmp' Yod Hiriq in Hebrew Script"  {"'ccmp' Yod Hiriq in Hebrew Script"  } ['ccmp' ('hebr' <'dflt' > ) ]
Lookup: 4 0 0 "Shin Dots Compositions"  {"Shin Dots Compositions"  } ['ccmp' ('hebr' <'dflt' > ) ]
Lookup: 4 1 0 "'ccmp' Hebrew Standard Substitutions"  {"'ccmp' Rafe above Bet Kaf Pe"  "'ccmp' Dagesh"  "'ccmp' Shin and Sin dots"  "'ccmp' Vav and Holam"  "'ccmp' Alef-a"  } ['ccmp' ('hebr' <'dflt' > ) ]
Lookup: 4 1 0 "'ccmp' Hebrew Additional Substitutions"  {"'ccmp' Dagesh in additional letters"  "'ccmp' Final Kaf"  "'ccmp' Yod Ligatures"  "'ccmp' Alef Lamed"  } ['ccmp' ('hebr' <'dflt' > ) ]
Lookup: 6 1 0 "'ccmp' Hebrew Special Decompositions"  {"'ccmp' Final Kaf Decompositions"  "'ccmp' Alef Decompositions"  "'ccmp' virtual YodHiriq Decomposition"  } ['ccmp' ('hebr' <'dflt' > ) ]

StartChar: .notdef
Encoding: 65536 -1 0
Width: 600
Flags: W
HStem: -60 100<180 420> 123 59<262.101 325.899> 207 54<275.19 315.75> 350 44<251.669 340.863> 440 100<180 420>
VStem: 80 100<40 440> 207 44<314.188 347.125> 261 66<123.98 181.024> 345 44<283.705 344.389> 420 100<40 440>
LayerCount: 2
Fore
SplineSet
207 333 m 2
 207 368 l 1
 249 388 268 394 297 394 c 0
 351 394 389 360 389 310 c 0
 389 275 370 254 316 231 c 1
 315 215 307 207 294 207 c 0
 287 207 279 211 275 217 c 0
 273 221 272 226 272 236 c 2
 272 261 l 1
 329 282 345 294 345 313 c 0
 345 335 325 350 297 350 c 0
 280 350 265 346 251 339 c 1
 251 333 l 2
 251 321 250 317 247 313 c 0
 242 307 235 304 229 304 c 0
 221 304 214 308 210 314 c 0
 207 318 207 323 207 333 c 2
298 123 m 2
 290 123 l 2
 274 123 261 137 261 153 c 0
 261 168 274 182 290 182 c 2
 298 182 l 2
 314 182 327 169 327 153 c 0
 327 136 314 123 298 123 c 2
180 40 m 1
 420 40 l 1
 420 440 l 1
 180 440 l 1
 180 40 l 1
80 540 m 1
 520 540 l 1
 520 -60 l 1
 80 -60 l 1
 80 540 l 1
EndSplineSet
Validated: 1
EndChar

StartChar: exclam
Encoding: 33 33 2
Width: 600
Flags: W
HStem: -15 132<242.406 358.047> 618 20G<277.5 324>
VStem: 225 150<3.02535 98.9747 269.766 617.854>
LayerCount: 2
Fore
SplineSet
379 525 m 2
 350 228 l 2
 347 197 329 179 301 179 c 0
 273 179 254 198 251 228 c 2
 222 525 l 2
 221 537 220 551 220 558 c 0
 220 604 254 638 301 638 c 0
 347 638 381 604 381 558 c 0
 381 552 380 538 379 525 c 2
309 -15 m 2
 292 -15 l 2
 255 -15 225 15 225 51 c 0
 225 87 255 117 292 117 c 2
 309 117 l 2
 346 117 375 88 375 51 c 0
 375 14 346 -15 309 -15 c 2
EndSplineSet
Validated: 1
EndChar

StartChar: quotedbl
Encoding: 34 34 3
Width: 600
Flags: W
HStem: 312 290<172.604 229.717 372.604 429.717>
VStem: 170 63<313.094 399.5> 370 63<313.094 399.5>
LayerCount: 2
Fore
SplineSet
136 602 m 1
 264 602 l 1
 233 348 l 2
 229 322 221 312 201 312 c 0
 182 312 173 322 170 347 c 2
 136 602 l 1
336 602 m 1
 464 602 l 1
 433 348 l 2
 429 322 421 312 401 312 c 0
 382 312 373 322 370 347 c 2
 336 602 l 1
EndSplineSet
Validated: 1
EndChar

StartChar: numbersign
Encoding: 35 35 4
Width: 600
Flags: W
HStem: 139 99<86.4205 154 261 326 432 493.577> 344 100<106.421 168 276 340 447 513.578>
LayerCount: 2
Fore
SplineSet
447 444 m 1
 472 444 l 2
 499 444 507 444 517 437 c 0
 530 427 538 410 538 394 c 0
 538 377 529 360 514 351 c 0
 505 346 496 344 472 344 c 2
 440 344 l 1
 432 238 l 1
 451 238 l 2
 478 238 488 236 497 229 c 0
 510 219 518 204 518 188 c 0
 518 171 509 155 494 146 c 0
 485 141 475 139 452 139 c 2
 425 139 l 1
 414 -29 l 2
 413 -44 406 -67 401 -73 c 0
 391 -85 376 -92 362 -92 c 0
 336 -92 313 -69 313 -44 c 0
 313 -43 313 -42 313 -41 c 2
 315 -22 l 1
 326 139 l 1
 254 139 l 1
 242 -29 l 1
 242 -70 225 -92 192 -92 c 0
 163 -92 142 -70 142 -40 c 0
 142 -36 142 -29 143 -22 c 2
 154 139 l 1
 128 139 l 2
 103 139 93 141 83 148 c 0
 70 158 62 173 62 189 c 0
 62 205 71 222 86 231 c 0
 95 237 102 238 128 238 c 2
 161 238 l 1
 168 344 l 1
 149 344 l 2
 122 344 113 346 103 353 c 0
 90 363 82 379 82 394 c 0
 82 411 91 428 106 437 c 0
 115 443 122 444 149 444 c 2
 175 444 l 1
 187 612 l 2
 188 638 190 645 198 656 c 0
 208 668 223 675 238 675 c 0
 266 675 288 651 288 624 c 0
 287 605 l 1
 276 444 l 1
 347 444 l 1
 359 612 l 2
 360 640 362 646 370 656 c 0
 380 668 395 675 410 675 c 0
 435 675 460 652 460 630 c 0
 460 629 460 628 460 627 c 2
 458 605 l 1
 447 444 l 1
340 344 m 1
 269 344 l 1
 261 238 l 1
 333 238 l 1
 340 344 l 1
EndSplineSet
Validated: 1
EndChar

StartChar: dollar
Encoding: 36 36 5
Width: 600
Flags: W
HStem: -123 247<261.264 342.015> 34 195<92.4724 168.574> 417 166<418.513 485.938> 495 97<232.353 252 351 384.452>
VStem: 83 101<152.094 207.532> 107 104<397.199 472.928> 252 99<-98.5781 31.2717 588.644 659.58> 394 102<437.423 480.853> 413 104<155.147 243.436>
LayerCount: 2
Fore
SplineSet
351 618 m 2x9680
 351 592 l 1x9680
 362 590 367 590 375 588 c 0
 380 587 385 586 394 583 c 2
 409 577 l 2
 410 576 414 575 418 574 c 1
 429 579 437 583 446 583 c 0
 473 583 492 563 495 536 c 0
 496 528 496 524 496 515 c 2
 496 483 l 2
 496 457 494 446 487 437 c 0
 477 423 462 417 446 417 c 0
 419 417 400 432 394 459 c 1x27
 391 478 351 495 310 495 c 0
 250 495 211 470 211 433 c 0
 211 406 235 387 286 377 c 2
 351 363 l 2
 413 350 449 334 475 308 c 0
 502 281 517 242 517 199 c 0
 517 112 455 47 351 27 c 1
 351 -56 l 2
 351 -84 350 -92 342 -102 c 0
 332 -115 317 -123 302 -123 c 0x9680
 285 -123 268 -114 259 -99 c 0
 253 -90 252 -81 252 -56 c 2
 252 27 l 1
 210 36 205 38 173 52 c 1
 157 38 148 34 134 34 c 0
 116 34 100 43 90 58 c 0
 85 67 83 76 83 101 c 2
 83 162 l 2
 83 189 85 198 92 208 c 0
 102 221 117 229 133 229 c 0
 146 229 160 223 169 215 c 1
 176 207 176 207 184 180 c 0x4a80
 192 149 245 124 300 124 c 0
 365 124 413 157 413 200 c 0
 413 235 389 254 333 265 c 2
 259 280 l 2
 160 300 107 356 107 437 c 0
 107 515 166 577 252 592 c 1
 252 618 l 2
 252 645 254 653 261 664 c 1
 271 676 286 684 302 684 c 0
 319 684 335 675 344 660 c 0
 350 651 351 644 351 618 c 2x9680
EndSplineSet
Validated: 1
EndChar

StartChar: percent
Encoding: 37 37 6
Width: 600
Flags: W
HStem: -15 65<317.383 419.461> 199 65<317.314 420.638> 338 65<177.8 279.879> 552 65<178.007 281.319>
VStem: 89 65<426.607 528.686> 229 65<73.6073 175.686> 303 65<425.45 529.208> 443 65<73.09 176.208>
LayerCount: 2
Fore
SplineSet
229 617 m 0
 308 617 368 555 368 476 c 0
 368 401 305 338 229 338 c 0
 152 338 89 401 89 478 c 0
 89 554 153 617 229 617 c 0
229 552 m 0
 189 552 154 518 154 478 c 0
 154 437 189 403 229 403 c 0
 270 403 303 437 303 477 c 0
 303 519 271 552 229 552 c 0
491 331 m 1
 129 213 l 2
 122 211 113 209 109 209 c 0
 94 209 80 224 80 241 c 0
 80 257 88 265 110 272 c 2
 472 390 l 2
 484 394 486 394 492 394 c 0
 507 394 521 379 521 362 c 0
 521 346 513 337 491 331 c 1
368 264 m 0
 447 264 508 202 508 123 c 0
 508 48 445 -15 368 -15 c 0
 292 -15 229 48 229 125 c 0
 229 201 292 264 368 264 c 0
368 199 m 0
 328 199 294 165 294 125 c 0
 294 84 328 50 369 50 c 0
 409 50 443 84 443 124 c 0
 443 166 410 199 368 199 c 0
EndSplineSet
Validated: 1
EndChar

StartChar: ampersand
Encoding: 38 38 7
Width: 600
Flags: W
HStem: -14 100<189.021 311.432> 0 100<434 483.621> 450 100<247.277 338.197>
VStem: 75 100<100.542 198.22> 137 100<352.639 439.836>
LayerCount: 2
Fore
SplineSet
365 198 m 1xa8
 388 280 l 1
 441 280 l 2
 468 280 477 278 487 270 c 0
 500 260 507 246 507 229 c 0
 507 203 488 182 464 180 c 1
 453 139 446 121 434 100 c 1
 442 100 l 2
 469 100 477 98 487 91 c 0
 500 81 508 66 508 50 c 0
 508 33 499 16 484 7 c 0
 476 2 463 0 442 0 c 2
 381 0 l 1x68
 370 15 l 1
 340 -6 310 -14 257 -14 c 0
 147 -14 75 48 75 144 c 0xb0
 75 211 109 267 171 303 c 1
 144 349 137 368 137 399 c 0
 137 480 208 550 289 550 c 0
 313 550 333 545 359 533 c 1
 371 537 380 540 387 540 c 0
 412 540 435 515 435 490 c 0
 435 467 426 455 394 437 c 2
 353 416 l 1
 324 442 310 450 290 450 c 0
 261 450 237 428 237 400 c 0
 237 389 246 370 265 343 c 2
 365 198 l 1xa8
312 100 m 1
 228 220 l 1
 193 204 175 177 175 144 c 0
 175 105 202 86 257 86 c 0xb0
 282 86 293 89 312 100 c 1
EndSplineSet
Validated: 1
EndChar

StartChar: quotesingle
Encoding: 39 39 8
Width: 600
Flags: W
HStem: 312 290<272.604 329.717>
VStem: 270 63<313.094 399.5>
LayerCount: 2
Fore
SplineSet
236 602 m 1
 364 602 l 1
 333 348 l 2
 329 322 321 312 301 312 c 0
 282 312 273 322 270 347 c 2
 236 602 l 1
EndSplineSet
Validated: 1
EndChar

StartChar: parenleft
Encoding: 40 40 9
Width: 600
Flags: W
VStem: 264 111<99.9444 381.01>
LayerCount: 2
Fore
SplineSet
437 632 m 0
 466 632 488 610 488 583 c 0
 488 571 486 565 476 549 c 0
 406 437 375 341 375 240 c 0
 375 138 407 42 476 -70 c 0
 486 -86 488 -92 488 -104 c 0
 488 -131 466 -153 437 -153 c 0
 413 -153 400 -142 371 -95 c 0
 300 18 264 133 264 243 c 0
 264 350 307 478 380 587 c 0
 403 623 415 632 437 632 c 0
EndSplineSet
Validated: 1
EndChar

StartChar: parenright
Encoding: 41 41 10
Width: 600
Flags: W
VStem: 230 111<97.9564 379.056>
LayerCount: 2
Fore
SplineSet
168 632 m 0
 192 632 205 621 234 574 c 0
 305 461 341 346 341 236 c 0
 341 129 298 1 225 -109 c 0
 202 -144 190 -153 168 -153 c 0
 139 -153 117 -131 117 -104 c 0
 117 -92 119 -86 129 -70 c 0
 199 42 230 138 230 239 c 0
 230 341 198 437 129 549 c 0
 119 565 117 571 117 583 c 0
 117 610 139 632 168 632 c 0
EndSplineSet
Validated: 1
EndChar

StartChar: asterisk
Encoding: 42 42 11
Width: 600
Flags: W
HStem: 604 20G<292 308.5>
VStem: 250 100<467 597.578>
LayerCount: 2
Fore
SplineSet
219 372 m 1
 133 400 l 2
 96 411 83 425 83 452 c 0
 83 479 105 502 130 502 c 0
 140 502 143 501 164 495 c 2
 250 467 l 1
 250 556 l 2
 250 581 252 592 259 601 c 0
 269 614 284 624 300 624 c 0
 317 624 334 613 343 598 c 0
 348 589 350 580 350 556 c 2
 350 467 l 1
 436 495 l 2
 457 501 460 502 469 502 c 0
 494 502 517 478 517 452 c 0
 517 426 503 411 467 400 c 2
 381 372 l 1
 433 301 l 2
 448 280 452 271 452 258 c 0
 452 231 429 208 402 208 c 0
 381 208 373 214 352 242 c 2
 300 314 l 1
 250 242 l 2
 230 214 218 208 198 208 c 0
 171 208 148 231 148 258 c 0
 148 271 152 279 167 301 c 2
 219 372 l 1
EndSplineSet
Validated: 1
EndChar

StartChar: plus
Encoding: 43 43 12
Width: 600
Flags: W
HStem: 0 21G<291.5 308> 230 100<66.4212 250 350 533.622>
VStem: 250 100<24.4227 230 330 535.58>
LayerCount: 2
Fore
SplineSet
350 230 m 1
 350 66 l 2
 350 39 348 31 341 21 c 0
 331 8 316 0 300 0 c 0
 283 0 266 9 257 24 c 0
 252 33 250 43 250 66 c 2
 250 230 l 1
 108 230 l 2
 84 230 72 232 63 239 c 0
 50 249 42 264 42 280 c 0
 42 297 51 314 66 323 c 0
 75 329 83 330 108 330 c 2
 250 330 l 1
 250 494 l 2
 250 520 252 530 260 539 c 1
 269 553 284 560 300 560 c 0
 317 560 334 551 343 536 c 0
 349 527 350 520 350 494 c 2
 350 330 l 1
 491 330 l 2
 519 330 527 328 537 321 c 0
 550 311 558 296 558 280 c 0
 558 263 549 246 534 237 c 0
 526 232 514 230 491 230 c 2
 350 230 l 1
EndSplineSet
Validated: 1
EndChar

StartChar: comma
Encoding: 44 44 13
Width: 600
Flags: W
HStem: -158 292
VStem: 147 204
LayerCount: 2
Fore
SplineSet
219 134 m 1
 351 134 l 1
 210 -134 l 2
 202 -150 190 -158 178 -158 c 0
 161 -158 147 -145 147 -130 c 0
 147 -124 147 -122 150 -111 c 2
 219 134 l 1
EndSplineSet
Validated: 1
EndChar

StartChar: hyphen
Encoding: 45 45 14
Width: 600
Flags: W
HStem: 229 100<66.4212 533.622>
LayerCount: 2
Fore
SplineSet
492 229 m 2
 108 229 l 2
 83 229 72 231 63 238 c 0
 50 248 42 263 42 279 c 0
 42 296 51 312 66 322 c 0
 75 328 83 329 108 329 c 2
 492 329 l 2
 518 329 528 327 538 320 c 0
 551 310 558 295 558 279 c 0
 558 262 549 245 534 236 c 0
 526 231 514 229 492 229 c 2
EndSplineSet
Validated: 1
EndChar

StartChar: period
Encoding: 46 46 15
Width: 600
Flags: W
HStem: -15 132<242.303 358.047>
VStem: 225 150<3.02535 98.9747>
LayerCount: 2
Fore
SplineSet
309 -15 m 2
 291 -15 l 2
 255 -15 225 15 225 51 c 0
 225 87 255 117 291 117 c 2
 309 117 l 2
 346 117 375 88 375 51 c 0
 375 14 346 -15 309 -15 c 2
EndSplineSet
Validated: 1
EndChar

StartChar: slash
Encoding: 47 47 16
Width: 600
Flags: W
LayerCount: 2
Fore
SplineSet
505 610 m 2
 185 -69 l 2
 170 -103 157 -113 133 -113 c 0
 107 -113 83 -90 83 -65 c 0
 83 -55 86 -45 95 -27 c 2
 416 651 l 2
 431 685 444 695 467 695 c 0
 494 695 517 672 517 647 c 0
 517 636 515 630 505 610 c 2
EndSplineSet
Validated: 1
EndChar

StartChar: zero
Encoding: 48 48 17
Width: 600
Flags: W
HStem: -15 100<238.274 361.726> 538 100<238.274 361.726>
VStem: 83 100<151.896 471.104> 417 100<151.896 471.104>
LayerCount: 2
Fore
SplineSet
517 359 m 2
 517 264 l 2
 517 173 489 92 439 40 c 0
 405 4 357 -15 300 -15 c 0
 243 -15 195 4 161 40 c 0
 111 92 83 173 83 264 c 2
 83 359 l 2
 83 450 111 531 161 583 c 0
 195 619 243 638 300 638 c 0
 357 638 405 619 439 583 c 0
 489 531 517 450 517 359 c 2
183 366 m 2
 183 257 l 2
 183 153 229 85 300 85 c 0
 371 85 417 153 417 257 c 2
 417 366 l 2
 417 470 371 538 300 538 c 0
 229 538 183 470 183 366 c 2
EndSplineSet
Validated: 1
EndChar

StartChar: one
Encoding: 49 49 18
Width: 600
Flags: W
HStem: 0 100<107.42 250 350 492.666> 618 20G<272.909 350>
VStem: 250 100<100 509>
LayerCount: 2
Fore
SplineSet
350 638 m 1
 350 100 l 1
 451 100 l 2
 478 100 486 98 496 91 c 0
 509 81 517 66 517 50 c 0
 517 33 508 17 493 7 c 0
 486 3 471 0 451 0 c 2
 149 0 l 2
 126 0 112 3 104 10 c 1
 91 19 83 35 83 50 c 0
 83 67 92 84 107 93 c 0
 116 99 123 100 149 100 c 2
 250 100 l 1
 250 509 l 1
 163 486 l 2
 144 481 141 480 131 480 c 0
 105 480 85 503 85 532 c 0
 85 561 98 573 138 583 c 2
 350 638 l 1
EndSplineSet
Validated: 1
EndChar

StartChar: two
Encoding: 50 50 19
Width: 600
Flags: W
HStem: 0 154<416.965 499.682> 0 100<207 411.856> 538 100<212.447 361.934>
VStem: 74 95<430.998 496.797> 403 100<100 129.578 396.156 499.568>
LayerCount: 2
Fore
SplineSet
207 100 m 1x78
 408 100 l 1x78
 411 136 427 154 458 154 c 0xb8
 475 154 492 145 501 130 c 0
 506 121 508 112 508 88 c 2
 508 0 l 1
 54 0 l 1
 54 105 l 1
 222 244 241 260 286 301 c 0
 386 392 403 414 403 448 c 0
 403 499 353 538 288 538 c 0
 248 538 213 523 191 497 c 0
 181 485 180 483 169 451 c 0
 164 434 145 422 124 422 c 0
 97 422 74 444 74 470 c 0
 74 502 100 552 134 583 c 0
 174 619 231 638 290 638 c 0
 412 638 503 555 503 444 c 0
 503 379 479 341 380 251 c 0
 353 226 295 176 207 100 c 1x78
EndSplineSet
Validated: 1
EndChar

StartChar: three
Encoding: 51 51 20
Width: 600
Flags: W
HStem: -15 100<151.267 384.615> 287 96<232.543 371.65> 538 100<208.47 377.861>
VStem: 407 100<412.638 510.797> 429 100<125.794 236.022>
LayerCount: 2
Fore
SplineSet
276 383 m 2xe8
 316 383 l 2
 365 383 407 420 407 462 c 0
 407 509 364 538 295 538 c 0
 240 538 212 527 180 492 c 0
 171 483 158 477 144 477 c 0
 117 477 95 500 95 527 c 0
 95 585 194 638 301 638 c 0
 367 638 419 619 457 580 c 1
 489 549 507 505 507 464 c 0xf0
 507 409 481 372 416 333 c 1
 492 296 529 246 529 182 c 0
 529 124 501 68 455 32 c 1
 411 -1 358 -15 271 -15 c 0
 148 -15 66 19 66 70 c 0
 66 98 88 120 116 120 c 0
 128 120 132 118 148 108 c 0
 174 91 204 85 268 85 c 0
 337 85 374 95 401 119 c 0
 418 135 429 160 429 183 c 0
 429 220 400 255 353 274 c 0
 332 283 319 285 276 287 c 0
 243 289 224 306 224 333 c 0
 224 362 246 383 276 383 c 2xe8
EndSplineSet
Validated: 1
EndChar

StartChar: four
Encoding: 52 52 21
Width: 600
Flags: W
HStem: 0 100<267.422 347 447 483.666> 138 100<197 347 447 499.708> 604 20G<304.04 447>
VStem: 243 265<10.427 90.6895> 347 100<100 138 238 480>
LayerCount: 2
Fore
SplineSet
447 624 m 1xe8
 447 238 l 1xe8
 486 238 508 220 508 188 c 0xf0
 508 156 487 139 447 138 c 1
 447 100 l 1xe8
 486 100 508 82 508 50 c 0
 508 33 499 17 484 7 c 0
 477 3 462 0 441 0 c 2
 309 0 l 2
 286 0 272 3 264 10 c 1
 251 19 243 35 243 50 c 0xf0
 243 67 252 84 267 93 c 0
 276 99 285 100 309 100 c 2
 347 100 l 1
 347 138 l 1
 75 138 l 1
 75 221 l 1
 316 624 l 1
 447 624 l 1xe8
347 238 m 1
 347 480 l 1
 197 238 l 1
 347 238 l 1
EndSplineSet
Validated: 1
EndChar

StartChar: five
Encoding: 53 53 22
Width: 600
Flags: W
HStem: -15 100<169.413 382.28> 282 342<129.237 217.184> 324 100<223.638 383.239> 522 102<219 462.667>
VStem: 119 100<407 522> 429 100<129.743 276.245>
LayerCount: 2
Fore
SplineSet
219 522 m 1x9c
 219 407 l 1
 255 418 289 424 318 424 c 0
 439 424 529 330 529 202 c 0
 529 144 510 92 474 53 c 0
 430 5 372 -15 278 -15 c 0
 158 -15 66 28 66 84 c 0
 66 111 89 133 116 133 c 0
 130 133 137 130 152 118 c 0
 182 93 212 85 277 85 c 0
 381 85 429 122 429 201 c 0
 429 275 384 324 317 324 c 0xbc
 284 324 240 312 197 290 c 0
 184 284 178 282 169 282 c 0xcc
 140 282 119 306 119 338 c 2
 119 624 l 1
 421 624 l 2
 448 624 456 620 467 613 c 1
 479 603 487 588 487 572 c 0
 487 555 478 538 463 529 c 0
 456 524 442 522 421 522 c 2
 219 522 l 1x9c
EndSplineSet
Validated: 1
EndChar

StartChar: six
Encoding: 54 54 23
Width: 600
Flags: W
HStem: -15 100<266.415 401.409> 294 100<275.691 396.629> 535 103<339.783 500.93>
VStem: 435 100<120.481 254.556>
LayerCount: 2
Fore
SplineSet
208 324 m 1
 256 375 294 394 345 394 c 0
 450 394 535 302 535 189 c 0
 535 132 517 81 483 44 c 0
 447 4 398 -15 331 -15 c 0
 248 -15 187 19 149 87 c 0
 123 135 105 213 105 285 c 0
 105 374 131 450 182 514 c 1
 249 596 331 638 423 638 c 0
 493 638 540 612 540 573 c 0
 540 545 517 522 489 522 c 0
 480 522 470 524 454 530 c 0
 443 534 438 535 429 535 c 0
 323 535 231 447 208 324 c 1
218 209 m 1
 233 122 269 85 334 85 c 0
 397 85 435 125 435 190 c 0
 435 248 392 294 338 294 c 0
 295 294 245 258 218 209 c 1
EndSplineSet
Validated: 1
EndChar

StartChar: seven
Encoding: 55 55 24
Width: 600
Flags: W
HStem: -1 21G<283.5 310> 468 156<83.3175 166.035> 522 102<171.144 403>
LayerCount: 2
Fore
SplineSet
403 522 m 1xa0
 175 522 l 1xa0
 172 486 156 468 125 468 c 0xc0
 108 468 91 477 82 492 c 0
 77 501 75 510 75 534 c 2
 75 624 l 1
 508 624 l 1
 508 522 l 1
 349 48 l 2
 336 12 323 -1 297 -1 c 0
 270 -1 246 21 246 47 c 0
 246 56 248 64 253 81 c 2
 403 522 l 1xa0
EndSplineSet
Validated: 1
EndChar

StartChar: eight
Encoding: 56 56 25
Width: 600
Flags: W
HStem: -15 100<221.651 378.906> 263 101<226.052 372.819> 538 100<226.844 372.956>
VStem: 83 100<121.499 225.27> 92 100<396.545 505.695> 408 100<396.675 504.007> 417 100<121.386 225.157>
LayerCount: 2
Fore
SplineSet
420 319 m 1xec
 484 279 517 227 517 165 c 0
 517 58 429 -15 299 -15 c 0
 171 -15 83 58 83 165 c 0xf2
 83 227 116 279 180 319 c 1
 120 359 92 402 92 455 c 0
 92 557 184 638 300 638 c 0
 415 638 508 557 508 457 c 0
 508 402 480 359 420 319 c 1xec
300 538 m 0
 236 538 192 502 192 451 c 0
 192 400 237 364 300 364 c 0
 363 364 408 400 408 450 c 0xec
 408 502 364 538 300 538 c 0
300 263 m 0
 236 263 183 223 183 173 c 0
 183 122 232 85 300 85 c 0
 368 85 417 122 417 172 c 0xf2
 417 223 366 263 300 263 c 0
EndSplineSet
Validated: 1
EndChar

StartChar: nine
Encoding: 57 57 26
Width: 600
Flags: W
HStem: -15 103<145.07 306.217> 229 100<249.655 370.372> 538 100<244.591 379.585>
VStem: 111 100<368.444 502.519>
LayerCount: 2
Fore
SplineSet
438 299 m 1
 390 248 352 229 302 229 c 0
 196 229 111 321 111 434 c 0
 111 491 129 542 163 579 c 0
 199 619 248 638 315 638 c 0
 398 638 459 606 497 538 c 0
 523 491 541 409 541 338 c 0
 541 250 515 173 464 109 c 1
 397 27 315 -15 223 -15 c 0
 153 -15 106 11 106 50 c 0
 106 78 129 101 157 101 c 0
 166 101 176 99 192 93 c 0
 203 89 208 88 217 88 c 0
 323 88 415 176 438 299 c 1
428 414 m 1
 413 501 377 538 312 538 c 0
 249 538 211 498 211 433 c 0
 211 375 254 329 308 329 c 0
 351 329 401 365 428 414 c 1
EndSplineSet
Validated: 1
EndChar

StartChar: colon
Encoding: 58 58 27
Width: 600
Flags: W
HStem: -15 132<242.303 358.047> 304 133<242.303 358.047>
VStem: 225 150<3.02535 98.9747 322.025 418.861>
LayerCount: 2
Fore
SplineSet
309 -15 m 2
 291 -15 l 2
 255 -15 225 15 225 51 c 0
 225 87 255 117 291 117 c 2
 309 117 l 2
 346 117 375 88 375 51 c 0
 375 14 346 -15 309 -15 c 2
309 304 m 2
 291 304 l 2
 255 304 225 334 225 370 c 0
 225 407 255 437 291 437 c 2
 309 437 l 2
 346 437 375 408 375 370 c 0
 375 333 346 304 309 304 c 2
EndSplineSet
Validated: 1
EndChar

StartChar: semicolon
Encoding: 59 59 28
Width: 600
Flags: W
HStem: 304 133<218.083 333.917>
VStem: 201 150<322 418.875>
LayerCount: 2
Fore
SplineSet
219 134 m 1
 351 134 l 1
 210 -134 l 2
 202 -150 190 -158 178 -158 c 0
 161 -158 147 -145 147 -130 c 0
 147 -124 147 -122 150 -111 c 2
 219 134 l 1
276 437 m 0
 322 437 351 411 351 370 c 0
 351 330 321 304 276 304 c 0
 231 304 201 331 201 371 c 0
 201 410 231 437 276 437 c 0
EndSplineSet
Validated: 1
EndChar

StartChar: less
Encoding: 60 60 29
Width: 600
Flags: W
LayerCount: 2
Fore
SplineSet
251 279 m 1
 512 143 l 2
 535 131 544 119 544 100 c 0
 544 95 542 88 539 81 c 2
 538 79 l 2
 532 65 516 54 502 54 c 0
 494 54 483 57 472 63 c 2
 42 280 l 1
 472 492 l 2
 484 498 494 501 502 501 c 0
 516 501 532 490 538 476 c 2
 539 474 l 2
 542 468 544 461 544 455 c 0
 544 436 535 424 512 412 c 2
 251 279 l 1
EndSplineSet
Validated: 1
EndChar

StartChar: equal
Encoding: 61 61 30
Width: 600
Flags: W
HStem: 138 100<66.4212 533.622> 322 100<66.4212 533.622>
LayerCount: 2
Fore
SplineSet
108 422 m 2
 492 422 l 2
 519 422 527 420 537 413 c 0
 550 403 558 388 558 372 c 0
 558 355 549 338 534 329 c 0
 526 324 514 322 492 322 c 2
 108 322 l 2
 84 322 72 324 63 332 c 1
 50 341 42 356 42 372 c 0
 42 389 51 406 66 415 c 0
 75 421 83 422 108 422 c 2
108 238 m 2
 492 238 l 2
 519 238 527 236 537 229 c 0
 550 219 558 204 558 188 c 0
 558 171 549 154 534 145 c 0
 526 140 514 138 492 138 c 2
 108 138 l 2
 84 138 72 140 63 148 c 1
 50 157 42 172 42 188 c 0
 42 205 51 222 66 231 c 0
 75 237 83 238 108 238 c 2
EndSplineSet
Validated: 1
EndChar

StartChar: greater
Encoding: 62 62 31
Width: 600
Flags: W
LayerCount: 2
Fore
SplineSet
349 275 m 1
 88 412 l 2
 65 423 56 435 56 453 c 0
 56 459 58 466 61 473 c 2
 62 475 l 1
 67 488 84 500 98 500 c 0
 106 500 117 497 128 491 c 2
 558 274 l 1
 128 62 l 2
 116 56 105 53 98 53 c 0
 84 53 68 64 62 78 c 2
 61 80 l 2
 58 87 56 93 56 100 c 0
 56 118 65 130 88 142 c 2
 349 275 l 1
EndSplineSet
Validated: 1
EndChar

StartChar: question
Encoding: 63 63 32
Width: 600
Flags: W
HStem: -15 132<244.406 360.047> 498 100<208.908 384.245>
VStem: 104 100<418.377 483.352> 227 150<3.02535 98.9747> 417 100<368.687 465.411>
LayerCount: 2
Fore
SplineSet
104 460 m 2
 104 539 l 1
 200 585 244 598 308 598 c 0
 432 598 517 521 517 409 c 0
 517 328 474 281 353 228 c 1
 349 192 332 174 303 174 c 0
 286 174 269 183 260 198 c 0
 255 207 253 217 253 240 c 2
 253 296 l 1
 381 345 417 371 417 414 c 0
 417 464 373 498 309 498 c 0
 271 498 237 490 204 474 c 1
 204 460 l 2
 204 434 202 424 195 415 c 0
 185 402 169 394 154 394 c 0
 137 394 120 404 111 418 c 0
 106 426 104 437 104 460 c 2
311 -15 m 2
 294 -15 l 2
 257 -15 227 15 227 51 c 0
 227 87 257 117 294 117 c 2
 311 117 l 2
 348 117 377 88 377 51 c 0
 377 14 348 -15 311 -15 c 2
EndSplineSet
Validated: 1
EndChar

StartChar: at
Encoding: 64 64 33
Width: 600
Flags: W
HStem: -152 78<232.353 393.43> 72 81<320.218 407> 316 81<338.964 407> 541 79<237.209 366.745>
VStem: 76 79<31.6781 434.33> 218 79<176.75 277.214> 407 79<153.017 316 394.783 496.881>
LayerCount: 2
Fore
SplineSet
407 397 m 1
 407 429 l 2
 407 495 364 541 302 541 c 0
 218 541 155 444 155 316 c 2
 155 161 l 2
 155 85 172 23 206 -24 c 1
 230 -59 261 -74 305 -74 c 0
 349 -74 388 -62 407 -42 c 0
 421 -28 427 -25 439 -25 c 0
 461 -25 479 -43 479 -66 c 0
 479 -113 397 -152 302 -152 c 0
 220 -152 165 -119 123 -45 c 0
 93 9 76 81 76 154 c 2
 76 323 l 2
 76 495 171 620 301 620 c 0
 409 620 486 540 486 429 c 2
 486 148 l 1
 502 141 509 130 509 113 c 0
 509 85 491 72 454 72 c 2
 407 72 l 1
 407 75 l 1
 392 73 383 72 374 72 c 0
 289 72 218 143 218 226 c 0
 218 319 295 389 407 397 c 1
407 155 m 1
 407 316 l 1
 341 310 297 274 297 225 c 0
 297 184 333 153 381 153 c 0
 388 153 393 153 407 155 c 1
EndSplineSet
Validated: 1
EndChar

StartChar: A
Encoding: 65 65 34
Width: 600
Flags: W
HStem: 0 100<3.42194 46 155 219.621 374.421 439 553 596.621> 158 100<218 375> 483 100<95.4205 201>
VStem: -21 265<9.67798 90.5276> 350 271<10.4263 89.5737>
LayerCount: 2
Fore
SplineSet
416 158 m 1
 178 158 l 1
 155 100 l 1
 178 100 l 2
 205 100 213 98 223 91 c 0
 236 81 244 66 244 50 c 0
 244 33 235 16 220 7 c 0
 212 2 199 0 178 0 c 2
 45 0 l 2
 1 0 -21 17 -21 50 c 0
 -21 67 -12 84 3 93 c 0
 12 99 21 100 46 100 c 1
 201 483 l 1
 138 483 l 2
 112 483 102 485 92 492 c 0
 79 502 71 517 71 533 c 0
 71 550 80 566 95 576 c 0
 104 582 111 583 138 583 c 2
 354 583 l 1
 553 100 l 1
 581 100 590 98 600 90 c 0
 613 81 621 66 621 50 c 0
 621 33 612 16 597 7 c 0
 589 2 576 0 555 0 c 2
 416 0 l 2
 392 0 380 3 371 10 c 0
 358 19 350 34 350 50 c 0
 350 67 359 84 374 93 c 0
 383 99 390 100 416 100 c 2
 439 100 l 1
 416 158 l 1
375 258 m 1
 297 450 l 1
 218 258 l 1
 375 258 l 1
EndSplineSet
Validated: 1
EndChar

StartChar: B
Encoding: 66 66 35
Width: 600
Flags: W
HStem: 0 100<37.4219 94 194 454.562> 242 100<194 394.5> 483 100<37.4219 94 194 405.827>
VStem: 94 100<100 242 342 483> 428 100<372.854 461.086> 471 100<116.808 202.011>
LayerCount: 2
Fore
SplineSet
94 100 m 1xf4
 94 483 l 1
 79 483 l 2
 54 483 43 485 34 492 c 0
 21 502 13 518 13 533 c 0
 13 550 23 567 37 576 c 0
 46 582 55 583 79 583 c 2
 332 583 l 2
 445 583 528 513 528 418 c 0xf8
 528 372 509 339 465 305 c 1
 537 269 571 223 571 160 c 0
 571 64 492 0 374 0 c 2
 79 0 l 2
 56 0 42 3 34 10 c 1
 21 19 13 35 13 50 c 0
 13 67 22 84 37 93 c 0
 46 99 55 100 79 100 c 2
 94 100 l 1xf4
194 342 m 1
 307 342 l 2
 379 342 428 373 428 419 c 0
 428 459 390 483 327 483 c 2
 194 483 l 1
 194 342 l 1
194 100 m 1
 369 100 l 2
 437 100 471 118 471 154 c 0xf4
 471 178 454 204 428 220 c 0
 403 235 371 242 329 242 c 2
 194 242 l 1
 194 100 l 1
EndSplineSet
Validated: 1
EndChar

StartChar: C
Encoding: 67 67 36
Width: 600
Flags: W
HStem: -14 100<222.866 437.939> 367 216<464.379 539.528> 497 100<222.847 401.156>
VStem: 33 100<168.419 400.438> 450 99<388.423 458.452>
LayerCount: 2
Fore
SplineSet
447 563 m 1xb8
 457 559 l 1
 470 577 482 583 499 583 c 0
 517 583 533 574 542 559 c 0
 548 550 549 542 549 517 c 2
 549 433 l 2
 549 408 547 397 540 388 c 0
 530 375 515 367 499 367 c 0xd8
 486 367 472 373 464 381 c 0
 456 389 454 396 450 420 c 0
 445 444 435 457 406 473 c 0
 379 488 343 497 309 497 c 0
 207 497 133 420 133 315 c 2
 133 251 l 2
 133 151 210 86 330 86 c 0
 375 86 415 94 440 109 c 0
 451 115 451 115 478 143 c 0
 489 154 501 159 514 159 c 0
 541 159 564 136 564 109 c 0
 564 86 545 60 511 36 c 0
 467 4 399 -14 327 -14 c 0
 157 -14 33 97 33 249 c 2
 33 315 l 2
 33 475 151 597 305 597 c 0
 357 597 392 589 447 563 c 1xb8
EndSplineSet
Validated: 1
EndChar

StartChar: D
Encoding: 68 68 37
Width: 600
Flags: W
HStem: 0 100<34.4248 74 174 380.894> 483 100<37.4205 74 174 370.025>
VStem: 74 100<100 483> 450 100<171.708 395.503>
LayerCount: 2
Fore
SplineSet
74 100 m 1
 74 483 l 1
 35 483 13 501 13 533 c 0
 13 550 22 567 37 576 c 0
 46 582 53 583 80 583 c 2
 292 583 l 2
 438 583 550 462 550 305 c 2
 550 258 l 2
 550 185 526 123 480 75 c 0
 431 23 371 0 284 0 c 2
 80 0 l 2
 56 0 43 3 34 10 c 0
 21 19 13 35 13 50 c 0
 13 82 36 100 74 100 c 1
174 100 m 1
 285 100 l 2
 345 100 378 112 409 144 c 1
 437 175 450 210 450 261 c 2
 450 307 l 2
 450 354 434 398 405 432 c 0
 375 467 337 483 284 483 c 2
 174 483 l 1
 174 100 l 1
EndSplineSet
Validated: 1
EndChar

StartChar: E
Encoding: 69 69 38
Width: 600
Flags: W
HStem: 0 219<459.472 541.555> 0 100<37.4219 94 194 450> 170 246<288.472 368.528> 243 99<194 279> 366 217<436.445 518.528> 483 100<37.4205 94 194 428>
VStem: 94 100<100 243 342 483> 279 99<194.422 243 342 394.532> 428 100<390.423 483> 450 100<100 194.578>
LayerCount: 2
Fore
SplineSet
194 243 m 1x1380
 194 100 l 1
 450 100 l 1x5340
 450 152 l 2
 450 180 452 188 459 198 c 0
 469 212 484 219 500 219 c 0x8340
 517 219 533 210 543 195 c 0
 548 186 550 177 550 152 c 2
 550 0 l 1x4340
 79 0 l 2
 56 0 42 3 34 10 c 1
 21 19 13 34 13 50 c 0
 13 67 22 83 37 93 c 0
 46 99 55 100 79 100 c 2
 94 100 l 1
 94 483 l 1
 79 483 l 2
 54 483 43 485 34 492 c 0
 21 502 13 517 13 533 c 0
 13 550 22 567 37 576 c 0
 46 582 53 583 79 583 c 2
 528 583 l 1x4780
 528 433 l 2
 528 405 526 397 519 387 c 0
 509 374 494 366 478 366 c 0x0b80
 461 366 445 375 435 390 c 0
 430 399 428 409 428 433 c 2
 428 483 l 1
 194 483 l 1
 194 342 l 1
 279 342 l 1x1780
 279 349 l 2
 279 376 281 385 288 395 c 0
 298 408 313 416 328 416 c 0
 355 416 373 398 377 370 c 0
 378 361 378 358 378 349 c 2
 378 236 l 2
 378 210 376 200 369 191 c 0
 359 178 344 170 329 170 c 0x2380
 312 170 295 179 286 194 c 0
 281 203 279 212 279 236 c 2
 279 243 l 1
 194 243 l 1x1380
EndSplineSet
Validated: 1
EndChar

StartChar: F
Encoding: 70 70 39
Width: 600
Flags: W
HStem: 0 100<37.4219 94 194 335.666> 169 246<288.472 368.528> 243 99<194 279> 366 217<458.445 540.528> 483 100<37.4205 94 194 450>
VStem: 94 100<100 243 342 483> 279 99<193.423 243 342 390.533> 450 100<390.377 483>
LayerCount: 2
Fore
SplineSet
194 243 m 1xa7
 194 100 l 1
 294 100 l 2
 321 100 330 98 340 91 c 1
 352 81 360 66 360 50 c 0
 360 33 351 16 336 7 c 0
 329 3 314 0 294 0 c 2
 79 0 l 2
 56 0 42 3 34 10 c 1
 21 19 13 35 13 50 c 0
 13 67 22 84 37 93 c 0
 46 99 55 100 79 100 c 2
 94 100 l 1
 94 483 l 1
 79 483 l 2
 54 483 43 485 34 492 c 0
 21 502 13 517 13 533 c 0
 13 550 22 567 37 576 c 0
 46 582 53 583 79 583 c 2
 550 583 l 1xaf
 550 432 l 2
 550 405 548 397 541 387 c 0
 531 374 516 366 500 366 c 0x97
 483 366 467 375 457 390 c 0
 452 398 450 409 450 432 c 2
 450 483 l 1
 194 483 l 1
 194 342 l 1
 279 342 l 1xaf
 279 349 l 2
 279 374 281 385 288 394 c 0
 298 407 313 415 329 415 c 0
 346 415 362 406 371 391 c 0
 377 381 378 374 378 349 c 2
 378 236 l 2
 378 209 376 200 369 190 c 0
 359 177 344 169 329 169 c 0xc7
 312 169 295 179 286 193 c 0
 281 202 279 213 279 236 c 2
 279 243 l 1
 194 243 l 1xa7
EndSplineSet
Validated: 1
EndChar

StartChar: G
Encoding: 71 71 40
Width: 600
Flags: W
HStem: -14 100<214.035 442.803> 180 100<308.421 450> 387 210<467.831 540.528> 497 100<221.426 418.987>
VStem: 33 100<157.199 404.014> 450 100<102.38 180 408.467 469.936>
LayerCount: 2
Fore
SplineSet
550 180 m 1xdc
 550 48 l 1
 461 1 409 -14 331 -14 c 0
 233 -14 148 15 99 65 c 0
 58 108 33 176 33 246 c 2
 33 317 l 2
 33 393 64 467 117 520 c 0
 170 572 235 597 317 597 c 0xdc
 371 597 420 586 462 565 c 1
 474 589 484 597 503 597 c 0
 520 597 536 588 543 573 c 1
 549 563 550 555 550 531 c 2
 550 453 l 2
 550 425 549 418 541 408 c 0
 531 395 516 387 500 387 c 0xec
 487 387 473 393 465 402 c 0
 459 409 458 409 450 440 c 0
 440 475 391 497 318 497 c 0
 262 497 217 481 186 450 c 0
 153 417 133 367 133 317 c 2
 133 253 l 2
 133 195 147 156 178 130 c 0
 212 101 262 86 325 86 c 0
 373 86 412 94 450 111 c 1
 450 180 l 1
 350 180 l 2
 325 180 314 182 305 190 c 1
 292 199 284 214 284 230 c 0
 284 247 293 264 308 273 c 0
 317 279 325 280 350 280 c 2
 525 280 l 2
 552 280 561 278 571 271 c 0
 585 261 592 246 592 230 c 0
 592 205 578 188 550 180 c 1xdc
EndSplineSet
Validated: 1
EndChar

StartChar: H
Encoding: 72 72 41
Width: 600
Flags: W
HStem: 0 100<47.4212 95 195 251.621 352.422 409 509 556.621> 241 100<195 409> 483 100<67.4212 95 195 251.578 352.421 409 509 540.532>
VStem: 23 253<9.47312 90.5276> 43 233<492.492 573.528> 95 100<100 241 341 483> 328 253<9.47312 90.5276> 328 233<492.492 573.528> 409 100<100 241 341 483>
LayerCount: 2
Fore
SplineSet
409 241 m 1xe080
 195 241 l 1
 195 100 l 1xe480
 210 100 l 2
 236 100 246 98 255 91 c 0
 268 81 276 66 276 50 c 0xf0
 276 33 267 16 252 7 c 0
 244 2 231 0 210 0 c 2
 89 0 l 2
 65 0 52 3 43 9 c 1xe8
 31 19 23 35 23 50 c 0xf0
 23 67 32 84 47 93 c 0
 56 99 64 100 89 100 c 2
 95 100 l 1
 95 483 l 1xe4
 62 486 43 504 43 533 c 0
 43 550 52 567 67 576 c 0
 76 582 84 583 109 583 c 2
 210 583 l 2
 237 583 246 581 255 574 c 0
 268 564 276 549 276 533 c 0xe8
 276 516 267 499 252 490 c 0
 243 485 234 483 210 483 c 2
 195 483 l 1
 195 341 l 1
 409 341 l 1
 409 483 l 1xe480
 394 483 l 2
 368 483 359 485 349 492 c 0
 336 502 328 517 328 533 c 0
 328 550 337 567 352 576 c 0
 361 582 369 583 394 583 c 2
 495 583 l 2
 522 583 531 581 541 574 c 1
 553 564 561 549 561 533 c 0xe1
 561 504 542 486 509 483 c 1
 509 100 l 1xe080
 515 100 l 2
 542 100 551 98 560 91 c 0
 573 81 581 66 581 50 c 0
 581 33 572 16 557 7 c 0
 549 2 536 0 515 0 c 2
 394 0 l 2
 370 0 358 3 349 9 c 0
 336 19 328 35 328 50 c 0xe2
 328 67 337 84 352 93 c 0
 361 99 370 100 394 100 c 2
 409 100 l 1
 409 241 l 1xe080
EndSplineSet
Validated: 1
EndChar

StartChar: I
Encoding: 73 73 42
Width: 600
Flags: W
HStem: 0 100<107.42 250 350 495.533> 483 100<107.42 250 350 492.623>
VStem: 250 100<100 483>
LayerCount: 2
Fore
SplineSet
350 483 m 1
 350 100 l 1
 451 100 l 2
 478 100 486 98 496 91 c 0
 510 81 517 66 517 50 c 0
 517 17 495 0 451 0 c 2
 149 0 l 2
 125 0 113 3 104 10 c 0
 91 19 83 35 83 50 c 0
 83 67 92 84 107 93 c 0
 116 99 123 100 149 100 c 2
 250 100 l 1
 250 483 l 1
 149 483 l 2
 124 483 113 485 104 492 c 0
 91 502 83 517 83 533 c 0
 83 550 92 567 107 576 c 0
 116 582 123 583 149 583 c 2
 451 583 l 2
 478 583 486 581 496 574 c 0
 510 564 517 549 517 533 c 0
 517 516 508 499 493 490 c 0
 485 485 474 483 451 483 c 2
 350 483 l 1
EndSplineSet
Validated: 1
EndChar

StartChar: J
Encoding: 74 74 43
Width: 600
Flags: W
HStem: -14 100<176.735 347.092> 483 100<229.42 390 490 588.623>
VStem: 54 100<107.624 255.578> 390 100<125.254 483>
LayerCount: 2
Fore
SplineSet
490 483 m 1
 490 187 l 2
 490 121 473 83 426 42 c 0
 384 6 328 -14 269 -14 c 0
 212 -14 145 6 54 51 c 1
 54 213 l 2
 54 239 56 250 63 259 c 0
 73 272 88 280 104 280 c 0
 121 280 138 271 147 256 c 0
 153 247 154 238 154 213 c 2
 154 117 l 1
 203 95 237 86 271 86 c 0
 307 86 343 100 366 122 c 0
 387 143 390 152 390 198 c 2
 390 483 l 1
 271 483 l 2
 246 483 235 485 226 492 c 0
 213 502 205 517 205 533 c 0
 205 550 214 567 229 576 c 0
 238 582 245 583 271 583 c 2
 547 583 l 2
 574 583 583 581 592 574 c 0
 605 564 613 549 613 533 c 0
 613 516 604 499 589 490 c 0
 581 485 570 483 547 483 c 2
 490 483 l 1
EndSplineSet
Validated: 1
EndChar

StartChar: K
Encoding: 75 75 44
Width: 600
Flags: W
HStem: 0 100<37.4219 94 194 270.666 495.192 577.666> 483 100<37.4205 94 194 270.623 511 552.532>
VStem: 94 100<100 208 334 483> 341 232<492.002 573.528>
LayerCount: 2
Fore
SplineSet
194 208 m 1
 194 100 l 1
 229 100 l 2
 256 100 264 98 274 91 c 0
 287 81 295 66 295 50 c 0
 295 33 286 16 271 7 c 0
 264 3 249 0 229 0 c 2
 79 0 l 2
 56 0 42 3 34 10 c 1
 21 19 13 35 13 50 c 0
 13 67 22 84 37 93 c 0
 46 99 55 100 79 100 c 2
 94 100 l 1
 94 483 l 1
 79 483 l 2
 54 483 43 485 34 492 c 0
 21 502 13 517 13 533 c 0
 13 550 22 567 37 576 c 0
 46 582 53 583 79 583 c 2
 229 583 l 2
 256 583 265 581 274 574 c 0
 287 564 295 549 295 533 c 0
 295 516 286 499 271 490 c 0
 263 485 252 483 229 483 c 2
 194 483 l 1
 194 334 l 1
 372 487 l 1
 351 495 341 509 341 532 c 0
 341 560 357 580 386 583 c 0
 398 585 399 583 407 583 c 2
 507 583 l 2
 534 583 543 581 553 574 c 1
 565 564 573 549 573 533 c 0
 573 500 552 483 511 483 c 1
 335 330 l 1
 396 298 458 215 504 100 c 1
 536 100 l 2
 563 100 571 98 581 91 c 0
 594 81 602 66 602 50 c 0
 602 33 593 16 578 7 c 0
 571 3 556 0 536 0 c 2
 426 0 l 1
 379 143 315 240 254 259 c 1
 194 208 l 1
EndSplineSet
Validated: 1
EndChar

StartChar: L
Encoding: 76 76 45
Width: 600
Flags: W
HStem: 0 259<480.472 562.555> 0 100<57.4205 156 256 471> 483 100<57.4205 156 256 354.623>
VStem: 156 100<100 483> 471 100<100 234.578>
LayerCount: 2
Fore
SplineSet
256 483 m 1x78
 256 100 l 1
 471 100 l 1x78
 471 192 l 2
 471 219 473 228 480 238 c 0
 490 252 505 259 521 259 c 0xb8
 538 259 554 250 564 235 c 0
 570 226 571 217 571 192 c 2
 571 0 l 1
 99 0 l 2
 76 0 62 3 54 10 c 1
 41 19 33 34 33 50 c 0
 33 67 42 84 57 93 c 0
 66 99 73 100 99 100 c 2
 156 100 l 1
 156 483 l 1
 99 483 l 2
 74 483 63 485 54 492 c 0
 41 502 33 517 33 533 c 0
 33 550 42 567 57 576 c 0
 66 582 73 583 99 583 c 2
 313 583 l 2
 340 583 348 581 358 574 c 0
 371 564 379 549 379 533 c 0
 379 516 370 499 355 490 c 0
 347 485 336 483 313 483 c 2
 256 483 l 1x78
EndSplineSet
Validated: 1
EndChar

StartChar: M
Encoding: 77 77 46
Width: 600
Flags: W
HStem: 0 100<0.426285 42 142 218.666 385.421 462 562 598.666> 483 100<-1.55548 42 562 593.532>
VStem: -19 262<10.4263 90.5276> 42 100<100 389> 361 262<10.427 90.6895> 462 100<100 389>
LayerCount: 2
Fore
SplineSet
142 389 m 1xd4
 142 100 l 1xd4
 177 100 l 2
 204 100 212 98 223 91 c 1
 236 81 243 66 243 50 c 0
 243 33 234 17 219 7 c 0
 212 3 197 0 177 0 c 2
 48 0 l 2
 24 0 9 3 0 10 c 0
 -13 19 -19 34 -19 50 c 0xe0
 -19 82 3 100 42 100 c 1
 42 483 l 1
 9 486 -10 504 -10 534 c 0
 -10 550 -1 567 14 577 c 0
 19 580 40 583 52 583 c 0
 54 583 55 584 56 583 c 1
 165 583 l 1
 303 286 l 1
 438 583 l 1
 548 583 l 2
 575 583 584 581 594 574 c 1
 606 564 614 549 614 533 c 0
 614 504 595 486 562 483 c 1
 562 100 l 1xd4
 601 100 623 82 623 50 c 0
 623 33 614 17 599 7 c 0
 592 3 577 0 557 0 c 2
 427 0 l 2
 404 0 390 3 382 10 c 1
 369 19 361 35 361 50 c 0xc8
 361 67 370 84 385 93 c 0
 394 99 401 100 427 100 c 2
 462 100 l 1
 462 389 l 1
 351 138 l 1
 260 138 l 1
 142 389 l 1xd4
EndSplineSet
Validated: 1
EndChar

StartChar: N
Encoding: 78 78 47
Width: 600
Flags: W
HStem: 0 100<33.4248 73 173 249.666> 483 100<16.4205 73 354.421 431 531 570.533>
VStem: 12 262<10.4263 90.5276> 73 100<100 394> 330 262<492.472 573.528> 431 100<191 483>
LayerCount: 2
Fore
SplineSet
173 394 m 1xd4
 173 100 l 1xd4
 208 100 l 2
 235 100 244 98 254 91 c 0
 267 81 274 66 274 50 c 0
 274 33 265 17 250 7 c 0
 243 3 228 0 208 0 c 2
 79 0 l 2
 55 0 42 3 33 10 c 0
 20 19 12 34 12 50 c 0xe0
 12 82 34 100 73 100 c 1
 73 483 l 1xd0
 58 483 l 2
 33 483 21 485 12 492 c 0xe0
 -1 502 -8 517 -8 533 c 0
 -8 550 1 567 16 576 c 0
 25 582 32 583 58 583 c 2
 173 583 l 1
 431 191 l 1
 431 483 l 1xd4
 396 483 l 2
 371 483 360 485 351 492 c 0
 338 502 330 517 330 533 c 0
 330 550 339 567 354 576 c 0
 363 582 370 583 396 583 c 2
 526 583 l 2
 553 583 561 581 571 574 c 0
 584 564 592 549 592 533 c 0xc8
 592 501 571 483 531 483 c 1
 531 0 l 1
 431 0 l 1
 173 394 l 1xd4
EndSplineSet
Validated: 1
EndChar

StartChar: O
Encoding: 79 79 48
Width: 600
Flags: W
HStem: -14 100<223.211 376.218> 497 100<223.211 378.83>
VStem: 21 100<194.003 385.854> 479 100<195.749 387.645>
LayerCount: 2
Fore
SplineSet
300 597 m 0
 367 597 432 570 485 520 c 0
 548 460 579 383 579 287 c 0
 579 123 452 -14 300 -14 c 0
 146 -14 21 123 21 292 c 0
 21 460 146 597 300 597 c 0
300 497 m 0
 202 497 121 404 121 292 c 0
 121 179 202 86 300 86 c 0
 397 86 479 179 479 289 c 0
 479 404 399 497 300 497 c 0
EndSplineSet
Validated: 1
EndChar

StartChar: P
Encoding: 80 80 49
Width: 600
Flags: W
HStem: 0 100<37.4219 94 194 334.666> 200 100<194 389.522> 483 100<37.4205 94 194 389.477>
VStem: 94 100<100 200 300 483> 423 106<332.226 449.25>
LayerCount: 2
Fore
SplineSet
194 200 m 1
 194 100 l 1
 293 100 l 2
 320 100 328 98 338 91 c 0
 351 81 359 66 359 50 c 0
 359 33 350 16 335 7 c 0
 328 3 313 0 293 0 c 2
 79 0 l 2
 56 0 42 3 34 10 c 1
 21 19 13 35 13 50 c 0
 13 67 22 84 37 93 c 0
 46 99 55 100 79 100 c 2
 94 100 l 1
 94 483 l 1
 79 483 l 2
 54 483 43 485 34 492 c 0
 21 502 13 518 13 533 c 0
 13 550 22 567 37 576 c 0
 46 582 53 583 79 583 c 2
 312 583 l 2
 439 583 529 505 529 394 c 0
 529 348 511 301 479 266 c 0
 435 217 385 200 292 200 c 2
 194 200 l 1
194 483 m 1
 194 300 l 1
 312 300 l 2
 381 300 423 335 423 391 c 0
 423 448 381 483 312 483 c 2
 194 483 l 1
EndSplineSet
Validated: 1
EndChar

StartChar: Q
Encoding: 81 81 50
Width: 600
Flags: W
HStem: -145 100<361.341 496.674> -117 92<268.369 403.305> -33 20G<520.5 540.5> -7 92<271 376.794> 497 100<223.211 376.83>
VStem: 21 100<194.594 385.691> 479 100<193.272 385.74>
LayerCount: 2
Fore
SplineSet
271 -7 m 1x9e
 267 -30 l 1
 291 -26 303 -25 318 -25 c 0x5e
 344 -25 370 -29 402 -38 c 0
 425 -44 432 -45 443 -45 c 0
 458 -45 467 -42 486 -30 c 0
 509 -15 515 -13 526 -13 c 0
 555 -13 577 -35 577 -63 c 0
 577 -84 567 -98 539 -114 c 0
 503 -136 475 -145 444 -145 c 0xbe
 419 -145 415 -144 367 -125 c 0
 356 -121 333 -117 319 -117 c 0x5e
 298 -117 236 -127 193 -138 c 0
 181 -141 171 -145 165 -145 c 0
 139 -145 117 -119 117 -91 c 0
 117 -76 121 -68 137 -53 c 2
 199 7 l 1
 124 50 93 77 65 124 c 0
 37 173 21 231 21 292 c 0
 21 460 146 597 300 597 c 0
 453 597 579 460 579 294 c 0
 579 183 524 84 429 27 c 0
 391 4 345 -7 289 -7 c 0
 287 -7 279 -8 271 -7 c 1x9e
300 497 m 0
 202 497 121 404 121 291 c 0
 121 179 202 85 300 85 c 0
 397 85 479 178 479 288 c 0
 479 404 399 497 300 497 c 0
EndSplineSet
Validated: 1
EndChar

StartChar: R
Encoding: 82 82 51
Width: 600
Flags: W
HStem: 0 100<37.4219 94 194 270.666 526.445 594.666> 222 100<194 321.012> 483 100<37.4205 94 194 381.047>
VStem: 13 282<10.427 90.5276> 94 100<100 222 322 483> 416 106<362.689 452.635>
LayerCount: 2
Fore
SplineSet
194 222 m 1xec
 194 100 l 1xec
 229 100 l 2
 256 100 265 98 275 91 c 1
 287 81 295 66 295 50 c 0
 295 33 286 16 271 7 c 0
 264 3 249 0 229 0 c 2
 79 0 l 2
 56 0 42 3 34 10 c 1
 21 19 13 35 13 50 c 0xf4
 13 67 22 84 37 93 c 0
 46 99 55 100 79 100 c 2
 94 100 l 1
 94 483 l 1xec
 79 483 l 2
 54 483 43 485 34 492 c 0
 21 502 13 517 13 533 c 0xf4
 13 550 22 567 37 576 c 0
 46 582 53 583 79 583 c 2
 302 583 l 2
 432 583 522 510 522 405 c 0
 522 342 489 294 416 254 c 1
 463 213 498 167 540 100 c 1
 553 100 l 2
 578 100 589 98 599 91 c 0
 611 82 619 66 619 50 c 0
 619 33 610 16 595 7 c 0
 588 3 573 0 553 0 c 2
 474 0 l 1
 424 97 332 207 290 222 c 1
 194 222 l 1xec
194 322 m 1
 270 322 l 2
 354 322 416 358 416 408 c 0
 416 451 370 483 306 483 c 2
 194 483 l 1
 194 322 l 1
EndSplineSet
Validated: 1
EndChar

StartChar: S
Encoding: 83 83 52
Width: 600
Flags: W
HStem: -14 100<207.044 393.852> 0 199<71.4724 149.925> 376 221<434.129 507.528> 497 100<220.8 384.026>
VStem: 62 101<121.364 178.53> 82 104<377.297 465.38> 418 99<397.467 464.681> 434 104<121.623 204.395>
LayerCount: 2
Fore
SplineSet
517 531 m 2x26
 517 443 l 2x26
 517 415 515 407 508 397 c 0
 498 384 483 376 468 376 c 0
 454 376 442 382 434 390 c 0x21
 427 398 425 398 418 430 c 0x22
 409 470 361 497 299 497 c 0
 236 497 186 464 186 421 c 0
 186 400 201 377 223 366 c 0
 243 356 248 354 323 340 c 0
 410 324 448 310 479 285 c 0
 519 253 538 212 538 160 c 0
 538 56 446 -14 309 -14 c 0x95
 255 -14 202 -1 153 25 c 1
 136 5 129 0 113 0 c 0
 78 0 62 22 62 67 c 2
 62 133 l 2
 62 158 64 169 71 179 c 0
 81 192 96 199 112 199 c 0
 126 199 139 194 148 185 c 0
 155 178 155 178 163 151 c 0x49
 173 115 236 86 302 86 c 0
 376 86 434 119 434 162 c 0
 434 183 420 203 398 215 c 0
 377 226 361 230 293 242 c 0
 228 253 196 263 164 281 c 0
 113 310 82 363 82 420 c 0
 82 521 175 597 299 597 c 0x95
 350 597 394 586 429 564 c 1
 439 589 448 597 468 597 c 0
 485 597 502 588 510 574 c 0
 516 565 517 557 517 531 c 2x26
EndSplineSet
Validated: 1
EndChar

StartChar: T
Encoding: 84 84 53
Width: 600
Flags: W
HStem: 0 100<142.42 249 349 457.534> 324 259<50.3175 132.528 466.779 548.528> 483 100<142 249 349 458>
VStem: 42 100<348.423 483> 249 100<100 483> 458 100<348.423 483>
LayerCount: 2
Fore
SplineSet
349 483 m 1xbc
 349 100 l 1
 415 100 l 2
 442 100 448 98 458 91 c 0
 471 81 481 66 481 50 c 0
 481 33 473 16 458 7 c 0
 451 3 435 0 415 0 c 2
 184 0 l 2
 161 0 148 3 139 10 c 0
 126 19 118 35 118 50 c 0
 118 67 127 84 142 93 c 0
 151 99 158 100 184 100 c 2
 249 100 l 1
 249 483 l 1
 142 483 l 1xbc
 142 390 l 2
 142 363 140 355 133 345 c 0
 123 332 108 324 92 324 c 0xdc
 75 324 58 333 49 348 c 0
 44 357 42 367 42 390 c 2
 42 583 l 1
 558 583 l 1xbc
 558 390 l 2
 558 362 557 355 549 345 c 0
 539 332 524 324 508 324 c 0xdc
 491 324 474 334 465 348 c 0
 460 357 458 367 458 390 c 2
 458 483 l 1
 349 483 l 1xbc
EndSplineSet
Validated: 1
EndChar

StartChar: U
Encoding: 85 85 54
Width: 600
Flags: W
HStem: -14 100<223.149 377.039> 483 100<34.4212 71 171 247.623 352.421 429 529 569.487>
VStem: 10 262<492.252 573.528> 71 100<137.017 483> 328 262<492.472 573.528> 429 100<137.017 483>
LayerCount: 2
Fore
SplineSet
529 483 m 1xc4
 529 205 l 2
 529 134 502 78 445 35 c 0
 402 2 355 -14 300 -14 c 0
 246 -14 198 2 155 35 c 0
 99 78 71 134 71 205 c 2
 71 483 l 1xd4
 31 484 10 501 10 533 c 0
 10 550 19 567 34 576 c 0
 43 582 51 583 76 583 c 2
 206 583 l 2
 234 583 241 582 252 574 c 0
 264 564 272 549 272 533 c 0xe0
 272 516 263 499 248 490 c 0
 240 485 229 483 206 483 c 2
 171 483 l 1
 171 196 l 2
 171 135 229 86 300 86 c 0
 371 86 429 135 429 196 c 2
 429 483 l 1xd4
 394 483 l 2
 368 483 358 485 349 492 c 0
 336 502 328 517 328 533 c 0
 328 550 337 567 352 576 c 0
 361 582 368 583 394 583 c 2
 524 583 l 2
 551 583 559 581 570 574 c 1
 583 564 590 549 590 533 c 0xc8
 590 501 569 483 529 483 c 1xc4
EndSplineSet
Validated: 1
EndChar

StartChar: V
Encoding: 86 86 55
Width: 600
Flags: W
HStem: 0 21G<240.636 356.489> 483 100<3.42049 47 159 219.578 381.421 447 553 599.577>
VStem: -21 265<491.779 573.528> 357 264<492.472 573.528>
LayerCount: 2
Fore
SplineSet
303 144 m 1
 447 483 l 1
 423 483 l 2
 396 483 388 485 377 492 c 1
 365 502 357 517 357 533 c 0
 357 550 366 567 381 576 c 0
 390 582 397 583 423 583 c 2
 555 583 l 2
 581 583 591 581 600 574 c 0
 613 564 621 549 621 533 c 0
 621 513 607 493 590 487 c 0
 581 484 574 483 553 483 c 1
 348 0 l 1
 249 0 l 1
 47 483 l 1
 27 483 19 484 10 487 c 0
 -7 493 -21 513 -21 533 c 0
 -21 550 -12 567 3 576 c 0
 12 582 19 583 45 583 c 2
 178 583 l 2
 204 583 214 581 224 574 c 1
 236 564 244 549 244 533 c 0
 244 516 235 499 220 490 c 0
 211 485 202 483 178 483 c 2
 159 483 l 1
 303 144 l 1
EndSplineSet
Validated: 1
EndChar

StartChar: W
Encoding: 87 87 56
Width: 600
Flags: W
HStem: 0 21G<95.4327 215.57 386.285 505.484> 417 20G<244.274 361.726> 483 100<14.4205 36 139 229.577 371.421 466 563 589.532>
VStem: -10 264<491.379 573.528> 347 263<492.472 573.528>
LayerCount: 2
Fore
SplineSet
300 277 m 1
 209 0 l 1
 98 0 l 1
 36 483 l 1
 6 487 -10 503 -10 531 c 0
 -10 550 -1 566 14 576 c 0
 23 582 30 583 56 583 c 2
 187 583 l 2
 215 583 223 581 233 574 c 0
 246 564 254 549 254 533 c 0
 254 516 245 499 230 490 c 0
 221 485 211 483 187 483 c 2
 139 483 l 1
 175 211 l 1
 251 437 l 1
 355 437 l 1
 431 211 l 1
 466 483 l 1
 413 483 l 2
 388 483 377 485 368 492 c 0
 355 502 347 517 347 533 c 0
 347 550 356 567 371 576 c 0
 380 582 387 583 413 583 c 2
 544 583 l 2
 571 583 580 581 590 574 c 1
 602 564 610 549 610 533 c 0
 610 506 593 488 563 483 c 1
 503 0 l 1
 393 0 l 1
 300 277 l 1
EndSplineSet
Validated: 1
EndChar

StartChar: X
Encoding: 88 88 57
Width: 600
Flags: W
HStem: 0 100<31.4241 69 531 565.621> 483 100<27.7015 77 521 556.533>
VStem: 10 243<9.4724 90.5704> 19 224<493.091 573.528> 347 243<9.67798 90.5704> 355 223<492.947 572.573>
LayerCount: 2
Fore
SplineSet
364 297 m 1xd4
 531 100 l 1
 569 99 590 81 590 50 c 0
 590 33 581 16 566 7 c 0
 558 2 545 0 524 0 c 2
 413 0 l 2
 369 0 347 17 347 50 c 0
 347 80 367 98 402 100 c 1
 301 220 l 1
 199 100 l 1
 233 98 253 80 253 50 c 0
 253 33 244 16 229 7 c 0
 221 2 208 0 187 0 c 2
 76 0 l 2
 52 0 40 3 31 9 c 0
 18 19 10 34 10 50 c 0xe8
 10 81 32 100 69 100 c 1
 235 298 l 1
 77 483 l 1
 40 485 19 503 19 533 c 0
 19 560 36 580 65 583 c 0
 77 585 78 583 85 583 c 2
 176 583 l 2
 204 583 212 581 222 574 c 0
 235 564 243 549 243 533 c 0
 243 511 234 497 205 483 c 1
 300 375 l 1
 393 483 l 1
 365 497 355 511 355 533 c 0
 355 548 363 564 376 573 c 1
 384 580 400 583 422 583 c 2
 512 583 l 2
 539 583 547 581 557 574 c 0
 571 564 578 549 578 533 c 0
 578 502 556 484 521 483 c 1
 364 297 l 1xd4
EndSplineSet
Validated: 1
EndChar

StartChar: Y
Encoding: 89 89 58
Width: 600
Flags: W
HStem: 0 100<142.421 250 350 457.666> 483 100<29.6793 85 514 557.578>
VStem: 21 222<493.001 573.528> 250 100<100 245> 354 225<492.526 573.528>
LayerCount: 2
Fore
SplineSet
350 245 m 1
 350 100 l 1
 415 100 l 2
 443 100 451 98 461 91 c 0
 474 81 482 66 482 50 c 0
 482 33 473 16 458 7 c 0
 451 3 436 0 415 0 c 2
 185 0 l 2
 161 0 148 3 139 10 c 0
 126 19 118 34 118 50 c 0
 118 67 127 84 142 93 c 0
 151 99 158 100 185 100 c 2
 250 100 l 1
 250 245 l 1
 85 483 l 1
 44 483 21 501 21 533 c 0
 21 560 38 580 67 583 c 0
 79 585 80 583 88 583 c 2
 177 583 l 2
 204 583 213 581 223 574 c 1
 235 564 243 549 243 533 c 0
 243 510 231 494 205 483 c 1
 300 348 l 1
 394 483 l 1
 367 493 354 510 354 533 c 0
 354 550 363 567 378 576 c 0
 387 582 396 583 421 583 c 2
 513 583 l 2
 540 583 549 581 558 574 c 0
 572 564 579 549 579 533 c 0
 579 504 555 483 524 483 c 0
 521 483 519 483 516 483 c 1
 514 483 l 1
 350 245 l 1
EndSplineSet
Validated: 1
EndChar

StartChar: Z
Encoding: 90 90 59
Width: 600
Flags: W
HStem: 0 238<436.472 518.682> 0 100<201 427> 347 236<104.445 186.528> 483 100<196 375>
VStem: 96 100<371.421 483> 427 100<100 213.58>
LayerCount: 2
Fore
SplineSet
201 100 m 1x5c
 427 100 l 1x5c
 427 172 l 2
 427 197 429 208 436 218 c 1
 446 230 461 238 477 238 c 0x8c
 494 238 511 229 520 214 c 0
 526 205 527 198 527 172 c 2
 527 0 l 1
 73 0 l 1
 73 100 l 1
 375 483 l 1
 196 483 l 1x5c
 196 413 l 2
 196 386 194 377 187 368 c 0
 177 355 162 347 146 347 c 0x2c
 129 347 113 356 103 371 c 0
 98 380 96 388 96 413 c 2
 96 583 l 1
 504 583 l 1
 504 486 l 1
 201 100 l 1x5c
EndSplineSet
Validated: 1
EndChar

StartChar: bracketleft
Encoding: 91 91 60
Width: 600
Flags: W
HStem: -148 100<350 450.622> 527 100<350 449.622>
VStem: 250 225<-139.555 -57.4724 536.252 617.528> 250 100<-48 527>
LayerCount: 2
Fore
SplineSet
350 527 m 1xd0
 350 -48 l 1xd0
 409 -48 l 2
 436 -48 444 -50 454 -57 c 0
 467 -67 475 -82 475 -98 c 0xe0
 475 -115 466 -131 451 -141 c 0
 443 -146 431 -148 409 -148 c 2
 250 -148 l 1
 250 627 l 1
 408 627 l 2
 435 627 443 625 454 618 c 1
 467 608 474 593 474 577 c 0
 474 560 465 543 450 534 c 0
 442 529 430 527 408 527 c 2
 350 527 l 1xd0
EndSplineSet
Validated: 1
EndChar

StartChar: backslash
Encoding: 92 92 61
Width: 600
Flags: W
LayerCount: 2
Fore
SplineSet
184 651 m 2
 505 -27 l 2
 514 -45 517 -55 517 -65 c 0
 517 -90 493 -113 467 -113 c 0
 443 -113 431 -103 415 -69 c 2
 95 610 l 2
 85 630 83 636 83 647 c 0
 83 672 106 695 133 695 c 0
 156 695 169 685 184 651 c 2
EndSplineSet
Validated: 1
EndChar

StartChar: bracketright
Encoding: 93 93 62
Width: 600
Flags: W
HStem: -148 100<150.378 250> 527 100<149.378 250>
VStem: 126 224<-138.528 -56.3175 536.472 619.045> 250 100<-48 527>
LayerCount: 2
Fore
SplineSet
250 -48 m 1xd0
 250 527 l 1xd0
 191 527 l 2
 164 527 156 529 146 536 c 0
 133 546 126 561 126 577 c 0xe0
 126 594 134 610 149 620 c 0
 157 625 169 627 191 627 c 2
 350 627 l 1
 350 -148 l 1xd0
 192 -148 l 2
 165 -148 157 -146 146 -139 c 1
 133 -129 126 -114 126 -98 c 0xe0
 126 -81 135 -64 150 -55 c 0
 158 -50 170 -48 192 -48 c 2
 250 -48 l 1xd0
EndSplineSet
Validated: 1
EndChar

StartChar: asciicircum
Encoding: 94 94 63
Width: 600
Flags: W
HStem: 325 327
LayerCount: 2
Fore
SplineSet
299 494 m 1
 182 356 l 2
 160 330 153 325 133 325 c 0
 106 325 83 348 83 375 c 0
 83 390 87 398 105 419 c 2
 299 652 l 1
 495 419 l 2
 513 398 517 390 517 375 c 0
 517 348 494 325 467 325 c 0
 448 325 439 330 418 355 c 2
 299 494 l 1
EndSplineSet
Validated: 1
EndChar

StartChar: underscore
Encoding: 95 95 64
Width: 600
Flags: W
HStem: -125 50<-12 612>
LayerCount: 2
Fore
SplineSet
612 -75 m 1
 612 -125 l 1
 -12 -125 l 1
 -12 -75 l 1
 612 -75 l 1
EndSplineSet
Validated: 1
EndChar

StartChar: grave
Encoding: 96 96 65
Width: 600
Flags: W
HStem: 496 200
VStem: 125 225
LayerCount: 2
Fore
SplineSet
194 680 m 2
 327 569 l 2
 343 556 350 545 350 532 c 0
 350 513 333 496 313 496 c 0
 303 496 296 500 281 512 c 2
 148 624 l 1
 131 637 125 647 125 660 c 0
 125 680 141 696 162 696 c 0
 173 696 178 693 194 680 c 2
EndSplineSet
Validated: 1
EndChar

StartChar: a
Encoding: 97 97 66
Width: 600
Flags: W
HStem: -16 100<155.744 331.336> 0 100<489 546.667> 196 92<189.436 387.106> 350 100<153.81 379.172>
VStem: 42 106<95.2491 161.15> 389 100<123.047 188.338 278 335.061>
LayerCount: 2
Fore
SplineSet
389 0 m 1x7c
 389 23 l 1
 341 -2 281 -16 222 -16 c 0xbc
 123 -16 42 45 42 119 c 0
 42 150 57 185 81 212 c 0
 126 262 195 288 284 288 c 0
 316 288 348 285 389 278 c 1
 389 301 l 2
 389 335 359 350 295 350 c 0
 262 350 225 345 179 333 c 0
 162 329 148 327 139 327 c 0
 111 327 90 349 90 378 c 0
 90 399 100 413 120 420 c 0
 168 437 242 450 292 450 c 0
 415 450 489 395 489 302 c 2
 489 100 l 1
 505 100 l 2
 532 100 541 98 551 91 c 1
 563 81 571 66 571 50 c 0
 571 33 562 16 547 7 c 0
 540 2 526 0 505 0 c 2
 389 0 l 1x7c
389 135 m 1
 389 185 l 1
 349 192 312 196 278 196 c 0
 210 196 148 161 148 123 c 0
 148 101 181 84 224 84 c 0
 278 84 334 101 389 135 c 1
EndSplineSet
Validated: 1
EndChar

StartChar: b
Encoding: 98 98 67
Width: 600
Flags: W
HStem: -14 100<237.569 407.549> 0 100<16.4212 74> 351 100<235.432 409.469> 524 100<16.4219 74>
VStem: -8 182<9.47241 35 533.472 615.682> 74 100<148.298 289.535 401 524> 471 100<148.06 288.96>
LayerCount: 2
Fore
SplineSet
174 624 m 1x76
 174 401 l 1x76
 217 435 264 451 324 451 c 0
 399 451 455 430 501 386 c 0
 547 342 571 284 571 218 c 0
 571 153 547 96 501 51 c 0
 455 7 399 -14 325 -14 c 0
 266 -14 226 -1 174 35 c 1xba
 174 0 l 1x76
 58 0 l 2
 34 0 21 3 12 9 c 1
 0 19 -8 34 -8 50 c 0x7a
 -8 67 1 84 16 93 c 0
 25 99 33 100 58 100 c 2
 74 100 l 1
 74 524 l 1x76
 58 524 l 2
 32 524 22 526 12 533 c 1
 0 543 -8 558 -8 574 c 0x7a
 -8 591 1 608 16 617 c 0
 25 623 34 624 58 624 c 2
 174 624 l 1x76
323 351 m 0
 274 351 241 339 213 311 c 0
 188 286 174 253 174 220 c 0
 174 141 235 86 323 86 c 0xb6
 370 86 404 99 432 126 c 0
 457 151 471 185 471 219 c 0
 471 252 456 286 432 311 c 1
 403 339 371 351 323 351 c 0
EndSplineSet
Validated: 1
EndChar

StartChar: c
Encoding: 99 99 68
Width: 600
Flags: W
HStem: -16 100<213.454 454.584> 16 124<473.286 534.011> 241 209<456.864 530.528> 350 100<222.81 410.157>
VStem: 54 100<136.962 283.421> 439 101<262.423 324.156>
LayerCount: 2
Fore
SplineSet
540 384 m 2x2c
 540 307 l 2
 540 281 538 271 531 262 c 0
 521 249 506 241 490 241 c 0x2c
 477 241 462 247 454 255 c 1
 446 261 444 267 439 289 c 0
 435 307 429 316 416 325 c 0
 390 341 354 350 310 350 c 0
 259 350 222 336 194 307 c 0
 168 281 154 245 154 207 c 0
 154 125 213 84 330 84 c 0x9c
 370 84 411 89 435 97 c 0
 454 103 459 107 485 128 c 0
 494 136 503 140 515 140 c 0
 542 140 565 117 565 89 c 0
 565 63 542 37 501 16 c 0x4c
 460 -4 396 -16 323 -16 c 0
 226 -16 164 5 115 53 c 0
 75 93 54 146 54 207 c 0
 54 350 159 450 310 450 c 0x9c
 367 450 415 440 454 420 c 1
 460 441 471 450 492 450 c 0
 525 450 540 430 540 384 c 2x2c
EndSplineSet
Validated: 1
EndChar

StartChar: d
Encoding: 100 100 69
Width: 600
Flags: W
HStem: -14 100<196.565 368.556> 0 100<531 588.623> 351 100<194.417 369.349> 525 99<373.421 431>
VStem: 33 100<148.397 289.082> 349 182<534.472 615.683> 431 100<147.621 289.478 401 525>
LayerCount: 2
Fore
SplineSet
531 624 m 1xba
 531 100 l 1
 547 100 l 2
 574 100 583 98 593 91 c 1
 605 81 613 66 613 50 c 0
 613 33 604 16 589 7 c 0
 581 2 570 0 547 0 c 2
 431 0 l 1x7a
 431 35 l 1
 378 -1 339 -14 280 -14 c 0
 205 -14 149 7 103 51 c 0
 57 96 33 153 33 219 c 0
 33 284 57 342 103 386 c 0
 149 430 205 451 281 451 c 0
 341 451 388 435 431 401 c 1
 431 525 l 1xba
 415 525 l 2
 389 525 379 527 369 534 c 1
 357 544 349 559 349 575 c 0xbc
 349 591 358 608 373 617 c 0
 382 623 389 624 415 624 c 2
 531 624 l 1xba
281 351 m 0
 233 351 200 339 172 311 c 0
 147 286 133 252 133 219 c 0
 133 185 147 152 172 126 c 1
 200 99 234 86 282 86 c 0xba
 330 86 364 99 392 126 c 0
 417 151 431 185 431 217 c 0
 431 253 417 286 392 311 c 0
 363 339 331 351 281 351 c 0
EndSplineSet
Validated: 1
EndChar

StartChar: e
Encoding: 101 101 70
Width: 600
Flags: W
HStem: -16 100<201.085 444.894> 172 88<145 439> 350 100<204.278 382.214>
LayerCount: 2
Fore
SplineSet
550 172 m 1
 142 172 l 1
 165 112 218 84 306 84 c 0
 352 84 377 88 469 112 c 0
 481 115 493 117 502 117 c 0
 529 117 550 95 550 67 c 0
 550 47 539 33 515 22 c 0
 470 2 368 -16 297 -16 c 0
 142 -16 33 80 33 216 c 0
 33 348 145 450 291 450 c 0
 440 450 550 349 550 211 c 2
 550 172 l 1
145 260 m 1
 439 260 l 1
 423 315 365 350 292 350 c 0
 219 350 160 314 145 260 c 1
EndSplineSet
Validated: 1
EndChar

StartChar: f
Encoding: 102 102 71
Width: 600
Flags: W
HStem: 0 100<99.4205 199 299 479.666> 337 100<110.421 199 299 491.622> 523 101<309.734 533.309>
VStem: 199 100<100 337 437 510.729>
LayerCount: 2
Fore
SplineSet
299 337 m 1
 299 100 l 1
 438 100 l 2
 465 100 474 98 484 91 c 1
 496 81 504 66 504 50 c 0
 504 33 495 17 480 7 c 0
 473 3 458 0 438 0 c 2
 141 0 l 2
 118 0 104 3 95 10 c 0
 83 19 75 35 75 50 c 0
 75 67 84 84 99 93 c 0
 108 99 115 100 141 100 c 2
 199 100 l 1
 199 337 l 1
 152 337 l 2
 128 337 116 339 107 347 c 1
 94 356 86 371 86 387 c 0
 86 404 95 421 110 430 c 0
 119 436 126 437 153 437 c 2
 199 437 l 1
 199 474 l 2
 199 566 273 624 392 624 c 0
 434 624 497 616 529 607 c 0
 556 600 571 583 571 560 c 0
 571 531 550 509 524 509 c 0
 518 509 508 510 496 512 c 0
 462 518 414 523 383 523 c 0
 326 523 299 507 299 474 c 2
 299 437 l 1
 450 437 l 2
 477 437 485 435 495 428 c 0
 508 418 516 403 516 387 c 0
 516 370 507 354 492 344 c 0
 484 339 472 337 450 337 c 2
 299 337 l 1
EndSplineSet
Validated: 1
EndChar

StartChar: g
Encoding: 103 103 72
Width: 600
Flags: W
HStem: -205 100<165.42 381.619> -14 100<197.088 345.817> 337 100<510 567.623> 351 100<197.088 346.9>
VStem: 33 100<147.323 289.54> 410 100<-76.4346 35 149.227 289.664>
LayerCount: 2
Fore
SplineSet
410 401 m 1xdc
 410 437 l 1
 526 437 l 2
 553 437 562 435 572 428 c 1
 584 418 592 403 592 387 c 0
 592 370 583 353 568 344 c 0
 560 339 549 337 526 337 c 2
 510 337 l 1xec
 510 -20 l 2
 510 -126 428 -205 319 -205 c 2
 207 -205 l 2
 182 -205 171 -203 162 -195 c 1
 149 -186 141 -171 141 -155 c 0
 141 -138 150 -121 165 -112 c 0
 174 -106 181 -105 207 -105 c 2
 316 -105 l 2
 373 -105 410 -72 410 -20 c 2
 410 35 l 1
 364 1 321 -14 269 -14 c 0
 135 -14 33 86 33 218 c 0
 33 351 135 451 269 451 c 0
 323 451 371 434 410 401 c 1xdc
271 351 m 0xdc
 195 351 133 292 133 219 c 0
 133 145 195 86 271 86 c 0
 347 86 410 145 410 217 c 0
 410 292 349 351 271 351 c 0xdc
EndSplineSet
Validated: 1
EndChar

StartChar: h
Encoding: 104 104 73
Width: 600
Flags: W
HStem: 0 100<47.4212 95 195 243.621 360.422 409 509 556.621> 350 100<247.984 387.449> 524 100<37.4219 95>
VStem: 13 182<533.473 615.682> 23 245<9.47312 90.5276> 95 100<100 301.67 389 524> 336 245<9.4724 90.5276> 409 100<100 328.263>
LayerCount: 2
Fore
SplineSet
195 624 m 1xe4
 195 389 l 1
 235 430 280 450 332 450 c 0
 438 450 509 384 509 284 c 2
 509 100 l 1xe5
 515 100 l 2
 542 100 551 98 561 91 c 1
 573 81 581 66 581 50 c 0
 581 33 572 16 557 7 c 0
 549 2 536 0 515 0 c 2
 403 0 l 2
 379 0 366 3 357 9 c 0
 344 19 336 34 336 50 c 0xe2
 336 67 345 83 360 93 c 0
 369 98 378 100 403 100 c 2
 409 100 l 1
 409 271 l 2
 409 305 405 317 388 331 c 0
 371 345 352 350 321 350 c 0
 274 350 252 338 195 283 c 1
 195 100 l 1xe5
 201 100 l 2
 229 100 237 98 247 91 c 0
 260 81 268 66 268 50 c 0
 268 33 259 17 244 7 c 0
 236 2 222 0 201 0 c 2
 89 0 l 2
 65 0 53 3 44 9 c 0
 31 19 23 35 23 50 c 0xe8
 23 67 32 84 47 93 c 0
 56 98 64 100 89 100 c 2
 95 100 l 1
 95 524 l 1xe4
 79 524 l 2
 53 524 43 526 33 533 c 1
 21 543 13 559 13 574 c 0xf0
 13 591 22 608 37 617 c 0
 46 622 55 624 79 624 c 2
 195 624 l 1xe4
EndSplineSet
Validated: 1
EndChar

StartChar: i
Encoding: 105 105 74
Width: 600
Flags: W
HStem: 0 100<86.4205 250 350 513.666> 337 100<129.421 250> 518 106<218 336>
VStem: 105 245<347.426 428.682> 218 118<518 624> 250 100<100 337>
LayerCount: 2
Fore
SplineSet
350 437 m 1xe4
 350 100 l 1
 472 100 l 2
 499 100 507 98 517 91 c 0
 530 81 538 66 538 50 c 0
 538 33 529 17 514 7 c 0
 507 3 492 0 472 0 c 2
 128 0 l 2
 105 0 91 3 83 10 c 1
 70 19 62 34 62 50 c 0
 62 67 71 84 86 93 c 0
 95 99 102 100 128 100 c 2
 250 100 l 1
 250 337 l 1xe4
 172 337 l 2
 147 337 135 339 126 347 c 1
 113 356 105 371 105 387 c 0xf0
 105 404 114 421 129 430 c 0
 138 436 146 437 172 437 c 2
 350 437 l 1xe4
336 624 m 1xe8
 336 518 l 1
 218 518 l 1
 218 624 l 1
 336 624 l 1xe8
EndSplineSet
Validated: 1
EndChar

StartChar: j
Encoding: 106 106 75
Width: 600
Flags: W
HStem: -205 100<141.421 359.619> 337 100<144.42 388> 518 106<311 430>
VStem: 311 119<518 624> 388 100<-76.0632 337>
LayerCount: 2
Fore
SplineSet
388 337 m 1xe8
 186 337 l 2
 161 337 150 339 141 347 c 1
 128 356 120 372 120 387 c 0
 120 404 129 421 144 430 c 0
 153 436 160 437 186 437 c 2
 488 437 l 1
 488 -20 l 2
 488 -125 406 -205 297 -205 c 2
 183 -205 l 2
 158 -205 147 -203 138 -195 c 1
 125 -186 117 -170 117 -155 c 0
 117 -138 127 -121 141 -112 c 0
 150 -106 158 -105 183 -105 c 2
 294 -105 l 2
 351 -105 388 -72 388 -20 c 2
 388 337 l 1xe8
430 624 m 1xf0
 430 518 l 1
 311 518 l 1
 311 624 l 1
 430 624 l 1xf0
EndSplineSet
Validated: 1
EndChar

StartChar: k
Encoding: 107 107 76
Width: 600
Flags: W
HStem: 0 100<57.4212 115 471 546.621> 337 100<429 498.623> 524 100<57.4219 115>
VStem: 33 182<9.67798 91.6825 533.472 615.682> 115 100<100 164 287 524> 278 245<350.653 427.528> 320 251<9.67798 86.3928>
LayerCount: 2
Fore
SplineSet
215 164 m 1xea
 215 0 l 1xea
 99 0 l 2
 55 0 33 17 33 50 c 0xf0
 33 67 42 84 57 93 c 0
 66 99 74 100 99 100 c 2
 115 100 l 1
 115 524 l 1xe8
 99 524 l 2
 73 524 63 526 53 533 c 1
 41 543 33 558 33 574 c 0xf0
 33 591 42 608 57 617 c 0
 66 623 75 624 99 624 c 2
 215 624 l 1
 215 287 l 1
 294 350 l 1
 282 364 278 373 278 387 c 0
 278 404 287 420 302 430 c 0
 310 435 321 437 345 437 c 2
 457 437 l 2
 482 437 493 435 503 428 c 0
 516 418 523 403 523 387 c 0xec
 523 370 514 354 499 344 c 0
 491 339 480 337 457 337 c 2
 429 337 l 1
 311 241 l 1
 471 100 l 1
 504 100 l 2
 532 100 540 98 550 91 c 0
 563 81 571 66 571 50 c 0
 571 33 562 17 547 7 c 0
 539 2 526 0 504 0 c 2
 386 0 l 2
 342 0 320 17 320 50 c 0
 320 64 324 74 336 87 c 1
 233 178 l 1
 215 164 l 1xea
EndSplineSet
Validated: 1
EndChar

StartChar: l
Encoding: 108 108 77
Width: 600
Flags: W
HStem: 0 100<86.4205 250 350 513.666> 524 100<129.422 250>
VStem: 105 245<534.426 615.689> 250 100<100 524>
LayerCount: 2
Fore
SplineSet
350 624 m 1xd0
 350 100 l 1
 472 100 l 2
 499 100 507 98 517 91 c 0
 530 81 538 66 538 50 c 0
 538 33 529 17 514 7 c 0
 507 3 492 0 472 0 c 2
 128 0 l 2
 105 0 91 3 83 10 c 1
 70 19 62 35 62 50 c 0
 62 67 71 84 86 93 c 0
 95 99 102 100 128 100 c 2
 250 100 l 1
 250 524 l 1xd0
 172 524 l 2
 147 524 135 526 126 534 c 1
 112 543 105 558 105 574 c 0xe0
 105 592 114 608 129 617 c 0
 138 623 147 624 172 624 c 2
 350 624 l 1xd0
EndSplineSet
Validated: 1
EndChar

StartChar: m
Encoding: 109 109 78
Width: 600
Flags: W
HStem: 0 100<0.42627 41 141 177.621 352 387.621 563 614.755> 337 100<-10.2985 41> 350 100<164.476 249.547 376.029 460.288>
VStem: -19 221<10.427 90.6895> 41 100<100 327.45> 252 160<8.44529 90.3808> 252 100<100 326.009> 463 160<9.67798 90.6895> 463 100<100 346.162>
LayerCount: 2
Fore
SplineSet
141 437 m 1xc8
 141 413 l 1
 176 441 196 450 226 450 c 0
 265 450 298 434 328 401 c 1
 359 435 391 450 432 450 c 0
 507 450 563 394 563 319 c 2
 563 100 l 1xa880
 601 100 623 82 623 50 c 0xa1
 623 17 601 0 557 0 c 2
 463 0 l 1
 463 311 l 2
 463 340 454 350 428 350 c 0
 402 350 386 341 352 305 c 1
 352 100 l 1xa280
 390 100 412 81 412 50 c 0xa4
 412 33 403 17 388 7 c 0
 380 2 367 0 346 0 c 2
 252 0 l 1
 252 311 l 2
 252 339 242 350 217 350 c 0
 190 350 171 339 141 305 c 1
 141 100 l 1xaa
 180 100 202 82 202 50 c 0
 202 33 193 17 178 7 c 0
 170 2 157 0 136 0 c 2
 48 0 l 2
 24 0 9 3 0 10 c 0
 -13 19 -19 35 -19 50 c 0xb0
 -19 82 3 100 41 100 c 1
 41 337 l 1xc8
 3 338 -19 356 -19 387 c 0xd0
 -19 413 -2 434 27 437 c 0
 38 439 40 437 48 437 c 2
 141 437 l 1xc8
EndSplineSet
Validated: 1
EndChar

StartChar: n
Encoding: 110 110 79
Width: 600
Flags: W
HStem: 0 100<47.4212 95 195 242.621 357.292 410 510 546.621> 337 100<42.2919 95> 350 100<246.863 392.214>
VStem: 23 244<10.427 90.5276> 95 100<100 303.481> 349 222<9.67798 90.6895> 410 100<100 332.375>
LayerCount: 2
Fore
SplineSet
195 437 m 1xc8
 195 389 l 1
 243 435 277 450 332 450 c 0
 377 450 418 437 451 413 c 0
 491 383 510 341 510 282 c 2
 510 100 l 1xaa
 549 100 571 82 571 50 c 0
 571 33 562 16 547 7 c 0
 539 2 526 0 505 0 c 2
 416 0 l 2
 371 0 349 17 349 50 c 0xa4
 349 82 371 100 410 100 c 1
 410 278 l 2
 410 327 382 350 320 350 c 0
 274 350 242 333 195 282 c 1
 195 100 l 1xaa
 201 100 l 2
 228 100 236 98 246 91 c 0
 259 81 267 66 267 50 c 0
 267 33 258 17 243 7 c 0
 235 2 222 0 201 0 c 2
 89 0 l 2
 65 0 53 3 43 10 c 0
 31 19 23 35 23 50 c 0xb0
 23 67 32 84 47 93 c 0
 56 98 64 100 89 100 c 2
 95 100 l 1
 95 337 l 1
 56 338 34 355 34 387 c 0
 34 414 51 434 80 437 c 0
 91 439 93 437 101 437 c 2
 195 437 l 1xc8
EndSplineSet
Validated: 1
EndChar

StartChar: o
Encoding: 111 111 80
Width: 600
Flags: W
HStem: -16 100<215.369 384.631> 350 100<213.156 385.653>
VStem: 42 100<151.429 283.146> 458 100<151.429 282.172>
LayerCount: 2
Fore
SplineSet
303 450 m 0
 444 450 558 346 558 217 c 0
 558 87 444 -16 300 -16 c 0
 156 -16 42 87 42 217 c 0
 42 349 155 450 303 450 c 0
302 350 m 0
 211 350 142 293 142 217 c 0
 142 142 211 84 300 84 c 0
 389 84 458 142 458 217 c 0
 458 291 389 350 302 350 c 0
EndSplineSet
Validated: 1
EndChar

StartChar: p
Encoding: 112 112 81
Width: 600
Flags: W
HStem: -205 100<16.4219 74 174 273.622> 10 100<234.609 409.608> 337 100<16.4219 74> 350 100<233.847 409.45>
VStem: -8 306<-194.574 -114.472> 74 100<-105 66 166.404 293.135> 471 100<167.517 292.924>
LayerCount: 2
Fore
SplineSet
174 66 m 1xd6
 174 -105 l 1xd6
 232 -105 l 2
 258 -105 268 -107 278 -114 c 0
 291 -124 298 -139 298 -155 c 0
 298 -172 289 -188 274 -198 c 0
 266 -203 254 -205 232 -205 c 2
 58 -205 l 2
 33 -205 22 -203 12 -195 c 0
 0 -186 -8 -171 -8 -155 c 0xda
 -8 -138 1 -121 16 -112 c 0
 25 -106 34 -105 58 -105 c 2
 74 -105 l 1
 74 337 l 1xe6
 58 337 l 2
 32 337 22 339 12 346 c 1
 0 356 -8 371 -8 387 c 0xea
 -8 404 1 421 16 430 c 0
 25 435 34 437 58 437 c 2
 174 437 l 1xe6
 174 392 l 1
 223 434 265 450 327 450 c 0
 467 450 571 353 571 224 c 0
 571 101 468 10 329 10 c 0
 270 10 226 26 174 66 c 1xd6
323 350 m 0
 281 350 248 341 222 321 c 0
 193 300 174 263 174 231 c 0
 174 160 235 110 323 110 c 0
 409 110 471 160 471 230 c 0
 471 263 452 300 423 321 c 0
 397 341 364 350 323 350 c 0
EndSplineSet
Validated: 1
EndChar

StartChar: q
Encoding: 113 113 82
Width: 600
Flags: W
HStem: -205 100<331.377 431 531 588.622> 10 100<193.696 371.969> 337 100<531 588.623> 350 100<194.55 370.566>
VStem: 33 100<168.133 292.888> 307 306<-194.528 -114.472> 431 100<-105 66 167.308 293.596>
LayerCount: 2
Fore
SplineSet
431 -105 m 1xea
 431 66 l 1
 379 26 334 10 275 10 c 0
 136 10 33 101 33 224 c 0
 33 354 137 450 277 450 c 0xda
 340 450 382 434 431 392 c 1
 431 437 l 1xea
 547 437 l 2
 574 437 583 435 593 428 c 1
 605 418 613 403 613 387 c 0xec
 613 370 604 353 589 344 c 0
 581 339 570 337 547 337 c 2
 531 337 l 1
 531 -105 l 1xea
 547 -105 l 2
 574 -105 583 -107 593 -114 c 1
 605 -124 613 -139 613 -155 c 0
 613 -172 604 -188 589 -198 c 0
 581 -203 569 -205 547 -205 c 2
 373 -205 l 2
 348 -205 337 -203 327 -195 c 0
 314 -185 307 -171 307 -155 c 0xec
 307 -138 316 -121 331 -112 c 0
 339 -107 349 -105 373 -105 c 2
 431 -105 l 1xea
281 350 m 0
 240 350 207 340 181 321 c 0
 152 299 133 263 133 230 c 0
 133 197 152 161 181 139 c 0
 206 120 240 110 282 110 c 0
 324 110 358 120 383 139 c 0
 412 161 431 197 431 229 c 0
 431 300 370 350 281 350 c 0
EndSplineSet
Validated: 1
EndChar

StartChar: r
Encoding: 114 114 83
Width: 600
Flags: W
HStem: 0 100<77.4212 178 278 459.666> 337 100<101.291 178> 349 100<384.502 486.53>
VStem: 178 100<100 264.307>
LayerCount: 2
Fore
SplineSet
278 437 m 1xd0
 278 372 l 1
 358 432 396 449 445 449 c 0
 480 449 512 437 543 411 c 0
 564 394 571 382 571 364 c 0
 571 336 548 313 521 313 c 0
 507 313 497 318 482 331 c 0
 467 344 457 349 443 349 c 0xb0
 411 349 373 325 278 247 c 1
 278 100 l 1
 417 100 l 2
 445 100 453 98 463 91 c 0
 476 81 484 66 484 50 c 0
 484 33 475 16 460 7 c 0
 453 3 438 0 417 0 c 2
 120 0 l 2
 97 0 83 3 74 10 c 0
 62 19 54 35 54 50 c 0
 54 67 62 84 77 93 c 0
 86 99 94 100 120 100 c 2
 178 100 l 1
 178 337 l 1
 143 337 l 2xd0
 118 337 107 341 98 349 c 1xb0
 85 358 77 371 77 387 c 0
 77 404 86 420 101 429 c 1
 107 434 126 437 143 437 c 2
 278 437 l 1xd0
EndSplineSet
Validated: 1
EndChar

StartChar: s
Encoding: 115 115 84
Width: 600
Flags: W
HStem: -16 100<200.059 399.824> 0 167<83.4717 155.487> 281 169<429.125 496.527> 350 100<210.422 391.73>
VStem: 417 110<102.504 155.276>
LayerCount: 2
Fore
SplineSet
409 312 m 2x28
 404 321 l 1
 376 341 343 350 301 350 c 0
 250 350 202 333 202 315 c 0
 202 306 212 297 228 291 c 0
 242 286 248 285 312 276 c 0
 387 266 427 255 457 238 c 0
 501 214 527 171 527 125 c 0
 527 43 433 -16 304 -16 c 0x98
 247 -16 196 -6 156 13 c 1
 145 4 137 0 124 0 c 0
 106 0 90 9 80 25 c 0
 75 34 73 43 73 67 c 2
 73 100 l 2
 73 127 75 136 83 146 c 0
 93 160 107 167 124 167 c 0x48
 150 167 166 153 175 123 c 1
 204 97 246 84 300 84 c 0
 364 84 417 104 417 127 c 0
 417 140 404 154 383 162 c 0
 366 169 345 173 291 179 c 0
 151 194 92 234 92 313 c 0
 92 393 178 450 298 450 c 0x98
 347 450 388 442 427 424 c 1
 435 443 444 450 459 450 c 0
 491 450 506 430 506 384 c 2
 506 347 l 2
 506 321 504 311 497 301 c 1
 487 289 471 281 456 281 c 0
 435 281 421 290 409 312 c 2x28
EndSplineSet
Validated: 1
EndChar

StartChar: t
Encoding: 116 116 85
Width: 600
Flags: W
HStem: -16 100<221.333 417.692> 337 100<37.4205 114 214 436.622> 571 20G<156 172.5>
VStem: 114 100<95.2853 337 437 566.58>
LayerCount: 2
Fore
SplineSet
214 337 m 1
 214 141 l 2
 214 120 216 111 222 104 c 0
 234 91 262 84 300 84 c 0
 353 84 401 95 446 118 c 0
 463 127 470 129 481 129 c 0
 508 129 529 106 529 78 c 0
 529 54 517 41 479 24 c 0
 430 1 351 -16 299 -16 c 0
 185 -16 114 37 114 122 c 2
 114 337 l 1
 79 337 l 2
 54 337 43 339 33 347 c 0
 21 356 13 372 13 387 c 0
 13 404 22 421 37 430 c 0
 46 436 53 437 79 437 c 2
 114 437 l 1
 114 525 l 2
 114 551 116 561 124 571 c 0
 133 583 148 591 164 591 c 0
 181 591 198 582 207 567 c 0
 213 558 214 551 214 525 c 2
 214 437 l 1
 395 437 l 2
 422 437 430 435 441 428 c 1
 453 418 461 403 461 387 c 0
 461 370 452 353 437 344 c 0
 429 339 417 337 395 337 c 2
 214 337 l 1
EndSplineSet
Validated: 1
EndChar

StartChar: u
Encoding: 117 117 86
Width: 600
Flags: W
HStem: -13 100<212.518 358.752> 0 21G<410 515.5> 337 100<37.4212 95 333.422 410>
VStem: 13 182<346.117 428.682> 95 100<105.283 337> 309 201<347.427 428.682> 410 100<134.208 337>
LayerCount: 2
Fore
SplineSet
510 437 m 1xa2
 510 100 l 1
 549 100 571 82 571 50 c 0
 571 33 562 17 547 7 c 0
 539 2 526 0 505 0 c 2
 410 0 l 1x62
 410 48 l 1
 360 1 328 -13 273 -13 c 0
 228 -13 186 0 154 24 c 0
 114 54 95 97 95 156 c 2
 95 337 l 1xaa
 79 337 l 1
 68 337 l 2
 67 337 66 337 64 337 c 0
 36 337 13 359 13 387 c 0xb0
 13 404 22 421 37 430 c 0
 46 436 54 437 79 437 c 2
 195 437 l 1
 195 159 l 2
 195 110 223 87 283 87 c 0
 333 87 358 100 410 155 c 1
 410 337 l 1xaa
 375 337 l 2
 350 337 339 339 330 347 c 1
 317 356 309 372 309 387 c 0xa4
 309 404 318 421 333 430 c 0
 342 436 351 437 375 437 c 2
 510 437 l 1xa2
EndSplineSet
Validated: 1
EndChar

StartChar: v
Encoding: 118 118 87
Width: 600
Flags: W
HStem: 0 21G<237.089 360.911> 337 100<24.4219 80 193 239.623 357.422 409 518 575.623>
VStem: 0 264<346.472 427.528> 333 267<346.472 427.528>
LayerCount: 2
Fore
SplineSet
302 122 m 1
 409 337 l 1
 399 337 l 2
 374 337 363 339 354 346 c 0
 341 356 333 371 333 387 c 0
 333 404 342 421 357 430 c 0
 366 435 375 437 399 437 c 2
 534 437 l 2
 560 437 570 435 580 428 c 1
 592 418 600 403 600 387 c 0
 600 370 591 353 576 344 c 0
 568 339 557 337 534 337 c 2
 518 337 l 1
 351 0 l 1
 247 0 l 1
 80 337 l 1
 66 337 l 2
 41 337 30 339 21 346 c 0
 8 356 0 371 0 387 c 0
 0 404 9 421 24 430 c 0
 33 435 42 437 66 437 c 2
 198 437 l 2
 224 437 234 435 244 428 c 1
 256 418 264 403 264 387 c 0
 264 370 255 353 240 344 c 0
 232 339 221 337 198 337 c 2
 193 337 l 1
 302 122 l 1
EndSplineSet
Validated: 1
EndChar

StartChar: w
Encoding: 119 119 88
Width: 600
Flags: W
HStem: 0 21G<133.97 240.514 364.155 468.97> 338 99<8.12109 54 160 200.625 396.423 448 548 578.577>
VStem: 0 224<346.768 427.528> 375 225<347.427 426.573>
LayerCount: 2
Fore
SplineSet
301 181 m 1
 233 0 l 1
 139 0 l 1
 54 338 l 1
 20 340 0 358 0 387 c 0
 0 414 17 434 45 437 c 0
 57 439 58 437 66 437 c 2
 158 437 l 2
 184 437 194 435 204 428 c 1
 216 418 224 403 224 387 c 0
 224 370 215 354 201 345 c 0
 193 340 185 338 160 338 c 1
 199 185 l 1
 259 343 l 1
 347 343 l 1
 408 185 l 1
 448 338 l 1
 441 338 l 2
 415 338 405 340 396 347 c 0
 383 356 375 372 375 387 c 0
 375 402 383 418 396 427 c 1
 404 434 420 437 441 437 c 2
 534 437 l 2
 560 437 570 435 579 428 c 0
 592 418 600 403 600 387 c 0
 600 358 581 340 548 338 c 1
 464 0 l 1
 372 0 l 1
 301 181 l 1
EndSplineSet
Validated: 1
EndChar

StartChar: x
Encoding: 120 120 89
Width: 600
Flags: W
HStem: 0 21G<65 220 388.5 523.5> 417 20G<85 211 379 504>
VStem: 21 243<9.76172 90.6562> 40 224<346.492 426.574> 334 245<10.4717 90.8021> 334 224<346.66 427.528>
LayerCount: 2
Fore
SplineSet
373 227 m 1xd4
 525 100 l 1
 559 98 579 80 579 50 c 0
 579 33 569 16 555 7 c 0
 547 2 534 0 513 0 c 2
 401 0 l 2
 376 0 364 3 354 10 c 0
 341 20 334 34 334 51 c 0
 334 74 349 93 374 100 c 1
 299 161 l 1
 226 100 l 1
 254 88 264 75 264 51 c 0
 264 17 242 0 198 0 c 2
 87 0 l 2
 43 0 21 17 21 50 c 0xe8
 21 80 41 98 75 100 c 1
 220 228 l 1
 92 337 l 1
 59 340 40 358 40 387 c 0
 40 414 57 434 85 437 c 0
 97 439 98 437 106 437 c 2
 198 437 l 2
 224 437 234 435 244 427 c 0
 256 418 264 403 264 388 c 0
 264 370 255 353 238 342 c 1
 299 293 l 1
 360 343 l 1
 341 356 334 369 334 386 c 0
 334 414 351 434 379 437 c 0
 391 439 392 437 400 437 c 2
 491 437 l 2
 517 437 527 435 537 428 c 0
 550 418 558 403 558 387 c 0
 558 358 539 340 505 337 c 1
 373 227 l 1xd4
EndSplineSet
Validated: 1
EndChar

StartChar: y
Encoding: 121 121 90
Width: 600
Flags: W
HStem: -205 100<45.4219 187 297 343.622> 337 100<184 222.531 362.679 418>
VStem: 21 222<346.551 427.528> 354 225<347.001 427.528>
LayerCount: 2
Fore
SplineSet
242 3 m 1
 70 337 l 1
 39 341 21 359 21 387 c 0
 21 414 38 434 67 437 c 0
 78 439 80 437 87 437 c 2
 177 437 l 2
 203 437 213 435 223 428 c 1
 235 418 243 403 243 387 c 0
 243 356 222 338 184 337 c 1
 298 114 l 1
 418 337 l 1
 377 337 354 355 354 387 c 0
 354 414 371 434 400 437 c 0
 411 439 413 437 421 437 c 2
 513 437 l 2
 539 437 549 435 558 428 c 0
 572 418 579 403 579 387 c 0
 579 358 560 340 527 337 c 1
 297 -105 l 1
 302 -105 l 2
 328 -105 338 -107 348 -114 c 1
 360 -124 368 -139 368 -155 c 0
 368 -172 359 -188 344 -198 c 0
 336 -203 324 -205 302 -205 c 2
 87 -205 l 2
 62 -205 51 -203 42 -195 c 1
 29 -186 21 -171 21 -155 c 0
 21 -138 30 -121 45 -112 c 0
 54 -107 63 -105 87 -105 c 2
 187 -105 l 1
 242 3 l 1
EndSplineSet
Validated: 1
EndChar

StartChar: z
Encoding: 122 122 91
Width: 600
Flags: W
HStem: 0 154<427.789 510.682> 0 100<244 422.991> 262 175<105.318 187.528> 337 100<197 346>
VStem: 97 100<286.423 337>
LayerCount: 2
Fore
SplineSet
244 100 m 1x58
 419 100 l 1x58
 421 135 439 154 469 154 c 0x88
 486 154 503 145 512 130 c 0
 518 121 519 114 519 88 c 2
 519 0 l 1
 85 0 l 1
 85 83 l 1
 346 337 l 1
 197 337 l 1x58
 197 328 l 2
 197 301 195 293 188 283 c 0
 178 270 163 262 147 262 c 0x28
 130 262 113 271 104 286 c 0
 99 295 97 305 97 328 c 2
 97 437 l 1
 506 437 l 1
 506 356 l 1
 244 100 l 1x58
EndSplineSet
Validated: 1
EndChar

StartChar: braceleft
Encoding: 123 123 92
Width: 600
Flags: W
HStem: -153 101<352.316 423.835> 189 101<174.663 246.831> 522 102<351.646 423.835>
VStem: 248 100<-48.0137 186.683 292.763 518.057>
LayerCount: 2
Fore
SplineSet
348 485 m 2
 348 328 l 2
 348 285 342 268 319 240 c 1
 343 211 348 194 348 142 c 2
 348 -15 l 2
 348 -42 356 -50 384 -52 c 0
 413 -54 433 -75 433 -103 c 0
 433 -133 411 -153 378 -153 c 0
 308 -153 248 -93 248 -22 c 2
 248 151 l 2
 248 179 242 186 216 189 c 0
 184 193 167 210 167 240 c 0
 167 269 184 287 216 290 c 0
 242 293 248 301 248 328 c 2
 248 492 l 2
 248 563 308 624 377 624 c 0
 411 624 433 603 433 573 c 0
 433 545 413 524 384 522 c 0
 356 521 348 512 348 485 c 2
EndSplineSet
Validated: 1
EndChar

StartChar: bar
Encoding: 124 124 93
Width: 600
Flags: W
HStem: 604 20G<292 308.5>
VStem: 250 100<-128.623 597.578>
LayerCount: 2
Fore
SplineSet
350 556 m 2
 350 -87 l 2
 350 -112 348 -122 341 -132 c 0
 331 -145 316 -153 300 -153 c 0
 283 -153 267 -144 257 -129 c 0
 252 -121 250 -110 250 -87 c 2
 250 556 l 2
 250 582 252 594 259 604 c 1
 269 616 284 624 300 624 c 0
 317 624 334 613 343 598 c 0
 348 589 350 580 350 556 c 2
EndSplineSet
Validated: 1
EndChar

StartChar: braceright
Encoding: 125 125 94
Width: 600
Flags: W
HStem: -153 101<176.165 248.354> 180 101<353.169 425.337> 522 102<176.165 247.684>
VStem: 252 100<-48.0137 177.237 283.317 518.057>
LayerCount: 2
Fore
SplineSet
252 -15 m 2
 252 142 l 2
 252 185 258 202 281 230 c 1
 257 259 252 276 252 328 c 2
 252 485 l 2
 252 512 244 520 216 522 c 0
 187 524 167 545 167 573 c 0
 167 603 189 624 222 624 c 0
 292 624 352 563 352 492 c 2
 352 319 l 2
 352 291 358 284 384 281 c 0
 416 277 433 260 433 230 c 0
 433 201 416 183 384 180 c 0
 358 177 352 169 352 142 c 2
 352 -22 l 2
 352 -93 292 -153 223 -153 c 0
 189 -153 167 -133 167 -103 c 0
 167 -75 187 -54 216 -52 c 0
 244 -51 252 -42 252 -15 c 2
EndSplineSet
Validated: 1
EndChar

StartChar: asciitilde
Encoding: 126 126 95
Width: 600
Flags: W
HStem: 179 105<351.895 418.729> 281 104<182.131 247.649>
LayerCount: 2
Fore
SplineSet
488 364 m 0x80
 515 364 538 341 538 314 c 0
 538 294 530 280 497 241 c 0
 460 197 430 179 391 179 c 0x80
 352 179 314 200 254 254 c 0
 233 272 220 281 212 281 c 0
 202 281 192 272 165 239 c 0
 139 207 131 201 113 201 c 0
 86 201 62 225 62 252 c 0
 62 271 72 290 101 322 c 0
 140 367 172 385 213 385 c 0x40
 255 385 282 370 350 307 c 1
 368 292 380 284 389 284 c 0
 400 284 413 297 438 330 c 0
 458 357 468 364 488 364 c 0x80
EndSplineSet
Validated: 1
EndChar

StartChar: sterling
Encoding: 163 163 96
Width: 600
Flags: W
HStem: 0 100<76.4248 144.167 247 454.749> 243 100<57.4212 143 269 356.577> 444 21G<398.5 421.5> 498 100<243.786 356.885>
VStem: 126 100<345.478 480.479> 169 101<127.888 243>
LayerCount: 2
Fore
SplineSet
314 243 m 2xf8
 269 243 l 1
 270 231 270 221 270 216 c 0
 270 172 264 142 247 100 c 1
 450 100 l 1
 454 130 471 146 499 146 c 0
 530 146 550 124 550 90 c 0
 550 32 512 0 442 0 c 2
 121 0 l 2
 98 0 85 3 76 10 c 0
 63 19 55 35 55 51 c 0
 55 78 70 93 105 100 c 0
 130 105 141 113 150 132 c 0
 163 157 169 188 169 224 c 0
 169 227 170 235 169 243 c 1xf4
 99 243 l 2
 74 243 63 245 54 252 c 0
 41 262 33 277 33 293 c 0
 33 310 42 327 57 336 c 0
 66 342 74 343 99 343 c 2
 143 343 l 1
 131 379 126 403 126 432 c 0
 126 529 198 598 299 598 c 0
 377 598 457 546 457 495 c 0
 457 467 435 444 408 444 c 0
 389 444 384 447 361 472 c 0
 345 490 325 498 298 498 c 0
 257 498 226 472 226 437 c 0
 226 416 226 414 246 343 c 1
 314 343 l 2
 341 343 350 341 360 334 c 0
 373 324 381 309 381 293 c 0
 381 276 372 260 357 250 c 0
 348 245 338 243 314 243 c 2xf8
EndSplineSet
Validated: 1
EndChar

StartChar: uni0591
Encoding: 1425 1425 97
Width: 0
Flags: W
HStem: -205 145<-33.8503 34.2794>
VStem: -40 80<-139.674 -64.393>
LayerCount: 2
Fore
SplineSet
-40 -131 m 1
 -40 -100 l 2
 -40 -78 -22 -60 0 -60 c 0
 22 -60 40 -78 40 -100 c 2
 40 -131 l 1
 72 -141 100 -165 109 -199 c 0
 110 -203 111 -206 111 -210 c 0
 111 -227 99 -244 81 -248 c 1
 77 -249 74 -250 70 -250 c 0
 53 -250 37 -238 32 -220 c 0
 31 -216 21 -205 0 -205 c 0
 -22 -205 -31 -217 -32 -221 c 0
 -37 -239 -53 -251 -72 -251 c 0
 -75 -251 -78 -251 -81 -250 c 0
 -99 -246 -111 -229 -111 -211 c 0
 -111 -208 -111 -205 -110 -202 c 0
 -101 -166 -73 -141 -40 -131 c 1
EndSplineSet
Validated: 1
EndChar

StartChar: uni0592
Encoding: 1426 1426 98
Width: 0
Flags: W
HStem: 540 84<-94.6453 -22.607 23.3547 94.6453> 634 82<-36.1233 36.1233>
VStem: -100 83<545.859 618.645> -41 82<639.078 711.123> 18 82<545.341 619.123>
LayerCount: 2
Fore
SplineSet
0 634 m 0xd0
 -23 634 -41 653 -41 675 c 0
 -41 698 -23 716 0 716 c 0
 23 716 41 698 41 675 c 0
 41 653 23 634 0 634 c 0xd0
-59 540 m 0
 -82 540 -100 560 -100 583 c 0
 -100 606 -82 624 -59 624 c 0
 -36 624 -17 606 -17 583 c 0xe0
 -17 560 -36 540 -59 540 c 0
59 540 m 0
 36 540 18 560 18 583 c 0
 18 606 36 624 59 624 c 0
 82 624 100 606 100 583 c 0xc8
 100 560 82 540 59 540 c 0
EndSplineSet
Validated: 1
EndChar

StartChar: uni0593
Encoding: 1427 1427 99
Width: 0
Flags: W
HStem: 763 47<-32.8088 -19>
VStem: -111 222
LayerCount: 2
Fore
SplineSet
94 775 m 2
 105 771 111 762 111 751 c 0
 110 740 104 731 93 728 c 2
 0 699 l 1
 93 669 l 2
 104 666 111 657 111 646 c 0
 111 634 104 627 93 624 c 2
 0 593 l 1
 9 590 l 2
 20 587 26 577 26 566 c 0
 26 563 26 561 25 558 c 0
 22 547 11 541 0 541 c 0
 -2 541 -4 540 -6 541 c 2
 -93 569 l 2
 -104 572 -111 581 -111 593 c 0
 -111 604 -104 613 -93 617 c 2
 0 646 l 1
 -93 675 l 2
 -104 678 -111 687 -111 699 c 0
 -111 710 -104 719 -93 722 c 2
 8 754 l 1
 -19 763 l 2
 -29 767 -34 777 -34 787 c 0
 -34 790 -34 792 -33 795 c 0
 -29 805 -20 810 -9 810 c 0
 -6 810 -3 809 0 808 c 2
 94 775 l 2
EndSplineSet
Validated: 1
EndChar

StartChar: uni0594
Encoding: 1428 1428 100
Width: 0
Flags: W
HStem: 540 84<-35.6453 35.6453> 634 83<-35.6453 36.393>
VStem: -41 82<545.341 619.123 638.877 711.891>
LayerCount: 2
Fore
SplineSet
0 624 m 0
 23 624 41 606 41 583 c 0
 41 560 23 540 0 540 c 0
 -23 540 -41 560 -41 583 c 0
 -41 606 -23 624 0 624 c 0
0 717 m 0
 23 717 42 698 42 675 c 0
 42 652 23 634 0 634 c 0
 -23 634 -41 652 -41 675 c 0
 -41 698 -23 717 0 717 c 0
EndSplineSet
Validated: 1
EndChar

StartChar: uni0595
Encoding: 1429 1429 101
Width: 0
Flags: W
HStem: 540 177<-90.607 -19.393> 540 84<17.607 89.4283> 634 83<17.607 89.4283>
VStem: -95 80<544.393 712.607> 12 83<545.859 618.645 639.355 711.393>
LayerCount: 2
Fore
SplineSet
-15 677 m 2x98
 -15 580 l 2
 -15 558 -33 540 -55 540 c 0
 -77 540 -95 558 -95 580 c 2
 -95 677 l 2
 -95 699 -77 717 -55 717 c 0
 -33 717 -15 699 -15 677 c 2x98
54 624 m 0x58
 76 624 95 606 95 583 c 0
 95 560 76 540 54 540 c 0
 31 540 12 560 12 583 c 0
 12 606 31 624 54 624 c 0x58
54 717 m 0x38
 76 717 95 698 95 675 c 0
 95 652 76 634 54 634 c 0
 31 634 12 652 12 675 c 0
 12 698 31 717 54 717 c 0x38
EndSplineSet
Validated: 1
EndChar

StartChar: uni0596
Encoding: 1430 1430 102
Width: 0
Flags: W
HStem: -259 199<-11.8196 8.60703>
VStem: -67 80<-168.935 -64.393>
LayerCount: 2
Fore
SplineSet
53 -189 m 0
 62 -197 67 -208 67 -219 c 0
 67 -228 63 -238 56 -246 c 0
 48 -255 37 -259 26 -259 c 0
 17 -259 7 -256 0 -249 c 0
 -44 -210 -67 -158 -67 -100 c 0
 -67 -78 -49 -60 -27 -60 c 0
 -5 -60 13 -78 13 -100 c 0
 13 -137 26 -165 53 -189 c 0
EndSplineSet
Validated: 1
EndChar

StartChar: uni0597
Encoding: 1431 1431 103
Width: 0
Flags: W
HStem: 540 212
VStem: -106 212
LayerCount: 2
Fore
SplineSet
0 540 m 1
 -106 646 l 1
 0 752 l 1
 106 646 l 1
 0 540 l 1
EndSplineSet
Validated: 1
EndChar

StartChar: uni0598
Encoding: 1432 1432 104
Width: 0
Flags: W
HStem: 542 75<39.941 78.0517> 631 75<-78.0517 -39.941>
VStem: -155 75<570.016 630.265> 80 75<617.735 677.484>
LayerCount: 2
Fore
SplineSet
-155 612 m 0
 -155 659 -122 706 -71 706 c 0
 -42 706 -19 693 -5 680 c 2
 56 624 l 2
 60 620 63 617 71 617 c 1
 71 617 80 621 80 636 c 0
 80 642 79 646 77 650 c 0
 73 656 71 662 71 669 c 0
 71 681 78 694 90 701 c 0
 96 704 102 706 109 706 c 0
 122 706 135 699 142 687 c 0
 150 672 155 655 155 636 c 0
 155 589 122 542 71 542 c 0
 42 542 19 554 5 568 c 2
 -56 624 l 2
 -62 630 -61 631 -71 631 c 1
 -71 631 -80 627 -80 612 c 0
 -80 606 -79 602 -77 598 c 0
 -73 592 -71 586 -71 579 c 0
 -71 567 -78 554 -89 547 c 0
 -95 543 -102 542 -108 542 c 0
 -121 542 -134 548 -141 560 c 0
 -150 575 -155 593 -155 612 c 0
EndSplineSet
Validated: 1
EndChar

StartChar: uni0599
Encoding: 1433 1433 105
Width: 0
Flags: W
HStem: 540 199<-9.06223 11.5887>
VStem: -13 80<545.032 647.247>
LayerCount: 2
Fore
SplineSet
-54 669 m 0
 -63 677 -67 688 -67 699 c 0
 -67 709 -64 718 -57 726 c 0
 -49 735 -38 739 -27 739 c 0
 -17 739 -8 736 0 729 c 0
 43 690 67 638 67 580 c 1
 66 558 48 540 26 540 c 0
 5 540 -13 557 -13 578 c 0
 -13 579 -13 579 -13 580 c 1
 -13 617 -26 645 -54 669 c 0
EndSplineSet
Validated: 1
EndChar

StartChar: uni059A
Encoding: 1434 1434 106
Width: 0
Flags: W
HStem: -257 198<57 76>
VStem: -99 198<-192.953 -185.125 -130.875 -123.047>
LayerCount: 2
Fore
SplineSet
22 -158 m 1
 79 -186 l 2
 92 -192 99 -206 99 -219 c 0
 99 -225 98 -231 95 -237 c 0
 89 -250 76 -257 62 -257 c 0
 57 -257 51 -256 45 -253 c 2
 -79 -192 l 2
 -92 -185 -99 -173 -99 -158 c 0
 -99 -143 -92 -131 -79 -124 c 2
 45 -63 l 2
 51 -60 57 -59 62 -59 c 0
 76 -59 89 -66 95 -79 c 0
 98 -85 99 -91 99 -97 c 0
 99 -110 92 -124 79 -130 c 2
 22 -158 l 1
EndSplineSet
Validated: 1
EndChar

StartChar: uni059B
Encoding: 1435 1435 107
Width: 0
Flags: W
HStem: -143 83<-92.1759 -19.39>
VStem: -98 84<-137.645 -65.607> 18 80<-167.247 -65.8122>
LayerCount: 2
Fore
SplineSet
-56 -60 m 0
 -32 -60 -14 -79 -14 -102 c 0
 -14 -125 -32 -143 -56 -143 c 0
 -78 -143 -98 -125 -98 -102 c 0
 -98 -79 -78 -60 -56 -60 c 0
-24 -189 m 0
 4 -165 18 -137 18 -100 c 1
 16 -99 18 -98 18 -97 c 0
 18 -76 35 -60 56 -60 c 0
 78 -60 96 -78 98 -100 c 1
 96 -158 74 -210 30 -249 c 0
 23 -256 13 -259 4 -259 c 0
 -7 -259 -18 -255 -26 -246 c 0
 -34 -238 -37 -228 -37 -219 c 0
 -37 -208 -32 -197 -24 -189 c 0
EndSplineSet
Validated: 1
EndChar

StartChar: uni059C
Encoding: 1436 1436 108
Width: 0
Flags: W
HStem: 540 199<-11.8196 8.60703>
VStem: -67 80<544.393 648.935>
LayerCount: 2
Fore
SplineSet
53 669 m 0
 26 645 13 617 13 580 c 0
 13 558 -5 540 -27 540 c 0
 -49 540 -67 558 -67 580 c 0
 -67 638 -44 690 0 729 c 0
 8 736 17 739 27 739 c 0
 38 739 48 735 56 726 c 0
 63 718 67 708 67 699 c 0
 67 688 62 677 53 669 c 0
EndSplineSet
Validated: 1
EndChar

StartChar: uni059D
Encoding: 1437 1437 109
Width: 0
Flags: W
HStem: 540 199<-11.8196 8.60703>
VStem: -67 80<544.393 648.935>
LayerCount: 2
Fore
SplineSet
53 669 m 0
 26 645 13 617 13 580 c 0
 13 558 -5 540 -27 540 c 0
 -49 540 -67 558 -67 580 c 0
 -67 638 -44 690 0 729 c 0
 8 736 17 739 27 739 c 0
 38 739 48 735 56 726 c 0
 63 718 67 708 67 699 c 0
 67 688 62 677 53 669 c 0
EndSplineSet
Validated: 1
EndChar

StartChar: uni059E
Encoding: 1438 1438 110
Width: 0
Flags: W
HStem: 540 199<-78.8196 -58.393 56.1556 76.607>
VStem: -134 80<544.393 649.677> 0 81<544.846 648.935>
LayerCount: 2
Fore
SplineSet
121 669 m 0
 94 645 81 617 81 580 c 0
 81 558 63 540 41 540 c 0
 19 540 0 558 0 580 c 0
 0 638 24 690 68 729 c 0
 75 736 85 739 94 739 c 0
 105 739 116 735 124 726 c 0
 131 718 134 709 134 699 c 0
 134 688 130 677 121 669 c 0
-14 669 m 0
 -42 645 -54 617 -54 580 c 0
 -54 558 -72 540 -94 540 c 0
 -116 540 -134 558 -134 580 c 0
 -134 638 -111 690 -67 729 c 0
 -60 736 -50 739 -41 739 c 0
 -30 739 -19 735 -11 726 c 0
 -4 718 0 709 0 699 c 0
 0 688 -5 677 -14 669 c 0
EndSplineSet
Validated: 1
EndChar

StartChar: uni059F
Encoding: 1439 1439 111
Width: 0
Flags: W
HStem: 560 64<-181.963 -111.137 111.137 181.963> 707 66<-182.202 -111.851 111.851 182.202>
VStem: -254 66<629.239 701.102> -106 65<629.015 701.102> 41 65<629.015 701.102> 188 66<629.239 701.102>
LayerCount: 2
Fore
SplineSet
-49 624 m 1
 -27 602 l 2
 -19 594 -15 583 -15 573 c 0
 -15 563 -19 553 -27 545 c 0
 -35 537 -45 533 -56 533 c 0
 -66 533 -76 537 -84 545 c 2
 -106 568 l 1
 -119 562 -133 560 -147 560 c 0
 -206 560 -254 607 -254 666 c 0
 -254 725 -206 773 -147 773 c 0
 -88 773 -41 725 -41 666 c 0
 -41 651 -44 637 -49 624 c 1
-147 707 m 0
 -170 707 -188 688 -188 666 c 0
 -188 643 -170 624 -147 624 c 0
 -124 624 -106 643 -106 666 c 0
 -106 688 -124 707 -147 707 c 0
49 624 m 1
 44 637 41 651 41 666 c 0
 41 725 88 773 147 773 c 0
 206 773 254 725 254 666 c 0
 254 607 206 560 147 560 c 0
 133 560 119 562 106 568 c 1
 84 545 l 2
 76 537 66 533 56 533 c 0
 45 533 35 537 27 545 c 0
 19 553 15 563 15 573 c 0
 15 583 19 594 27 602 c 2
 49 624 l 1
147 707 m 0
 124 707 106 688 106 666 c 0
 106 643 124 624 147 624 c 0
 170 624 188 643 188 666 c 0
 188 688 170 707 147 707 c 0
EndSplineSet
Validated: 1
EndChar

StartChar: uni05A0
Encoding: 1440 1440 112
Width: 0
Flags: W
HStem: 560 64<-23.8627 46.9634> 707 66<-23.1489 47.2024>
VStem: -94 65<629.015 701.102> 53 66<629.239 701.102>
LayerCount: 2
Fore
SplineSet
-86 624 m 1
 -91 637 -94 651 -94 666 c 0
 -94 725 -47 773 12 773 c 0
 71 773 119 725 119 666 c 0
 119 607 71 560 12 560 c 0
 -2 560 -16 562 -29 568 c 1
 -51 545 l 2
 -59 537 -69 533 -80 533 c 0
 -90 533 -100 537 -108 545 c 0
 -116 553 -120 563 -120 573 c 0
 -120 583 -116 594 -108 602 c 2
 -86 624 l 1
12 707 m 0
 -11 707 -29 688 -29 666 c 0
 -29 643 -11 624 12 624 c 0
 35 624 53 643 53 666 c 0
 53 688 35 707 12 707 c 0
EndSplineSet
Validated: 1
EndChar

StartChar: uni05A1
Encoding: 1441 1441 113
Width: 0
Flags: W
HStem: 540 195<-116.188 -47.1024> 583 78<-42 35.7157>
VStem: -122 80<545.341 583 661 730.607> 40 82<669.047 729.681>
LayerCount: 2
Fore
SplineSet
-42 661 m 1x70
 -38 661 l 2x70
 3 661 33 666 40 692 c 1
 46 720 59 735 82 735 c 0xb0
 104 735 122 717 122 695 c 0
 122 651 95 613 49 595 c 0
 24 585 -4 583 -42 583 c 1x70
 -42 560 -59 540 -82 540 c 0xb0
 -104 540 -122 561 -122 583 c 2x70
 -122 695 l 2
 -122 717 -104 735 -82 735 c 0xb0
 -59 735 -42 717 -42 695 c 2
 -42 661 l 1x70
EndSplineSet
Validated: 1
EndChar

StartChar: uni05A3
Encoding: 1443 1443 114
Width: 0
Flags: W
HStem: -234 174<44.393 115.355> -234 80<-115.607 40>
VStem: -120 240<-229.355 -158.393> 40 80<-154 -64.393>
LayerCount: 2
Fore
SplineSet
40 -154 m 1x50
 40 -100 l 2
 40 -78 58 -60 80 -60 c 0
 102 -60 120 -78 120 -100 c 2x90
 120 -194 l 2
 120 -217 103 -234 80 -234 c 2xa0
 -80 -234 l 2
 -102 -234 -120 -216 -120 -194 c 0x60
 -120 -172 -102 -154 -80 -154 c 2
 40 -154 l 1x50
EndSplineSet
Validated: 1
EndChar

StartChar: uni05A4
Encoding: 1444 1444 115
Width: 0
Flags: W
HStem: -257 198<57 76>
VStem: -99 198<-192.953 -185.125 -130.875 -123.047>
LayerCount: 2
Fore
SplineSet
22 -158 m 1
 79 -186 l 2
 92 -192 99 -206 99 -219 c 0
 99 -225 98 -231 95 -237 c 0
 89 -250 76 -257 62 -257 c 0
 57 -257 51 -256 45 -253 c 2
 -79 -192 l 2
 -92 -185 -99 -173 -99 -158 c 0
 -99 -143 -92 -131 -79 -124 c 2
 45 -63 l 2
 51 -60 57 -59 62 -59 c 0
 76 -59 89 -66 95 -79 c 0
 98 -85 99 -91 99 -97 c 0
 99 -110 92 -124 79 -130 c 2
 22 -158 l 1
EndSplineSet
Validated: 1
EndChar

StartChar: uni05A5
Encoding: 1445 1445 116
Width: 0
Flags: W
HStem: -259 199<-8.79294 11.5887>
VStem: -13 80<-168.935 -64.393>
LayerCount: 2
Fore
SplineSet
-53 -189 m 0
 -26 -165 -13 -137 -13 -100 c 0
 -13 -78 4 -60 27 -60 c 0
 49 -60 67 -78 67 -100 c 0
 67 -158 43 -210 -0 -249 c 0
 -8 -256 -17 -259 -27 -259 c 0
 -38 -259 -49 -255 -57 -246 c 1
 -63 -238 -67 -229 -67 -219 c 0
 -67 -208 -62 -197 -53 -189 c 0
EndSplineSet
Validated: 1
EndChar

StartChar: uni05A6
Encoding: 1446 1446 117
Width: 0
Flags: W
HStem: -259 199<-76.607 -56.1556 58.393 78.8196>
VStem: -81 81<-168.935 -64.8462> 54 80<-169.677 -64.393>
LayerCount: 2
Fore
SplineSet
-121 -189 m 0
 -94 -165 -81 -137 -81 -100 c 0
 -81 -78 -63 -60 -41 -60 c 0
 -19 -60 0 -78 0 -100 c 0
 0 -158 -24 -210 -68 -249 c 0
 -75 -256 -85 -259 -94 -259 c 0
 -105 -259 -116 -255 -124 -246 c 0
 -131 -238 -134 -229 -134 -219 c 0
 -134 -208 -130 -197 -121 -189 c 0
14 -189 m 0
 42 -165 54 -137 54 -100 c 0
 54 -78 72 -60 94 -60 c 0
 116 -60 134 -78 134 -100 c 0
 134 -158 111 -210 67 -249 c 0
 60 -256 50 -259 41 -259 c 0
 30 -259 19 -255 11 -246 c 0
 4 -238 0 -229 0 -219 c 0
 0 -208 5 -197 14 -189 c 0
EndSplineSet
Validated: 1
EndChar

StartChar: uni05A7
Encoding: 1447 1447 118
Width: 0
Flags: W
HStem: -259 75<-115.869 -29> -135 75<29 116.255>
VStem: -120 199<-254.416 -188.828> -80 200<-131.277 -63.9358>
LayerCount: 2
Fore
SplineSet
29 -135 m 1xd0
 72 -200 l 2
 76 -207 79 -214 79 -221 c 0xe0
 79 -227 77 -233 74 -239 c 0
 67 -252 56 -259 41 -259 c 2
 -80 -259 l 2xd0
 -101 -259 -120 -242 -120 -221 c 0xe0
 -120 -200 -101 -184 -80 -184 c 2
 -29 -184 l 1
 -74 -118 l 2
 -78 -112 -80 -106 -80 -100 c 0
 -80 -93 -78 -87 -74 -80 c 0
 -67 -67 -56 -60 -41 -60 c 2
 82 -60 l 2
 103 -60 120 -77 120 -98 c 0
 120 -118 103 -135 82 -135 c 2
 29 -135 l 1xd0
EndSplineSet
Validated: 1
EndChar

StartChar: uni05A8
Encoding: 1448 1448 119
Width: 0
Flags: W
HStem: 540 199<-9.06223 11.5887>
VStem: -13 80<545.032 647.247>
LayerCount: 2
Fore
SplineSet
-54 669 m 0
 -63 677 -67 688 -67 699 c 0
 -67 709 -64 718 -57 726 c 0
 -49 735 -38 739 -27 739 c 0
 -17 739 -8 736 0 729 c 0
 43 690 67 638 67 580 c 1
 66 558 48 540 26 540 c 0
 5 540 -13 557 -13 578 c 0
 -13 579 -13 579 -13 580 c 1
 -13 617 -26 645 -54 669 c 0
EndSplineSet
Validated: 1
EndChar

StartChar: uni05A9
Encoding: 1449 1449 120
Width: 0
Flags: W
HStem: 560 64<-46.9634 23.8627> 707 66<-47.2024 23.1489>
VStem: -119 66<629.239 701.102> 29 65<629.015 701.102>
LayerCount: 2
Fore
SplineSet
86 624 m 1
 108 602 l 2
 116 594 120 583 120 573 c 0
 120 563 116 553 108 545 c 0
 100 537 90 533 80 533 c 0
 69 533 59 537 51 545 c 2
 29 568 l 1
 16 562 2 560 -12 560 c 0
 -71 560 -119 607 -119 666 c 0
 -119 725 -71 773 -12 773 c 0
 47 773 94 725 94 666 c 0
 94 651 91 637 86 624 c 1
-12 707 m 0
 -35 707 -53 688 -53 666 c 0
 -53 643 -35 624 -12 624 c 0
 11 624 29 643 29 666 c 0
 29 688 11 707 -12 707 c 0
EndSplineSet
Validated: 1
EndChar

StartChar: uni05AA
Encoding: 1450 1450 121
Width: 0
Flags: W
HStem: -250 144<-33.6827 33.6819>
VStem: -40 80<-245.607 -169.926>
LayerCount: 2
Fore
SplineSet
-40 -179 m 1
 -73 -168 -101 -144 -110 -108 c 0
 -111 -105 -111 -102 -111 -99 c 0
 -111 -81 -99 -64 -81 -60 c 0
 -78 -59 -75 -59 -72 -59 c 0
 -53 -59 -37 -71 -32 -89 c 0
 -31 -93 -22 -106 0 -106 c 0
 21 -106 31 -94 32 -89 c 0
 37 -72 53 -60 70 -60 c 0
 74 -60 77 -61 81 -62 c 1
 99 -66 111 -82 111 -100 c 0
 111 -103 110 -107 109 -111 c 0
 100 -145 72 -169 40 -179 c 1
 40 -210 l 2
 40 -232 22 -250 0 -250 c 0
 -22 -250 -40 -232 -40 -210 c 2
 -40 -179 l 1
EndSplineSet
Validated: 1
EndChar

StartChar: uni05AB
Encoding: 1451 1451 122
Width: 0
Flags: W
HStem: 538 199<56 75>
VStem: -99 198<603.031 609.875 665.094 671.969>
LayerCount: 2
Fore
SplineSet
22 637 m 1
 79 609 l 2
 92 603 99 589 99 576 c 0
 99 570 98 564 95 559 c 1
 89 546 76 538 62 538 c 0
 56 538 51 539 45 542 c 2
 -79 604 l 2
 -92 610 -99 622 -99 637 c 0
 -99 652 -92 664 -79 671 c 2
 45 733 l 2
 50 736 56 737 61 737 c 0
 75 737 89 729 95 716 c 0
 98 710 99 704 99 699 c 0
 99 685 92 672 79 666 c 2
 22 637 l 1
EndSplineSet
Validated: 1
EndChar

StartChar: uni05AC
Encoding: 1452 1452 123
Width: 0
Flags: W
HStem: 540 174<44.393 115.355> 540 80<-115.607 40>
VStem: -120 240<544.645 615.607> 40 80<620 709.607>
LayerCount: 2
Fore
SplineSet
40 620 m 1x50
 40 674 l 2
 40 696 58 714 80 714 c 0
 102 714 120 696 120 674 c 2x90
 120 580 l 2
 120 557 103 540 80 540 c 2xa0
 -80 540 l 2
 -102 540 -120 558 -120 580 c 0x60
 -120 602 -102 620 -80 620 c 2
 40 620 l 1x50
EndSplineSet
Validated: 1
EndChar

StartChar: uni05AD
Encoding: 1453 1453 124
Width: 0
Flags: W
HStem: -259 199<-11.8196 8.60703>
VStem: -67 80<-168.935 -64.393>
LayerCount: 2
Fore
SplineSet
53 -189 m 0
 62 -197 67 -208 67 -219 c 0
 67 -228 63 -238 56 -246 c 0
 48 -255 37 -259 26 -259 c 0
 17 -259 7 -256 0 -249 c 0
 -44 -210 -67 -158 -67 -100 c 0
 -67 -78 -49 -60 -27 -60 c 0
 -5 -60 13 -78 13 -100 c 0
 13 -137 26 -165 53 -189 c 0
EndSplineSet
Validated: 1
EndChar

StartChar: uni05AE
Encoding: 1454 1454 125
Width: 0
Flags: W
HStem: 542 75<39.941 78.0517> 631 75<-78.0517 -39.941>
VStem: -155 75<570.016 630.265> 80 75<617.735 677.484>
LayerCount: 2
Fore
SplineSet
-155 612 m 0
 -155 659 -122 706 -71 706 c 0
 -42 706 -19 693 -5 680 c 2
 56 624 l 2
 60 620 63 617 71 617 c 1
 71 617 80 621 80 636 c 0
 80 642 79 646 77 650 c 0
 73 656 71 662 71 669 c 0
 71 681 78 694 90 701 c 0
 96 704 102 706 109 706 c 0
 122 706 135 699 142 687 c 0
 150 672 155 655 155 636 c 0
 155 589 122 542 71 542 c 0
 42 542 19 554 5 568 c 2
 -56 624 l 2
 -62 630 -61 631 -71 631 c 1
 -71 631 -80 627 -80 612 c 0
 -80 606 -79 602 -77 598 c 0
 -73 592 -71 586 -71 579 c 0
 -71 567 -78 554 -89 547 c 0
 -95 543 -102 542 -108 542 c 0
 -121 542 -134 548 -141 560 c 0
 -150 575 -155 593 -155 612 c 0
EndSplineSet
Validated: 1
EndChar

StartChar: uni05AF
Encoding: 1455 1455 126
Width: 0
Flags: W
HStem: 540 60<-38.6483 38.6483> 692 60<-38.6483 38.6483>
VStem: -106 60<607.352 684.648> 46 60<607.352 684.648>
LayerCount: 2
Fore
SplineSet
0 752 m 0
 58 752 106 704 106 646 c 0
 106 588 58 540 0 540 c 0
 -58 540 -106 588 -106 646 c 0
 -106 704 -58 752 0 752 c 0
0 692 m 0
 -25 692 -46 671 -46 646 c 0
 -46 621 -25 600 0 600 c 0
 25 600 46 621 46 646 c 0
 46 671 25 692 0 692 c 0
EndSplineSet
Validated: 1
EndChar

StartChar: afii57799
Encoding: 1456 1456 127
Width: 0
Flags: W
HStem: -237 82<-36.1233 36.1233> -143 83<-35.6453 36.393>
VStem: -41 82<-231.922 -159.877 -138.123 -65.1086>
AnchorPoint: "M2V" -90 0 basemark 0
AnchorPoint: "N" 0 0 mark 0
LayerCount: 2
Fore
SplineSet
0 -155 m 1
 23 -155 41 -173 41 -196 c 0
 41 -218 23 -237 0 -237 c 0
 -23 -237 -41 -218 -41 -196 c 0
 -41 -173 -23 -155 0 -155 c 1
0 -60 m 0
 23 -60 42 -79 42 -102 c 0
 42 -125 23 -143 0 -143 c 0
 -23 -143 -41 -125 -41 -102 c 0
 -41 -79 -23 -60 0 -60 c 0
EndSplineSet
Validated: 1
EndChar

StartChar: afii57801
Encoding: 1457 1457 128
Width: 0
Flags: W
HStem: -236 82<-95.1233 -22.8767 81.1086 153.922> -143 83<-153.428 -81.607 -36.393 36.393 81.607 153.645>
VStem: -159 83<-137.393 -65.3547> -100 82<-231.123 -159.078> -42 84<-137.393 -65.3547> 76 83<-230.645 -159.572 -137.393 -65.3547>
AnchorPoint: "VR" -40 0.5 mark 0
AnchorPoint: "M2V" -187 0 basemark 0
AnchorPoint: "H" 0 0 mark 0
LayerCount: 2
Fore
SplineSet
-59 -154 m 0xd4
 -36 -154 -18 -173 -18 -195 c 0
 -18 -218 -36 -236 -59 -236 c 0
 -82 -236 -100 -218 -100 -195 c 0
 -100 -173 -82 -154 -59 -154 c 0xd4
118 -154 m 0
 140 -154 159 -173 159 -195 c 0
 159 -218 140 -236 118 -236 c 0
 95 -236 76 -218 76 -195 c 0
 76 -173 95 -154 118 -154 c 0
118 -60 m 0
 141 -60 159 -78 159 -101 c 0
 159 -124 141 -143 118 -143 c 0
 95 -143 76 -124 76 -101 c 0
 76 -78 95 -60 118 -60 c 0
0 -60 m 0
 23 -60 42 -78 42 -101 c 0
 42 -124 23 -143 0 -143 c 0
 -23 -143 -42 -124 -42 -101 c 0xcc
 -42 -78 -23 -60 0 -60 c 0
-118 -60 m 0
 -95 -60 -76 -78 -76 -101 c 0
 -76 -124 -95 -143 -118 -143 c 0
 -140 -143 -159 -124 -159 -101 c 0xe4
 -159 -78 -140 -60 -118 -60 c 0
EndSplineSet
Validated: 1
EndChar

StartChar: afii57800
Encoding: 1458 1458 129
Width: 0
Flags: W
HStem: -235 82<104.109 176.922> -140 80<-177.607 58.607 103.631 177.581>
VStem: -182 245<-135.607 -64.393> 99 83<-229.645 -158.355 -134.898 -63.607>
AnchorPoint: "VR" -40 0 mark 0
AnchorPoint: "M2V" -207 0 basemark 0
AnchorPoint: "H" 0 0 mark 0
LayerCount: 2
Fore
SplineSet
23 -140 m 2
 -142 -140 l 2
 -164 -140 -182 -122 -182 -100 c 4
 -182 -78 -164 -60 -142 -60 c 2
 23 -60 l 2
 45 -60 63 -78 63 -100 c 0
 63 -122 45 -140 23 -140 c 2
141 -153 m 0
 163 -153 182 -171 182 -194 c 0
 182 -217 163 -235 141 -235 c 0
 118 -235 99 -217 99 -194 c 0
 99 -171 118 -153 141 -153 c 0
141 -58 m 0
 164 -58 182 -77 182 -100 c 0
 182 -123 164 -140 141 -140 c 0
 118 -140 99 -123 99 -100 c 0
 99 -77 118 -58 141 -58 c 0
EndSplineSet
Validated: 1
EndChar

StartChar: afii57802
Encoding: 1459 1459 130
Width: 0
Flags: W
HStem: -235 82<103.877 176.123> -140 82<-176.188 -100 -20 56.1878 104.355 176.393>
VStem: -182 244<-135.607 -64.393> -100 80<-230.395 -140> 99 82<-230.123 -157.877 -135.355 -63.1086>
AnchorPoint: "VR" -40 0 mark 0
AnchorPoint: "M2V" -207 -0.5 basemark 0
AnchorPoint: "H" 0 0 mark 0
LayerCount: 2
Fore
SplineSet
140 -153 m 0xc8
 163 -153 181 -171 181 -194 c 0
 181 -217 163 -235 140 -235 c 0
 117 -235 99 -217 99 -194 c 0
 99 -171 117 -153 140 -153 c 0xc8
140 -58 m 0
 163 -58 182 -77 182 -100 c 0
 182 -123 163 -140 140 -140 c 0
 117 -140 99 -123 99 -100 c 0
 99 -77 117 -58 140 -58 c 0
-100 -140 m 1xd8
 -142 -140 l 2
 -164 -140 -182 -122 -182 -100 c 4
 -182 -78 -164 -60 -142 -60 c 2
 -60 -60 l 1
 22 -60 l 2
 44 -60 62 -78 62 -100 c 0xe8
 62 -122 44 -140 22 -140 c 2
 -20 -140 l 1
 -20 -194 l 2
 -20 -216 -38 -235 -60 -235 c 0
 -82 -235 -100 -216 -100 -194 c 2
 -100 -140 l 1xd8
EndSplineSet
Validated: 1
EndChar

StartChar: afii57793
Encoding: 1460 1460 131
Width: 0
Flags: W
HStem: -143 83<-36.393 36.393>
VStem: -42 84<-137.645 -65.607>
AnchorPoint: "J1" 150 0 mark 0
AnchorPoint: "M2V" -90 0 basemark 0
AnchorPoint: "N" 0 0 mark 0
LayerCount: 2
Fore
SplineSet
0 -60 m 0
 23 -60 42 -79 42 -102 c 0
 42 -125 23 -143 0 -143 c 0
 -23 -143 -42 -125 -42 -102 c 0
 -42 -79 -23 -60 0 -60 c 0
EndSplineSet
Validated: 1
EndChar

StartChar: afii57794
Encoding: 1461 1461 132
Width: 0
Flags: W
HStem: -142 82<-95.1233 -22.8767 22.1086 95.1233>
VStem: -100 82<-137.123 -64.8767> 17 83<-136.645 -65.3547>
AnchorPoint: "VR" -40 0 mark 0
AnchorPoint: "M2V" -150 0 basemark 0
AnchorPoint: "W" 0 0 mark 0
LayerCount: 2
Fore
SplineSet
59 -60 m 0
 82 -60 100 -78 100 -101 c 0
 100 -124 82 -142 59 -142 c 0
 36 -142 17 -124 17 -101 c 0
 17 -78 36 -60 59 -60 c 0
-59 -60 m 0
 -36 -60 -18 -78 -18 -101 c 0
 -18 -124 -36 -142 -59 -142 c 0
 -82 -142 -100 -124 -100 -101 c 0
 -100 -78 -82 -60 -59 -60 c 0
EndSplineSet
Validated: 1
EndChar

StartChar: afii57795
Encoding: 1462 1462 133
Width: 0
Flags: W
HStem: -236 82<-36.1233 36.1233> -142 82<-95.1233 -22.8767 22.1086 95.1233>
VStem: -100 82<-137.123 -64.8767> -41 82<-231.123 -159.078> 17 83<-136.645 -65.3547>
AnchorPoint: "VR" -40 0 mark 0
AnchorPoint: "M2V" -150 -1.5 basemark 0
AnchorPoint: "W" 0 0 mark 0
LayerCount: 2
Fore
SplineSet
0 -154 m 0xd0
 23 -154 41 -173 41 -195 c 0
 41 -218 23 -236 0 -236 c 0
 -23 -236 -41 -218 -41 -195 c 0
 -41 -173 -23 -154 0 -154 c 0xd0
59 -60 m 0
 82 -60 100 -78 100 -101 c 0
 100 -124 82 -142 59 -142 c 0
 36 -142 17 -124 17 -101 c 0xc8
 17 -78 36 -60 59 -60 c 0
-59 -60 m 0
 -36 -60 -18 -78 -18 -101 c 0
 -18 -124 -36 -142 -59 -142 c 0
 -82 -142 -100 -124 -100 -101 c 0xe0
 -100 -78 -82 -60 -59 -60 c 0
EndSplineSet
Validated: 1
EndChar

StartChar: afii57798
Encoding: 1463 1463 134
Width: 0
Flags: W
HStem: -140 80<-117.607 117.607>
VStem: -122 244<-135.607 -64.393>
AnchorPoint: "VR" -40 0 mark 0
AnchorPoint: "M2V" -170 0 basemark 0
AnchorPoint: "W" 0 0 mark 0
LayerCount: 2
Fore
SplineSet
82 -140 m 2
 -82 -140 l 2
 -104 -140 -122 -122 -122 -100 c 0
 -122 -78 -104 -60 -82 -60 c 2
 82 -60 l 2
 104 -60 122 -78 122 -100 c 0
 122 -122 104 -140 82 -140 c 2
EndSplineSet
Validated: 1
EndChar

StartChar: afii57797
Encoding: 1464 1464 135
Width: 0
Flags: W
HStem: -140 80<-117.607 -40 40 117.607>
VStem: -122 244<-135.607 -64.393> -40 80<-229.607 -140>
AnchorPoint: "VR" -40 0 mark 0
AnchorPoint: "M2V" -170 0 basemark 0
AnchorPoint: "W" 0 0 mark 0
LayerCount: 2
Fore
SplineSet
-40 -140 m 5xa0
 -82 -140 l 6
 -104 -140 -122 -122 -122 -100 c 4
 -122 -78 -104 -60 -82 -60 c 6
 0 -60 l 5
 82 -60 l 6
 104 -60 122 -78 122 -100 c 4xc0
 122 -122 104 -140 82 -140 c 6
 40 -140 l 5
 40 -194 l 6
 40 -216 22 -234 0 -234 c 4
 -22 -234 -40 -216 -40 -194 c 6
 -40 -140 l 5xa0
EndSplineSet
Validated: 1
EndChar

StartChar: afii57806
Encoding: 1465 1465 136
Width: 0
Flags: W
HStem: 540 84<-36.393 36.393>
VStem: -42 84<545.859 618.645>
AnchorPoint: "Holam" 0 0 mark 0
LayerCount: 2
Fore
SplineSet
0 624 m 1
 23 624 42 606 42 583 c 0
 42 560 23 540 0 540 c 0
 -23 540 -42 560 -42 583 c 0
 -42 606 -23 624 0 624 c 1
EndSplineSet
Validated: 1
EndChar

StartChar: afii57796
Encoding: 1467 1467 137
Width: 0
Flags: W
HStem: -236 82<81.1086 153.922> -189 82<-36.1233 36.1233> -142 82<-153.922 -81.1086>
VStem: -159 83<-136.645 -65.3547> -41 82<-184.123 -112.078> 76 83<-230.645 -159.572>
CounterMasks: 1 1c
AnchorPoint: "VR" -40 0 mark 0
AnchorPoint: "M2V" -200 0 basemark 0
AnchorPoint: "Q" 0 0 mark 0
LayerCount: 2
Fore
SplineSet
0 -107 m 0x5c
 23 -107 41 -126 41 -148 c 0
 41 -171 23 -189 0 -189 c 0
 -23 -189 -41 -171 -41 -148 c 0
 -41 -126 -23 -107 0 -107 c 0x5c
118 -154 m 0x9c
 140 -154 159 -173 159 -195 c 0
 159 -218 140 -236 118 -236 c 0
 95 -236 76 -218 76 -195 c 0
 76 -173 95 -154 118 -154 c 0x9c
-118 -60 m 0x3c
 -95 -60 -76 -78 -76 -101 c 0
 -76 -124 -95 -142 -118 -142 c 0
 -140 -142 -159 -124 -159 -101 c 0
 -159 -78 -140 -60 -118 -60 c 0x3c
EndSplineSet
Validated: 1
EndChar

StartChar: afii57807
Encoding: 1468 1468 138
Width: 0
Flags: W
HStem: 199 83<-36.393 36.393>
VStem: -42 84<204.355 276.393>
AnchorPoint: "D" 0 0 mark 0
LayerCount: 2
Fore
SplineSet
0 282 m 0
 23 282 42 263 42 240 c 0
 42 217 23 199 0 199 c 0
 -23 199 -42 217 -42 240 c 0
 -42 263 -23 282 0 282 c 0
EndSplineSet
Validated: 1
EndChar

StartChar: afii57839
Encoding: 1469 1469 139
Width: 0
Flags: W
HStem: -234 174<-24.8506 24.8506>
VStem: -28 56<-232.971 -61.0289>
AnchorPoint: "M1" 44.7998 0 mark 0
AnchorPoint: "M2V" 12.7998 0 mark 0
AnchorPoint: "N" -0.320312 0 mark 0
LayerCount: 2
Fore
SplineSet
28 -100 m 2
 28 -194 l 2
 28 -216 15 -234 0 -234 c 0
 -15 -234 -28 -216 -28 -194 c 2
 -28 -100 l 2
 -28 -78 -15 -60 0 -60 c 0
 15 -60 28 -78 28 -100 c 2
EndSplineSet
Validated: 1
EndChar

StartChar: afii57645
Encoding: 1470 1470 140
Width: 600
Flags: W
HStem: 380 100<68.4375 531.562>
LayerCount: 2
Fore
SplineSet
110 480 m 2
 490 480 l 2
 518 480 540 458 540 430 c 0
 540 402 518 380 490 380 c 2
 110 380 l 2
 82 380 60 402 60 430 c 0
 60 458 82 480 110 480 c 2
EndSplineSet
Validated: 1
EndChar

StartChar: afii57841
Encoding: 1471 1471 141
Width: 0
Flags: W
HStem: 540 80<-117.607 117.607>
VStem: -122 244<544.393 615.607>
LayerCount: 2
Fore
SplineSet
82 540 m 2
 -82 540 l 2
 -104 540 -122 558 -122 580 c 0
 -122 602 -104 620 -82 620 c 2
 82 620 l 2
 104 620 122 602 122 580 c 0
 122 558 104 540 82 540 c 2
EndSplineSet
Validated: 1
Substitution2: "'salt' Stylistic Alternatives lookup-1" uniFB1E
EndChar

StartChar: afii57842
Encoding: 1472 1472 142
Width: 600
Flags: W
HStem: 604 20G<292 308.5>
VStem: 250 100<-128.623 597.578>
LayerCount: 2
Fore
SplineSet
350 556 m 2
 350 -87 l 2
 350 -112 348 -122 341 -132 c 0
 331 -145 316 -153 300 -153 c 0
 283 -153 267 -144 257 -129 c 0
 252 -121 250 -110 250 -87 c 2
 250 556 l 2
 250 582 252 594 259 604 c 1
 269 616 284 624 300 624 c 0
 317 624 334 613 343 598 c 0
 348 589 350 580 350 556 c 2
EndSplineSet
Validated: 1
EndChar

StartChar: afii57804
Encoding: 1473 1473 143
Width: 0
Flags: W
HStem: 540 84<-36.61 36.1759>
VStem: -42 84<545.859 618.645>
LayerCount: 2
Fore
SplineSet
0 624 m 1
 22 624 42 606 42 583 c 0
 42 560 22 540 -0 540 c 0
 -24 540 -42 560 -42 583 c 0
 -42 606 -24 624 0 624 c 1
EndSplineSet
Validated: 1
EndChar

StartChar: afii57803
Encoding: 1474 1474 144
Width: 0
Flags: W
HStem: 540 84<-36.61 36.1759>
VStem: -42 84<545.859 618.645>
LayerCount: 2
Fore
SplineSet
0 624 m 1
 22 624 42 606 42 583 c 0
 42 560 22 540 -0 540 c 0
 -24 540 -42 560 -42 583 c 0
 -42 606 -24 624 0 624 c 1
EndSplineSet
Validated: 1
EndChar

StartChar: afii57658
Encoding: 1475 1475 145
Width: 600
Flags: W
HStem: -15 132<242.303 358.047> 304 133<242.303 358.047>
VStem: 225 150<3.02535 98.9747 322.025 418.861>
LayerCount: 2
Fore
SplineSet
309 -15 m 2
 291 -15 l 2
 255 -15 225 15 225 51 c 0
 225 87 255 117 291 117 c 2
 309 117 l 2
 346 117 375 88 375 51 c 0
 375 14 346 -15 309 -15 c 2
309 304 m 2
 291 304 l 2
 255 304 225 334 225 370 c 0
 225 407 255 437 291 437 c 2
 309 437 l 2
 346 437 375 408 375 370 c 0
 375 333 346 304 309 304 c 2
EndSplineSet
Validated: 1
EndChar

StartChar: uni05C4
Encoding: 1476 1476 146
Width: 0
Flags: W
HStem: 540 84<-36.393 36.393>
VStem: -42 84<545.859 618.645>
LayerCount: 2
Fore
SplineSet
0 624 m 0
 23 624 42 606 42 583 c 0
 42 560 23 540 0 540 c 0
 -23 540 -42 560 -42 583 c 0
 -42 606 -23 624 0 624 c 0
EndSplineSet
Validated: 1
EndChar

StartChar: afii57664
Encoding: 1488 1488 147
Width: 600
Flags: W
HStem: 0 100<160 214.562> 380 100<385.438 440>
VStem: 60 100<100 220.466> 377 163<388.438 471.562> 440 100<262.652 380>
AnchorPoint: "VR" 300 0 basechar 0
AnchorPoint: "H" 300 0 basechar 0
AnchorPoint: "W" 300 0 basechar 0
AnchorPoint: "Q" 300 0 basechar 0
AnchorPoint: "N" 300 0 basechar 0
AnchorPoint: "Holam" 45 0 basechar 0
LayerCount: 2
Fore
SplineSet
60 50 m 2xe8
 60 177 l 1
 61 250 104 292 150 319 c 1
 75 395 l 2
 65 404 60 417 60 430 c 0
 60 443 65 456 75 465 c 1
 84 475 97 480 110 480 c 0
 123 480 136 475 145 465 c 2
 374 237 l 1
 419 258 440 276 440 300 c 0
 440 301 440 302 440 303 c 1
 440 380 l 1xe8
 427 380 l 2
 399 380 377 402 377 430 c 0
 377 458 399 480 427 480 c 2
 490 480 l 2
 518 480 540 458 540 430 c 2xf0
 540 303 l 1
 538 230 495 190 448 162 c 1
 525 85 l 2
 535 76 540 63 540 50 c 0
 540 37 535 24 525 15 c 1
 516 5 503 0 490 0 c 0
 477 0 464 5 455 15 c 2
 225 244 l 1
 179 224 160 208 160 179 c 0
 160 178 160 178 160 177 c 1
 160 100 l 1
 173 100 l 2
 201 100 223 78 223 50 c 0
 223 22 201 0 173 0 c 2
 110 0 l 2
 82 0 60 22 60 50 c 2xe8
EndSplineSet
Validated: 1
Substitution2: "'jalt' Justification Alternatives lookup -1" uniFB21
EndChar

StartChar: afii57665
Encoding: 1489 1489 148
Width: 600
Flags: W
HStem: 0 100<68.4375 365 465 531.562> 380 100<68.4375 341.583>
VStem: 365 100<100 356.583>
AnchorPoint: "VR" 280 0 basechar 0
AnchorPoint: "H" 280 0 basechar 0
AnchorPoint: "W" 280 0 basechar 0
AnchorPoint: "Q" 300 0 basechar 0
AnchorPoint: "N" 300 0 basechar 0
AnchorPoint: "Holam" 50 0 basechar 0
LayerCount: 2
Fore
SplineSet
290 380 m 2
 110 380 l 2
 82 380 60 402 60 430 c 0
 60 458 82 480 110 480 c 2
 290 480 l 2
 387 480 465 402 465 305 c 2
 465 100 l 1
 490 100 l 2
 518 100 540 78 540 50 c 0
 540 22 518 0 490 0 c 2
 110 0 l 2
 82 0 60 22 60 50 c 0
 60 78 82 100 110 100 c 2
 365 100 l 1
 365 305 l 2
 365 346 331 380 290 380 c 2
EndSplineSet
Validated: 1
EndChar

StartChar: afii57666
Encoding: 1490 1490 149
Width: 600
Flags: W
HStem: 0 98<120.847 191.186> 380 100<170.438 340>
VStem: 162 278<388.438 471.562> 340 100<8.4375 102 226.602 380>
AnchorPoint: "VR" 290 0 basechar 0
AnchorPoint: "H" 280 0 basechar 0
AnchorPoint: "W" 280 0 basechar 0
AnchorPoint: "Q" 270 0 basechar 0
AnchorPoint: "N" 280 0 basechar 0
AnchorPoint: "Holam" 130 0 basechar 0
LayerCount: 2
Fore
SplineSet
340 380 m 1xd0
 212 380 l 2
 184 380 162 402 162 430 c 0
 162 458 184 480 212 480 c 2
 390 480 l 2
 418 480 440 458 440 430 c 2xe0
 440 50 l 2
 440 22 418 0 390 0 c 0
 362 0 340 22 340 50 c 2
 340 102 l 1xd0
 293 59 238 26 177 3 c 0
 172 1 167 0 162 0 c 0xe0
 142 0 122 13 114 34 c 0
 112 39 111 45 111 50 c 0
 111 71 124 90 144 98 c 0
 225 128 294 184 340 256 c 1
 340 380 l 1xd0
EndSplineSet
Validated: 1
EndChar

StartChar: afii57667
Encoding: 1491 1491 150
Width: 600
Flags: W
HStem: 0 21G<376 404> 380 100<68.4375 340 440 531.562>
VStem: 340 100<8.4375 380>
AnchorPoint: "VR" 360 0 basechar 0
AnchorPoint: "H" 380 0 basechar 0
AnchorPoint: "W" 400 0 basechar 0
AnchorPoint: "Q" 380 0 basechar 0
AnchorPoint: "N" 400 0 basechar 0
AnchorPoint: "Holam" 50 0 basechar 0
LayerCount: 2
Fore
SplineSet
340 380 m 1
 110 380 l 2
 82 380 60 402 60 430 c 0
 60 458 82 480 110 480 c 2
 490 480 l 2
 518 480 540 458 540 430 c 0
 540 402 518 380 490 380 c 2
 440 380 l 1
 440 50 l 2
 440 22 418 0 390 0 c 0
 362 0 340 22 340 50 c 2
 340 380 l 1
EndSplineSet
Validated: 1
Substitution2: "'jalt' Justification Alternatives lookup -1" uniFB22
EndChar

StartChar: afii57668
Encoding: 1492 1492 151
Width: 600
Flags: W
HStem: 0 272<110.438 193.562> 380 100<93.4375 391.583>
VStem: 102 100<8.4375 263.562> 415 100<8.4375 356.583>
AnchorPoint: "VR" 300 0 basechar 0
AnchorPoint: "H" 300 0 basechar 0
AnchorPoint: "W" 300 0 basechar 0
AnchorPoint: "Q" 300 0 basechar 0
AnchorPoint: "N" 300 0 basechar 0
AnchorPoint: "Holam" 50 0 basechar 0
LayerCount: 2
Fore
SplineSet
415 305 m 2
 415 346 381 380 340 380 c 2
 135 380 l 2
 107 380 85 402 85 430 c 0
 85 458 107 480 135 480 c 2
 340 480 l 2
 437 480 515 402 515 305 c 2
 515 50 l 2
 515 22 493 0 465 0 c 0
 437 0 415 22 415 50 c 2
 415 305 l 2
102 50 m 2
 102 222 l 2
 102 250 124 272 152 272 c 0
 180 272 202 250 202 222 c 2
 202 50 l 2
 202 22 180 0 152 0 c 0
 124 0 102 22 102 50 c 2
EndSplineSet
Validated: 1
Substitution2: "'jalt' Justification Alternatives lookup -1" uniFB23
EndChar

StartChar: afii57669
Encoding: 1493 1493 152
Width: 600
Flags: W
HStem: 0 21G<316 344> 380 100<160.438 280>
VStem: 280 100<8.4375 380>
AnchorPoint: "D" 185 0 basechar 0
AnchorPoint: "VR" 330 -0.5 basechar 0
AnchorPoint: "H" 320 -0.5 basechar 0
AnchorPoint: "W" 320 -0.5 basechar 0
AnchorPoint: "Q" 300 -0.5 basechar 0
AnchorPoint: "N" 315 -0.5 basechar 0
AnchorPoint: "Holam_Haser_on Vav" 132 0 basechar 0
LayerCount: 2
Fore
SplineSet
330 480 m 2
 358 480 380 458 380 430 c 2
 380 50 l 2
 380 22 358 0 330 0 c 0
 302 0 280 22 280 50 c 2
 280 380 l 1
 202 380 l 2
 174 380 152 402 152 430 c 0
 152 458 174 480 202 480 c 2
 330 480 l 2
EndSplineSet
Validated: 1
EndChar

StartChar: afii57670
Encoding: 1494 1494 153
Width: 600
Flags: W
HStem: 0 21G<286 314> 380 100<131.701 250 350 468.299>
VStem: 250 100<8.4375 380>
AnchorPoint: "VR" 300 0 basechar 0
AnchorPoint: "H" 295 0 basechar 0
AnchorPoint: "W" 290 0 basechar 0
AnchorPoint: "Q" 290 0 basechar 0
AnchorPoint: "N" 295 0 basechar 0
AnchorPoint: "Holam" 100 0 basechar 0
LayerCount: 2
Fore
SplineSet
250 380 m 1
 173 380 l 2
 146 380 123 402 123 430 c 0
 123 458 146 480 173 480 c 2
 427 480 l 2
 454 480 477 458 477 430 c 0
 477 402 454 380 427 380 c 2
 350 380 l 1
 350 50 l 2
 350 22 328 0 300 0 c 0
 272 0 250 22 250 50 c 2
 250 380 l 1
EndSplineSet
Validated: 1
EndChar

StartChar: afii57671
Encoding: 1495 1495 154
Width: 600
Flags: W
HStem: 0 21G<146 174 426 454> 380 100<68.4375 110 210 390 490 531.562>
VStem: 110 100<8.4375 380> 390 100<8.4375 380>
AnchorPoint: "VR" 300 0 basechar 0
AnchorPoint: "H" 300 0 basechar 0
AnchorPoint: "W" 300 0 basechar 0
AnchorPoint: "Q" 300 0 basechar 0
AnchorPoint: "N" 300 0 basechar 0
AnchorPoint: "Holam" 50 0 basechar 0
LayerCount: 2
Fore
SplineSet
490 380 m 1
 490 50 l 2
 490 22 468 0 440 0 c 0
 412 0 390 22 390 50 c 2
 390 380 l 1
 210 380 l 1
 210 50 l 2
 210 22 188 0 160 0 c 0
 132 0 110 22 110 50 c 2
 110 380 l 1
 82 380 60 402 60 430 c 0
 60 458 82 480 110 480 c 2
 490 480 l 2
 518 480 540 458 540 430 c 0
 540 402 518 380 490 380 c 1
EndSplineSet
Validated: 1
EndChar

StartChar: afii57672
Encoding: 1496 1496 155
Width: 600
Flags: W
HStem: -10 100<259.81 385.354> 380 100<68.4375 110 343.404 431.341>
VStem: 60 150<388.438 471.562> 110 100<140.969 380> 440 100<145.266 369.846>
AnchorPoint: "VR" 320 0 basechar 0
AnchorPoint: "H" 310 0 basechar 0
AnchorPoint: "W" 320 0 basechar 0
AnchorPoint: "Q" 300 0 basechar 0
AnchorPoint: "N" 320 0 basechar 0
AnchorPoint: "Holam" 50 0 basechar 0
LayerCount: 2
Fore
SplineSet
286 437 m 1xd8
 312 463 348 480 390 480 c 0
 473 480 540 423 540 340 c 2
 540 215 l 2
 540 96 444 -10 325 -10 c 0
 206 -10 110 86 110 205 c 2
 110 380 l 1xd8
 82 380 60 402 60 430 c 0xe8
 60 458 82 480 110 480 c 2xd8
 160 480 l 2
 188 480 210 458 210 430 c 2xe8
 210 205 l 2
 210 142 262 90 325 90 c 0
 388 90 440 152 440 215 c 2
 440 330 l 2
 440 358 418 380 390 380 c 0
 378 380 364 375 357 368 c 0
 347 358 334 353 322 353 c 0
 309 353 296 358 286 368 c 0
 276 378 272 390 272 402 c 0
 272 415 276 428 286 437 c 1xd8
EndSplineSet
Validated: 1
EndChar

StartChar: afii57673
Encoding: 1497 1497 156
Width: 600
Flags: W
HStem: 200 280<288.438 371.562> 380 100<160.438 280>
VStem: 280 100<208.438 380>
AnchorPoint: "VR" 320 0 basechar 0
AnchorPoint: "H" 300 0 basechar 0
AnchorPoint: "W" 300 0 basechar 0
AnchorPoint: "Q" 300 0 basechar 0
AnchorPoint: "N" 320 0 basechar 0
AnchorPoint: "Holam" 120 0 basechar 0
LayerCount: 2
Fore
SplineSet
330 480 m 2xa0
 358 480 380 458 380 430 c 2
 380 250 l 2
 380 222 358 200 330 200 c 0xa0
 302 200 280 222 280 250 c 2
 280 380 l 1
 202 380 l 2
 174 380 152 402 152 430 c 0
 152 458 174 480 202 480 c 2x60
 330 480 l 2xa0
EndSplineSet
Validated: 1
EndChar

StartChar: afii57674
Encoding: 1498 1498 157
Width: 600
Flags: W
HStem: -200 100<410 501.562> 380 100<38.4375 310 410 501.562>
VStem: 310 100<-100 380>
AnchorPoint: "VR" 70 0 basechar 0
AnchorPoint: "H" 110 0 basechar 0
AnchorPoint: "W" 160 0 basechar 0
AnchorPoint: "Q" 130 0 basechar 0
AnchorPoint: "N" 230 0 basechar 0
AnchorPoint: "Holam" 20 0 basechar 0
LayerCount: 2
Fore
SplineSet
310 -150 m 2
 310 380 l 1
 80 380 l 2
 52 380 30 402 30 430 c 0
 30 458 52 480 80 480 c 2
 460 480 l 2
 488 480 510 458 510 430 c 0
 510 402 488 380 460 380 c 2
 410 380 l 1
 410 -100 l 1
 460 -100 l 2
 488 -100 510 -122 510 -150 c 0
 510 -178 488 -200 460 -200 c 2
 360 -200 l 2
 332 -200 310 -178 310 -150 c 2
EndSplineSet
Validated: 1
EndChar

StartChar: afii57675
Encoding: 1499 1499 158
Width: 600
Flags: W
HStem: 0 100<88.4375 359.304> 380 100<88.4375 359.304>
VStem: 400 100<140.696 339.304>
AnchorPoint: "VR" 290 0 basechar 0
AnchorPoint: "H" 250 0 basechar 0
AnchorPoint: "W" 250 0 basechar 0
AnchorPoint: "Q" 250 0 basechar 0
AnchorPoint: "N" 250 0 basechar 0
AnchorPoint: "Holam" 50 0 basechar 0
LayerCount: 2
Fore
SplineSet
300 0 m 2
 130 0 l 2
 102 0 80 22 80 50 c 0
 80 78 102 100 130 100 c 2
 300 100 l 2
 355 100 400 145 400 200 c 2
 400 280 l 2
 400 335 355 380 300 380 c 2
 130 380 l 2
 102 380 80 402 80 430 c 0
 80 458 102 480 130 480 c 2
 300 480 l 2
 410 480 500 390 500 280 c 2
 500 200 l 2
 500 90 410 0 300 0 c 2
EndSplineSet
Validated: 1
Substitution2: "'jalt' Justification Alternatives lookup -1" uniFB24
EndChar

StartChar: afii57676
Encoding: 1500 1500 159
Width: 600
Flags: W
HStem: 0 100<350 410.562> 380 250<118.438 201.562> 380 100<210 440>
VStem: 110 100<480 621.562> 250 169<8.4375 91.5625>
AnchorPoint: "J1" 25 0 basechar 0
AnchorPoint: "VR" 350 0 basechar 0
AnchorPoint: "H" 350 0 basechar 0
AnchorPoint: "W" 330 0 basechar 0
AnchorPoint: "Q" 350 0 basechar 0
AnchorPoint: "N" 330 0 basechar 0
AnchorPoint: "Holam" 45 0 basechar 0
LayerCount: 2
Fore
SplineSet
350 114 m 1xb8
 350 100 l 1
 369 100 l 2
 397 100 419 78 419 50 c 0
 419 22 397 0 369 0 c 2
 300 0 l 2
 272 0 250 22 250 50 c 2
 250 135 l 2
 250 149 256 162 265 171 c 2
 440 345 l 1
 440 380 l 1xb8
 160 380 l 2
 132 380 110 402 110 430 c 2
 110 580 l 2
 110 608 132 630 160 630 c 0xd8
 188 630 210 608 210 580 c 2
 210 480 l 1
 490 480 l 2
 518 480 540 458 540 430 c 2
 540 325 l 2
 540 312 536 301 528 292 c 2
 350 114 l 1xb8
EndSplineSet
Validated: 1
Substitution2: "'jalt' Justification Alternatives lookup -1" uniFB25
EndChar

StartChar: afii57677
Encoding: 1501 1501 160
Width: 600
Flags: W
HStem: 0 100<210 440> 380 100<68.4375 110 210 416.583>
VStem: 110 100<100 380> 440 100<100 356.583>
AnchorPoint: "VR" 320 0 basechar 0
AnchorPoint: "H" 330 0 basechar 0
AnchorPoint: "W" 320 0 basechar 0
AnchorPoint: "Q" 320 0 basechar 0
AnchorPoint: "N" 314 0 basechar 0
AnchorPoint: "Holam" 50 0 basechar 0
LayerCount: 2
Fore
SplineSet
110 380 m 1
 82 380 60 402 60 430 c 0
 60 458 82 480 110 480 c 2
 365 480 l 2
 462 480 540 402 540 305 c 2
 540 50 l 2
 540 22 518 0 490 0 c 2
 160 0 l 2
 132 0 110 22 110 50 c 2
 110 380 l 1
210 380 m 1
 210 100 l 1
 440 100 l 1
 440 305 l 2
 440 346 406 380 365 380 c 2
 210 380 l 1
EndSplineSet
Validated: 1
Substitution2: "'jalt' Justification Alternatives lookup -1" uniFB26
EndChar

StartChar: afii57678
Encoding: 1502 1502 161
Width: 600
Flags: W
HStem: -0 100<278.438 440> 380 100<68.4375 110 258.856 390.19>
VStem: 110 100<8.4375 331.349> 270 270<8.4375 91.5625> 440 100<100 329.031>
AnchorPoint: "VR" 320 0 basechar 0
AnchorPoint: "H" 320 0 basechar 0
AnchorPoint: "W" 310 0 basechar 0
AnchorPoint: "Q" 320 0 basechar 0
AnchorPoint: "N" 300 2 basechar 0
AnchorPoint: "Holam" 50 0 basechar 0
LayerCount: 2
Fore
SplineSet
208 445 m 1xe8
 241 467 282 480 325 480 c 0
 444 480 540 384 540 265 c 2xe8
 540 50 l 2
 540 22 518 -0 490 -0 c 2
 320 -0 l 2
 292 -0 270 22 270 50 c 0xf0
 270 78 292 100 320 100 c 2
 440 100 l 1
 440 265 l 2
 440 328 388 380 325 380 c 0
 262 380 210 328 210 265 c 2
 210 50 l 2
 210 22 188 -0 160 -0 c 0
 132 -0 110 22 110 50 c 2
 110 380 l 1
 82 380 60 402 60 430 c 0
 60 458 82 480 110 480 c 2
 160 480 l 2
 182 480 201 465 208 445 c 1xe8
EndSplineSet
Validated: 1
EndChar

StartChar: afii57679
Encoding: 1503 1503 162
Width: 600
Flags: W
HStem: -201 100<433 524.562> 379 100<241.438 333>
VStem: 333 200<-192.562 -109.438> 333 100<-101 379>
AnchorPoint: "VR" 100 0 basechar 0
AnchorPoint: "H" 120 0 basechar 0
AnchorPoint: "W" 190 0 basechar 0
AnchorPoint: "Q" 170 0 basechar 0
AnchorPoint: "N" 220 0 basechar 0
AnchorPoint: "Holam" 200 0 basechar 0
LayerCount: 2
Fore
SplineSet
433 429 m 2xd0
 433 -101 l 1xd0
 483 -101 l 2
 511 -101 533 -123 533 -151 c 0
 533 -179 511 -201 483 -201 c 2
 383 -201 l 2
 355 -201 333 -179 333 -151 c 2xe0
 333 379 l 1
 283 379 l 2
 255 379 233 401 233 429 c 0
 233 457 255 479 283 479 c 2
 383 479 l 2
 411 479 433 457 433 429 c 2xd0
EndSplineSet
Validated: 1
EndChar

StartChar: afii57680
Encoding: 1504 1504 163
Width: 600
Flags: W
HStem: 0 100<188.438 320> 380 100<188.438 296.583>
VStem: 180 240<8.4375 91.5625> 320 100<100 356.583>
AnchorPoint: "VR" 300 0 basechar 0
AnchorPoint: "H" 300 0 basechar 0
AnchorPoint: "W" 300 0 basechar 0
AnchorPoint: "Q" 303 0 basechar 0
AnchorPoint: "N" 300 0 basechar 0
AnchorPoint: "Holam" 150 0 basechar 0
LayerCount: 2
Fore
SplineSet
230 100 m 2xe0
 320 100 l 1
 320 305 l 2xd0
 320 346 286 380 245 380 c 2
 230 380 l 2
 202 380 180 402 180 430 c 0xe0
 180 458 202 480 230 480 c 2
 245 480 l 2
 342 480 420 402 420 305 c 2xd0
 420 50 l 2
 420 22 398 0 370 0 c 2
 230 0 l 2
 202 0 180 22 180 50 c 0
 180 78 202 100 230 100 c 2xe0
EndSplineSet
Validated: 1
EndChar

StartChar: afii57681
Encoding: 1505 1505 164
Width: 600
Flags: W
HStem: -10 100<259.81 390.19> 380 100<68.4375 110 210 416.583>
VStem: 110 100<140.969 380> 440 100<140.969 356.583>
AnchorPoint: "VR" 320 0 basechar 0
AnchorPoint: "H" 320 0 basechar 0
AnchorPoint: "W" 315 0 basechar 0
AnchorPoint: "Q" 300 -1 basechar 0
AnchorPoint: "N" 315 0 basechar 0
AnchorPoint: "Holam" 50 0 basechar 0
LayerCount: 2
Fore
SplineSet
210 380 m 1
 210 205 l 2
 210 142 262 90 325 90 c 0
 388 90 440 142 440 205 c 2
 440 305 l 2
 440 346 406 380 365 380 c 2
 210 380 l 1
110 380 m 1
 82 380 60 402 60 430 c 0
 60 458 82 480 110 480 c 2
 365 480 l 2
 462 480 540 402 540 305 c 2
 540 205 l 2
 540 86 444 -10 325 -10 c 0
 206 -10 110 86 110 205 c 2
 110 380 l 1
EndSplineSet
Validated: 1
EndChar

StartChar: afii57682
Encoding: 1506 1506 165
Width: 600
Flags: W
HStem: 0 100<68.4375 130 230 339.031> 380 100<68.4375 130 328.438 390>
VStem: 60 170<388.438 471.562> 130 100<100 380> 320 170<388.438 471.562> 390 100<150.969 380>
AnchorPoint: "VR" 280 0 basechar 0
AnchorPoint: "H" 270 0 basechar 0
AnchorPoint: "W" 260 0 basechar 0
AnchorPoint: "Q" 270 0 basechar 0
AnchorPoint: "N" 250 0 basechar 0
AnchorPoint: "Holam" 50 0 basechar 0
LayerCount: 2
Fore
SplineSet
275 0 m 2xc4
 110 0 l 2
 82 0 60 22 60 50 c 0xe4
 60 78 82 100 110 100 c 2
 130 100 l 1
 130 380 l 1xd0
 110 380 l 2
 82 380 60 402 60 430 c 0
 60 458 82 480 110 480 c 2
 180 480 l 2
 208 480 230 458 230 430 c 2xe0
 230 100 l 1
 275 100 l 1
 338 100 390 152 390 215 c 2
 390 380 l 1xd4
 370 380 l 2
 342 380 320 402 320 430 c 0
 320 458 342 480 370 480 c 2
 440 480 l 2
 468 480 490 458 490 430 c 2xc8
 490 215 l 2
 490 96 394 0 275 0 c 2xc4
EndSplineSet
Validated: 1
Substitution2: "'salt' Stylistic Alternatives lookup-1" uniFB20
Substitution2: "Alternate Ayin Substitution-1" uniFB20
EndChar

StartChar: afii57683
Encoding: 1507 1507 166
Width: 600
Flags: W
HStem: -200 100<490 531.562> 140 100<174.552 261.562> 380 100<160 366.583>
VStem: 60 100<250.688 380> 390 150<-191.562 -108.438> 390 100<-100 356.583>
AnchorPoint: "VR" 150 0 basechar 0
AnchorPoint: "H" 185 0 basechar 0
AnchorPoint: "W" 220 0 basechar 0
AnchorPoint: "Q" 200 0 basechar 0
AnchorPoint: "N" 300 0 basechar 0
AnchorPoint: "Holam" 50 0 basechar 0
LayerCount: 2
Fore
SplineSet
213 240 m 2xf4
 220 240 l 2
 248 240 270 218 270 190 c 0
 270 162 248 140 220 140 c 2
 213 140 l 2
 116 140 60 218 60 315 c 2
 60 430 l 2
 60 458 82 480 110 480 c 2
 315 480 l 2
 412 480 490 402 490 305 c 2
 490 -100 l 1xf4
 518 -100 540 -122 540 -150 c 0xf8
 540 -178 518 -200 490 -200 c 2xf4
 440 -200 l 2
 412 -200 390 -178 390 -150 c 2xf8
 390 305 l 2
 390 346 356 380 315 380 c 2
 160 380 l 1
 160 315 l 2
 160 274 172 240 213 240 c 2xf4
EndSplineSet
Validated: 1
EndChar

StartChar: afii57684
Encoding: 1508 1508 167
Width: 600
Flags: W
HStem: 0 100<68.4375 366.583> 190 100<160 244.18> 380 100<160 366.583>
VStem: 60 100<290 380> 390 100<123.417 356.583>
CounterMasks: 1 e0
AnchorPoint: "VR" 290 0 basechar 0
AnchorPoint: "H" 250 0 basechar 0
AnchorPoint: "W" 250 0 basechar 0
AnchorPoint: "Q" 300 0 basechar 0
AnchorPoint: "N" 270 0 basechar 0
AnchorPoint: "Holam" 50 0 basechar 0
LayerCount: 2
Fore
SplineSet
135 190 m 2
 94 191 60 222 60 265 c 2
 60 430 l 2
 60 458 82 480 110 480 c 2
 315 480 l 2
 412 480 490 402 490 305 c 2
 490 175 l 2
 490 78 412 0 315 0 c 2
 110 0 l 2
 82 0 60 22 60 50 c 0
 60 78 82 100 110 100 c 2
 315 100 l 2
 356 100 390 134 390 175 c 2
 390 305 l 2
 390 346 356 380 315 380 c 2
 160 380 l 1
 160 290 l 1
 204 288 l 2
 232 288 254 266 254 238 c 0
 254 210 232 190 204 190 c 2
 135 190 l 2
EndSplineSet
Validated: 1
EndChar

StartChar: afii57685
Encoding: 1509 1509 168
Width: 600
Flags: W
HStem: -200 100<230 301.562> 100 100<230 369.031> 380 100<68.4375 130 358.438 420>
VStem: 60 170<388.438 471.562> 130 180<-191.562 -108.438> 130 100<-100 100 200 380> 350 170<388.438 471.562> 420 100<250.969 380>
AnchorPoint: "M1" 93 0 basechar 0
AnchorPoint: "H" 413 87 basechar 0
AnchorPoint: "W" 447 10 basechar 0
AnchorPoint: "Q" 423 40 basechar 0
AnchorPoint: "N" 370 0 basechar 0
AnchorPoint: "Holam" 50 0 basechar 0
LayerCount: 2
Fore
SplineSet
305 200 m 2xe4
 368 200 420 252 420 315 c 2
 420 380 l 1xe5
 400 380 l 2
 372 380 350 402 350 430 c 0
 350 458 372 480 400 480 c 2
 470 480 l 2
 498 480 520 458 520 430 c 2xe2
 520 315 l 2
 520 196 424 100 305 100 c 2
 230 100 l 1
 230 -100 l 1xe5
 260 -100 l 2
 288 -100 310 -122 310 -150 c 0
 310 -178 288 -200 260 -200 c 2
 180 -200 l 2
 152 -200 130 -178 130 -150 c 2xe8
 130 380 l 1xe4
 110 380 l 2
 82 380 60 402 60 430 c 0
 60 458 82 480 110 480 c 2
 180 480 l 2
 208 480 230 458 230 430 c 2xf0
 230 200 l 1
 305 200 l 2xe4
EndSplineSet
Validated: 1
EndChar

StartChar: afii57686
Encoding: 1510 1510 169
Width: 600
Flags: W
HStem: 0 100<68.4375 412> 380 100<68.4375 130 358.438 420>
VStem: 60 170<388.438 471.562> 130 100<329.098 380> 350 170<388.438 471.562> 420 100<313.956 380>
AnchorPoint: "VR" 280 0 basechar 0
AnchorPoint: "H" 290 0 basechar 0
AnchorPoint: "W" 270 0 basechar 0
AnchorPoint: "Q" 280 0 basechar 0
AnchorPoint: "N" 280 0 basechar 0
AnchorPoint: "Holam" 50 0 basechar 0
LayerCount: 2
Fore
SplineSet
442 214 m 1xc4
 488 182 520 129 520 69 c 2
 520 50 l 2
 520 22 498 0 470 0 c 2
 110 0 l 2
 82 0 60 22 60 50 c 0xe4
 60 78 82 100 110 100 c 2
 412 100 l 1
 407 111 399 121 389 129 c 1
 213 231 l 1
 163 262 130 317 130 380 c 1xd0
 110 380 l 2
 82 380 60 402 60 430 c 0
 60 458 82 480 110 480 c 2
 180 480 l 2
 208 480 230 458 230 430 c 2xe0
 230 380 l 2
 230 353 244 329 266 316 c 2
 343 271 l 1
 395 291 420 337 420 380 c 1xd4
 400 380 l 2
 372 380 350 402 350 430 c 0
 350 458 372 480 400 480 c 2
 470 480 l 2
 498 480 520 458 520 430 c 2xc8
 520 380 l 2
 520 313 489 253 442 214 c 1xc4
EndSplineSet
Validated: 1
EndChar

StartChar: afii57687
Encoding: 1511 1511 170
Width: 600
Flags: W
HStem: 0 100<375 435.562> 380 100<93.4375 415>
VStem: 105 100<-191.562 291.562> 275 169<8.4375 91.5625> 415 100<296 380>
AnchorPoint: "M1" 75 0 basechar 0
AnchorPoint: "H" 400 0 basechar 0
AnchorPoint: "W" 345 0 basechar 0
AnchorPoint: "Q" 380 0 basechar 0
AnchorPoint: "N" 325 0 basechar 0
AnchorPoint: "Holam" 75 0 basechar 0
LayerCount: 2
Fore
SplineSet
135 380 m 2xe8
 107 380 85 402 85 430 c 0
 85 458 107 480 135 480 c 2
 465 480 l 2
 493 480 515 458 515 430 c 2
 515 276 l 2xe8
 515 263 511 252 503 243 c 2
 375 114 l 1
 375 100 l 1
 394 100 l 2
 422 100 444 78 444 50 c 0
 444 22 422 0 394 0 c 2
 325 0 l 2
 297 0 275 22 275 50 c 2
 275 135 l 2xf0
 275 149 281 162 290 171 c 2
 415 296 l 1
 415 380 l 1
 135 380 l 2xe8
205 250 m 2
 205 -150 l 2
 205 -178 183 -200 155 -200 c 0
 127 -200 105 -178 105 -150 c 2
 105 250 l 2
 105 278 127 300 155 300 c 0
 183 300 205 278 205 250 c 2
EndSplineSet
Validated: 1
EndChar

StartChar: afii57688
Encoding: 1512 1512 171
Width: 600
Flags: W
HStem: 0 21G<446 474> 380 100<88.4375 386.583>
VStem: 410 100<8.4375 356.583>
AnchorPoint: "VR" 385 0 basechar 0
AnchorPoint: "H" 420 0 basechar 0
AnchorPoint: "W" 450 0 basechar 0
AnchorPoint: "Q" 440 0 basechar 0
AnchorPoint: "N" 450 0 basechar 0
AnchorPoint: "Holam" 60 0 basechar 0
LayerCount: 2
Fore
SplineSet
410 305 m 2
 410 346 376 380 335 380 c 2
 130 380 l 2
 102 380 80 402 80 430 c 0
 80 458 102 480 130 480 c 2
 335 480 l 2
 432 480 510 402 510 305 c 2
 510 50 l 2
 510 22 488 0 460 0 c 0
 432 0 410 22 410 50 c 2
 410 305 l 2
EndSplineSet
Validated: 1
Substitution2: "'jalt' Justification Alternatives lookup -1" uniFB27
EndChar

StartChar: afii57689
Encoding: 1513 1513 172
Width: 600
Flags: W
HStem: 0 100<183.417 250 350 416.583>
VStem: 60 100<123.417 471.562> 250 100<100 471.562> 440 100<123.417 471.562>
CounterMasks: 1 70
AnchorPoint: "VR" 300 0 basechar 0
AnchorPoint: "H" 300 0 basechar 0
AnchorPoint: "W" 300 0 basechar 0
AnchorPoint: "Q" 300 0 basechar 0
AnchorPoint: "N" 300 0 basechar 0
AnchorPoint: "Holam" 45 30 basechar 0
LayerCount: 2
Fore
SplineSet
250 100 m 1
 250 430 l 2
 250 458 272 480 300 480 c 0
 328 480 350 458 350 430 c 2
 350 100 l 1
 365 100 l 2
 406 100 440 134 440 175 c 2
 440 430 l 2
 440 458 462 480 490 480 c 0
 518 480 540 458 540 430 c 2
 540 175 l 2
 540 78 462 0 365 0 c 2
 235 0 l 2
 138 0 60 78 60 175 c 2
 60 430 l 2
 60 458 82 480 110 480 c 0
 138 480 160 458 160 430 c 2
 160 175 l 2
 160 134 194 100 235 100 c 2
 250 100 l 1
EndSplineSet
Validated: 1
EndChar

StartChar: afii57690
Encoding: 1514 1514 173
Width: 600
Flags: W
HStem: 0 100<68.4375 120> 380 100<68.4375 120 220 386.583>
VStem: 60 160<8.4375 91.5625> 120 100<100 380> 410 100<8.4375 356.583>
AnchorPoint: "Holam" 45 0 basechar 0
AnchorPoint: "N" 300 0 basechar 0
AnchorPoint: "Q" 300 0 basechar 0
AnchorPoint: "W" 290 0 basechar 0
AnchorPoint: "H" 300 0 basechar 0
AnchorPoint: "VR" 300 0 basechar 0
LayerCount: 2
Fore
SplineSet
220 380 m 1xd8
 220 50 l 2
 220 22 198 0 170 0 c 2
 110 0 l 2
 82 0 60 22 60 50 c 0xe8
 60 78 82 100 110 100 c 2
 120 100 l 1
 120 380 l 1xd8
 110 380 l 2
 82 380 60 402 60 430 c 0xe8
 60 458 82 480 110 480 c 2
 335 480 l 2
 432 480 510 402 510 305 c 2
 510 50 l 2
 510 22 488 0 460 0 c 0
 432 0 410 22 410 50 c 2
 410 305 l 2
 410 346 376 380 335 380 c 2
 220 380 l 1xd8
EndSplineSet
Validated: 1
Substitution2: "'jalt' Justification Alternatives lookup -1" uniFB28
EndChar

StartChar: uni05F3
Encoding: 1523 1523 177
Width: 600
Flags: W
HStem: 315 289<276 307.139>
VStem: 250 120
LayerCount: 2
Fore
SplineSet
276 604 m 1
 370 604 l 1
 310 351 l 1
 307 326 298 315 280 315 c 0
 262 315 253 326 250 351 c 1
 276 604 l 1
EndSplineSet
Validated: 1
EndChar

StartChar: uni05F4
Encoding: 1524 1524 178
Width: 600
Flags: W
HStem: 315 289<184 215.139 364 395.139>
VStem: 158 300
LayerCount: 2
Fore
SplineSet
184 604 m 1
 278 604 l 1
 218 351 l 1
 215 326 206 315 188 315 c 0
 170 315 161 326 158 351 c 1
 184 604 l 1
364 604 m 1
 458 604 l 1
 398 351 l 1
 395 326 386 315 368 315 c 0
 350 315 341 326 338 351 c 1
 364 604 l 1
EndSplineSet
Validated: 1
EndChar

StartChar: endash
Encoding: 8211 8211 183
Width: 600
Flags: W
HStem: 229 100<66.4212 533.622>
LayerCount: 2
Fore
SplineSet
492 229 m 2
 108 229 l 2
 83 229 72 231 63 238 c 0
 50 248 42 263 42 279 c 0
 42 296 51 312 66 322 c 0
 75 328 83 329 108 329 c 2
 492 329 l 2
 518 329 528 327 538 320 c 0
 551 310 558 295 558 279 c 0
 558 262 549 245 534 236 c 0
 526 231 514 229 492 229 c 2
EndSplineSet
Validated: 1
EndChar

StartChar: emdash
Encoding: 8212 8212 184
Width: 600
Flags: W
HStem: 229 100<-4.57879 604.622>
LayerCount: 2
Fore
SplineSet
563 229 m 2
 37 229 l 2
 12 229 1 231 -8 238 c 0
 -21 248 -29 264 -29 279 c 0
 -29 296 -20 313 -5 322 c 0
 4 328 12 329 37 329 c 2
 563 329 l 2
 589 329 599 327 608 320 c 0
 622 310 629 295 629 279 c 0
 629 262 620 245 605 236 c 0
 597 231 585 229 563 229 c 2
EndSplineSet
Validated: 1
EndChar

StartChar: afii00208
Encoding: 8213 8213 185
Width: 600
Flags: W
HStem: 229 100<-4.57879 604.622>
LayerCount: 2
Fore
SplineSet
563 229 m 2
 37 229 l 2
 12 229 1 231 -8 238 c 0
 -21 248 -29 264 -29 279 c 0
 -29 296 -20 313 -5 322 c 0
 4 328 12 329 37 329 c 2
 563 329 l 2
 589 329 599 327 608 320 c 0
 622 310 629 295 629 279 c 0
 629 262 620 245 605 236 c 0
 597 231 585 229 563 229 c 2
EndSplineSet
Validated: 1
EndChar

StartChar: quoteright
Encoding: 8217 8217 186
Width: 600
Flags: HW
LayerCount: 2
Fore
SplineSet
219 623 m 1
 351 623 l 1
 210 355 l 2
 202 339 190 331 178 331 c 0
 161 331 147 344 147 359 c 0
 147 365 147 367 150 378 c 2
 219 623 l 1
EndSplineSet
EndChar

StartChar: quotesinglbase
Encoding: 8218 8218 187
Width: 600
Flags: HW
LayerCount: 2
Fore
SplineSet
219 134 m 1
 351 134 l 1
 210 -134 l 2
 202 -150 190 -158 178 -158 c 0
 161 -158 147 -145 147 -130 c 0
 147 -124 147 -122 150 -111 c 2
 219 134 l 1
EndSplineSet
EndChar

StartChar: quotedblright
Encoding: 8221 8221 188
Width: 600
Flags: W
HStem: 582 20<159 291 291 291 359 491 491 491>
LayerCount: 2
Fore
SplineSet
159 602 m 1
 291 602 l 1
 150 372 l 2
 139 354 131 348 118 348 c 0
 102 348 87 361 87 376 c 0
 87 381 88 389 90 395 c 2
 159 602 l 1
359 602 m 1
 491 602 l 1
 350 372 l 2
 339 354 331 348 318 348 c 0
 302 348 287 361 287 376 c 0
 287 381 288 389 290 395 c 2
 359 602 l 1
EndSplineSet
EndChar

StartChar: quotedblbase
Encoding: 8222 8222 189
Width: 600
Flags: HW
LayerCount: 2
Fore
SplineSet
159 134 m 1
 291 134 l 1
 150 -96 l 2
 139 -114 131 -120 118 -120 c 0
 102 -120 87 -107 87 -92 c 0
 87 -87 88 -79 90 -73 c 2
 159 134 l 1
359 134 m 1
 491 134 l 1
 350 -96 l 2
 339 -114 331 -120 318 -120 c 0
 302 -120 287 -107 287 -92 c 0
 287 -87 288 -79 290 -73 c 2
 359 134 l 1
EndSplineSet
EndChar

StartChar: afii57636
Encoding: 8362 8362 190
Width: 600
Flags: W
HStem: 0 284<182.438 265.562> 0 100<274 466.396> 380 100<122 307.806>
VStem: 22 100<8.4375 380> 174 100<100 275.562> 326 100<192.438 360.164> 478 100<112.639 471.562>
LayerCount: 2
Fore
SplineSet
478 145 m 1x7e
 478 430 l 2
 478 458 500 480 528 480 c 0
 556 480 578 458 578 430 c 2
 578 145 l 1
 578 143 578 140 578 137 c 0
 578 106 567 62 532 35 c 1
 497 6 456 -0 423 -0 c 0
 420 -0 417 -0 414 0 c 1
 174 0 l 1x7e
 174 234 l 2
 174 262 196 284 224 284 c 0xbe
 252 284 274 262 274 234 c 2
 274 100 l 1
 414 100 l 1
 448 101 454 102 467 112 c 1
 480 126 476 116 478 145 c 1x7e
426 303 m 1
 426 234 l 2
 426 206 404 184 376 184 c 0
 348 184 326 206 326 234 c 2
 326 303 l 1
 324 342 327 340 306 360 c 1
 283 378 271 379 224 380 c 1
 122 380 l 1
 122 50 l 2
 122 22 100 0 72 0 c 0
 44 0 22 22 22 50 c 2
 22 480 l 1
 224 480 l 1
 227 480 231 480 234 480 c 0
 280 480 328 473 370 437 c 1
 414 403 426 352 426 312 c 0
 426 309 426 306 426 303 c 1
EndSplineSet
Validated: 1
EndChar

StartChar: Euro
Encoding: 8364 8364 191
Width: 600
Flags: W
HStem: -14 100<244.069 423.026> 205 56<4.46289 59 174 367.537> 303 56<4.46289 59 173 395.535> 367 216<443.229 515.574> 497 100<241.077 391.378>
VStem: 59 110<163.097 205 261 303 359 415.104> 434 90<388.423 460.623>
LayerCount: 2
Fore
SplineSet
173 359 m 1xee
 368 359 l 2
 386 359 396 349 396 331 c 0
 396 313 386 303 368 303 c 2
 169 303 l 1
 169 261 l 1
 341 261 l 2
 359 261 368 251 368 233 c 0
 368 215 358 205 341 205 c 2
 174 205 l 1
 190 130 247 86 329 86 c 0
 367 86 404 95 426 109 c 0
 436 115 436 115 461 143 c 0
 471 154 481 159 492 159 c 0
 517 159 538 136 538 109 c 0
 538 86 521 60 490 36 c 0
 451 5 389 -14 325 -14 c 0
 187 -14 84 72 62 205 c 1
 31 205 l 2
 14 205 4 215 4 233 c 0
 4 251 13 261 31 261 c 2
 59 261 l 1
 59 303 l 1
 31 303 l 2
 14 303 4 313 4 331 c 0
 4 349 13 359 31 359 c 2
 62 359 l 1
 78 498 179 597 305 597 c 0xee
 351 597 384 589 434 563 c 1
 441 559 l 1
 453 576 463 583 479 583 c 0
 495 583 509 574 518 559 c 0
 523 550 524 542 524 517 c 2
 524 433 l 2
 524 408 522 397 516 388 c 0
 507 375 493 367 479 367 c 0xf6
 453 367 440 382 434 420 c 0
 431 444 421 457 395 473 c 0
 371 488 338 497 309 497 c 0
 240 497 188 444 173 359 c 1xee
EndSplineSet
Validated: 1
EndChar

StartChar: SF110000
Encoding: 9474 9474 192
Width: 600
Flags: W
VStem: 280 40<-259.993 859.993>
LayerCount: 2
Fore
SplineSet
320 833 m 2
 320 -233 l 2
 320 -251 313 -260 300 -260 c 0
 287 -260 280 -251 280 -233 c 2
 280 833 l 2
 280 851 287 860 300 860 c 0
 313 860 320 851 320 833 c 2
EndSplineSet
Validated: 1
EndChar

StartChar: uni25CC
Encoding: 9676 9676 193
Width: 600
Flags: W
HStem: 0 83<238.374 362.624> 41 122<138.291 174.376 423.972 461> 172 138<66.3246 136.403 463.855 531.941> 322 121<140.894 176.875 421.54 458.091> 401 78<236.123 363.008>
VStem: 59 82<177.324 276> 100 120<79.7605 117.386 365.313 400.871> 232 136<7.06905 78.4033 404.85 473.281> 380 120<80.302 118.547 363.594 401.201> 459 80<178.392 304.158>
LayerCount: 2
Fore
SplineSet
156 48 m 1x63
 137 62 117 84 109 95 c 0
 103 104 100 113 100 121 c 0
 100 136 107 148 115 154 c 0
 123 160 131 163 138 163 c 0
 153 163 165 152 172 145 c 1
 180 132 193 121 204 113 c 0
 216 104 220 93 220 82 c 0
 220 72 216 63 212 57 c 0
 202 45 190 41 180 41 c 0
 170 41 161 45 156 48 c 1x63
491 386 m 0
 497 378 499 370 499 362 c 0
 499 348 491 335 482 329 c 0
 475 324 466 322 459 322 c 0x3140
 446 322 434 329 427 338 c 0
 417 349 403 363 395 370 c 0
 383 380 380 391 380 401 c 0x2980
 380 412 383 421 388 427 c 0
 397 437 408 442 419 442 c 0
 428 442 436 439 443 434 c 0
 463 419 479 402 491 386 c 0
59 242 m 0x25
 59 251 59 259 59 265 c 0
 59 268 59 271 59 274 c 1
 59 276 l 1x25
 62 278 l 1
 67 298 83 310 100 310 c 0x23
 101 310 105 310 106 310 c 0
 132 306 141 285 141 269 c 0
 141 268 141 266 141 265 c 0
 140 256 139 248 139 242 c 0
 139 232 140 224 141 217 c 0
 141 215 141 213 141 212 c 0x25
 141 190 125 175 107 172 c 0
 105 172 102 172 100 172 c 0x23
 76 172 65 191 62 206 c 0
 60 219 59 232 59 242 c 0x25
459 220 m 1x2140
 461 222 459 234 459 242 c 0
 459 254 462 260 459 263 c 1
 459 265 459 267 459 268 c 0
 459 292 476 308 492 310 c 0
 494 310 495 310 497 310 c 0
 520 310 535 291 537 275 c 0
 538 262 539 252 539 242 c 0
 539 228 538 217 537 208 c 0
 533 182 510 172 496 172 c 0
 494 172 493 172 492 172 c 0
 466 176 459 197 459 214 c 0
 459 216 459 218 459 220 c 1x2140
170 335 m 1
 161 324 150 322 140 322 c 0
 130 322 122 323 115 328 c 0
 103 338 100 348 100 358 c 0
 100 368 103 377 107 383 c 0
 122 403 138 420 155 434 c 0
 163 440 172 443 179 443 c 0x33
 194 443 206 433 212 426 c 0
 218 418 221 408 221 401 c 0x2b
 221 387 212 377 205 371 c 0
 191 359 178 346 170 335 c 1
493 99 m 0
 479 79 447 41 417 41 c 0
 408 41 398 46 389 56 c 0
 383 63 380 72 380 80 c 0
 380 94 387 108 396 114 c 0
 408 123 420 137 428 146 c 0
 437 156 449 161 462 161 c 0
 470 161 478 159 485 153 c 0
 496 144 500 132 500 121 c 0x6180
 500 112 497 104 493 99 c 0
300 481 m 0
 314 481 325 480 333 479 c 0
 359 476 368 452 368 437 c 0
 368 436 368 435 368 434 c 0
 364 409 344 401 328 401 c 0
 326 401 325 401 323 401 c 0
 314 402 306 401 300 401 c 0
 292 401 282 402 275 401 c 0
 273 401 271 401 269 401 c 0
 248 401 234 416 232 434 c 0
 232 436 232 438 232 440 c 0
 232 466 252 472 264 479 c 1
 266 479 l 1x29
 277 480 289 481 300 481 c 0
333 3 m 0
 322 2 310 0 300 0 c 0
 286 0 275 2 267 3 c 0
 241 6 232 29 232 44 c 0
 232 45 232 47 232 48 c 0
 236 74 257 83 273 83 c 0
 274 83 276 83 277 83 c 0
 286 82 294 81 300 81 c 0
 309 81 317 82 323 83 c 0
 325 83 326 83 328 83 c 0xa1
 351 83 366 64 368 48 c 0
 368 46 368 43 368 41 c 0x61
 368 19 351 5 333 3 c 0
EndSplineSet
Validated: 1
EndChar

StartChar: uniE803
Encoding: 59395 59395 195
Width: 600
Flags: W
HStem: -200 100<410 501.562> 188 80<58.0762 122 202 265.924> 380 100<38.4375 310 410 501.562>
VStem: 54 216<191.156 264.844> 122 80<98.393 188> 310 100<-100 380>
LayerCount: 2
Fore
SplineSet
310 -150 m 2xe4
 310 380 l 1
 80 380 l 2
 52 380 30 402 30 430 c 0
 30 458 52 480 80 480 c 2
 460 480 l 2
 488 480 510 458 510 430 c 0
 510 402 488 380 460 380 c 2
 410 380 l 1
 410 -100 l 1
 460 -100 l 2
 488 -100 510 -122 510 -150 c 0
 510 -178 488 -200 460 -200 c 2
 360 -200 l 2
 332 -200 310 -178 310 -150 c 2xe4
122 188 m 1xec
 89 188 l 2
 71 188 54 206 54 228 c 0
 54 250 71 268 89 268 c 2
 162 268 l 1
 235 268 l 2
 253 268 270 250 270 228 c 0xf4
 270 206 253 188 235 188 c 2
 202 188 l 1
 202 134 l 2
 202 112 184 94 162 94 c 0
 140 94 122 112 122 134 c 2
 122 188 l 1xec
EndSplineSet
Validated: 1
LCarets2: 1 0 
MultipleSubs2: "Special Decomposition Table" afii57674 afii57797
Ligature2: "'ccmp' Final Kaf" afii57674 afii57797
EndChar

StartChar: uniFB1D
Encoding: 64285 64285 196
Width: 600
Flags: W
HStem: 61 83<292.607 365.393> 200 280<288.438 371.562> 380 100<160.438 280>
VStem: 280 100<208.438 380> 287 84<66.3547 138.393>
LayerCount: 2
Fore
SplineSet
329 144 m 0x88
 352 144 371 125 371 102 c 0
 371 79 352 61 329 61 c 0
 306 61 287 79 287 102 c 0
 287 125 306 144 329 144 c 0x88
330 480 m 2xd0
 358 480 380 458 380 430 c 2
 380 250 l 2
 380 222 358 200 330 200 c 0xd0
 302 200 280 222 280 250 c 2
 280 380 l 1
 202 380 l 2
 174 380 152 402 152 430 c 0
 152 458 174 480 202 480 c 2xb0
 330 480 l 2xd0
EndSplineSet
Validated: 1
Ligature2: "'ccmp' Yod Ligatures" afii57673 afii57793
LCarets2: 1 0 
EndChar

StartChar: uniFB1E
Encoding: 64286 64286 197
Width: 0
Flags: W
HStem: 540 100<-44.6744 45.1928>
VStem: -144 288<595.823 639.607>
LayerCount: 2
Fore
SplineSet
-124 597 m 1
 -136 608 -144 622 -144 637 c 0
 -144 665 -119 687 -94 687 c 0
 -83 687 -73 684 -64 677 c 0
 -29 650 -30 640 0 640 c 0
 30 640 29 650 64 677 c 0
 73 684 83 687 94 687 c 0
 120 687 144 665 144 637 c 0
 144 622 138 612 124 597 c 1
 109 580 54 540 0 540 c 0
 -50 540 -100 572 -124 597 c 1
EndSplineSet
Validated: 1
EndChar

StartChar: uniFB29
Encoding: 64297 64297 208
Width: 600
Flags: W
HStem: 230 100<66.4212 250 350 533.622>
VStem: 250 100<330 535.58>
LayerCount: 2
Fore
SplineSet
108 230 m 2
 84 230 72 232 63 239 c 0
 50 249 42 264 42 280 c 0
 42 297 51 314 66 323 c 0
 75 329 83 330 108 330 c 2
 250 330 l 1
 250 494 l 2
 250 520 252 530 260 539 c 1
 269 553 284 560 300 560 c 0
 317 560 334 551 343 536 c 0
 349 527 350 520 350 494 c 2
 350 330 l 1
 491 330 l 2
 519 330 527 328 537 321 c 0
 550 311 558 296 558 280 c 0
 558 263 549 246 534 237 c 0
 526 232 514 230 491 230 c 2
 108 230 l 2
EndSplineSet
Validated: 1
EndChar

StartChar: uniFB4F
Encoding: 64335 64335 246
Width: 600
Flags: W
HStem: 0 21G<483.5 496.5> 380 100<385.438 440>
VStem: 60 100<451 620.562> 377 163<388.438 471.562> 440 100<262.652 380>
AnchorPoint: "H" 300 0 basechar 0
AnchorPoint: "Q" 300 0 basechar 0
AnchorPoint: "W" 400 0 basechar 0
AnchorPoint: "N" 246 -2 basechar 0
AnchorPoint: "Holam" 0 0 basechar 0
LayerCount: 2
Fore
SplineSet
60 431 m 2xe8
 60 579 l 2
 60 607 82 629 110 629 c 0
 138 629 160 607 160 579 c 2
 160 451 l 1
 374 237 l 1
 419 258 440 276 440 300 c 0
 440 301 440 302 440 303 c 1
 440 380 l 1xe8
 427 380 l 2
 399 380 377 402 377 430 c 0xf0
 377 458 399 480 427 480 c 2
 540 480 l 1
 540 303 l 1
 538 230 495 190 448 162 c 1
 525 85 l 2
 535 76 540 63 540 50 c 0
 540 37 535 24 525 15 c 1
 516 5 503 0 490 0 c 0
 477 0 464 5 455 15 c 2
 75 395 l 2
 64 405 60 418 60 431 c 2xe8
EndSplineSet
Validated: 1
LCarets2: 2 0 0 
Ligature2: "'ccmp' Alef Lamed" afii57664 uni0000 afii57676
Ligature2: "'ccmp' Alef Lamed" afii57664 afii301 afii57676
EndChar

StartChar: uni05C5
Encoding: 1477 1477 247
Width: 0
Flags: W
HStem: -244 83<-36.393 36.393>
VStem: -42 84<-238.393 -166.355>
LayerCount: 2
Fore
SplineSet
0 -161 m 0
 23 -161 42 -179 42 -202 c 0
 42 -225 23 -244 0 -244 c 0
 -23 -244 -42 -225 -42 -202 c 0
 -42 -179 -23 -161 0 -161 c 0
EndSplineSet
Validated: 1
EndChar

StartChar: uni05C6
Encoding: 1478 1478 248
Width: 600
Flags: W
HStem: 0 100<260 391.562> 380 100<299.631 391.562>
VStem: 160 240<8.4375 91.5625> 160 100<100 334.013>
LayerCount: 2
Fore
SplineSet
350 100 m 2xd0
 378 100 400 78 400 50 c 0
 400 22 378 0 350 0 c 2
 210 0 l 2
 182 0 160 22 160 50 c 2xe0
 160 264 l 2xd0
 160 361 238 480 335 480 c 2
 350 480 l 2
 378 480 400 458 400 430 c 0xe0
 400 402 378 380 350 380 c 2
 335 380 l 2
 294 380 260 305 260 264 c 2
 260 100 l 1
 350 100 l 2xd0
EndSplineSet
Validated: 1
EndChar

StartChar: uni05C7
Encoding: 1479 1479 249
Width: 0
Flags: W
HStem: -140 80<-117.607 -40 40 117.607>
VStem: -122 244<-135.607 -64.393> -40 80<-229.607 -140>
AnchorPoint: "W" 0 0 mark 0
AnchorPoint: "M2V" -170 0 basemark 0
AnchorPoint: "VR" -40 0 mark 0
LayerCount: 2
Fore
SplineSet
-40 -140 m 1xa0
 -82 -140 l 2
 -104 -140 -122 -122 -122 -100 c 0
 -122 -78 -104 -60 -82 -60 c 2
 0 -60 l 1
 82 -60 l 2
 104 -60 122 -78 122 -100 c 0xc0
 122 -122 104 -140 82 -140 c 2
 40 -140 l 1
 40 -194 l 2
 40 -216 22 -234 0 -234 c 0
 -22 -234 -40 -216 -40 -194 c 2
 -40 -140 l 1xa0
EndSplineSet
Validated: 1
EndChar

StartChar: uni05BA
Encoding: 1466 1466 250
Width: 0
Flags: W
HStem: 540 84<-36.393 36.393>
VStem: -42 84<545.859 618.645>
AnchorPoint: "Holam_Haser_on Vav" 0 0 mark 0
LayerCount: 2
Fore
SplineSet
0 624 m 1
 23 624 42 606 42 583 c 0
 42 560 23 540 0 540 c 0
 -23 540 -42 560 -42 583 c 0
 -42 606 -23 624 0 624 c 1
EndSplineSet
Validated: 1
EndChar

StartChar: uni05A2
Encoding: 1442 1442 251
Width: 0
Flags: W
HStem: -250 144<-33.6827 33.6819>
VStem: -40 80<-245.607 -169.926>
LayerCount: 2
Fore
SplineSet
-40 -179 m 1
 -73 -168 -101 -144 -110 -108 c 0
 -111 -105 -111 -102 -111 -99 c 0
 -111 -81 -99 -64 -81 -60 c 0
 -78 -59 -75 -59 -72 -59 c 0
 -53 -59 -37 -71 -32 -89 c 0
 -31 -93 -22 -106 0 -106 c 0
 21 -106 31 -94 32 -89 c 0
 37 -72 53 -60 70 -60 c 0
 74 -60 77 -61 81 -62 c 1
 99 -66 111 -82 111 -100 c 0
 111 -103 110 -107 109 -111 c 0
 100 -145 72 -169 40 -179 c 1
 40 -210 l 2
 40 -232 22 -250 0 -250 c 0
 -22 -250 -40 -232 -40 -210 c 2
 -40 -179 l 1
EndSplineSet
Validated: 1
EndChar

StartChar: uni0000
Encoding: 0 0 252
Width: 600
Flags: W
HStem: -60 100<180 420> 440 100<180 420>
VStem: 80 100<40 440> 420 100<40 440>
LayerCount: 2
Fore
SplineSet
180 40 m 1
 420 40 l 1
 420 440 l 1
 180 440 l 1
 180 40 l 1
80 540 m 1
 520 540 l 1
 520 -60 l 1
 80 -60 l 1
 80 540 l 1
EndSplineSet
Validated: 1
EndChar

StartChar: quoteleft
Encoding: 8216 8216 254
Width: 600
Flags: W
HStem: 582 20<249 381 381 381>
LayerCount: 2
Fore
SplineSet
381 602 m 1
 450 395 l 2
 451 390 453 381 453 376 c 0
 453 361 438 348 422 348 c 0
 409 348 401 354 390 372 c 2
 249 602 l 1
 381 602 l 1
EndSplineSet
EndChar

StartChar: quotedblleft
Encoding: 8220 8220 255
Width: 600
Flags: W
HStem: 582 20<98 230 230 230 298 430 430 430>
LayerCount: 2
Fore
SplineSet
430 602 m 1
 499 395 l 2
 500 390 502 381 502 376 c 0
 502 361 487 348 471 348 c 0
 458 348 450 354 439 372 c 2
 298 602 l 1
 430 602 l 1
230 602 m 1
 299 395 l 2
 300 390 302 381 302 376 c 0
 302 361 287 348 271 348 c 0
 258 348 250 354 239 372 c 2
 98 602 l 1
 230 602 l 1
EndSplineSet
EndChar
